%TF.GenerationSoftware,KiCad,Pcbnew,8.0.2*%
%TF.CreationDate,2026-04-27T19:27:05+02:00*%
%TF.ProjectId,m18,6d31382e-6b69-4636-9164-5f7063625858,rev?*%
%TF.SameCoordinates,Original*%
%TF.FileFunction,Copper,L1,Top*%
%TF.FilePolarity,Positive*%
%FSLAX46Y46*%
G04 Gerber Fmt 4.6, Leading zero omitted, Abs format (unit mm)*
G04 Created by KiCad (PCBNEW 8.0.2) date 2026-04-27 19:27:05*
%MOMM*%
%LPD*%
G01*
G04 APERTURE LIST*
G04 Aperture macros list*
%AMRoundRect*
0 Rectangle with rounded corners*
0 $1 Rounding radius*
0 $2 $3 $4 $5 $6 $7 $8 $9 X,Y pos of 4 corners*
0 Add a 4 corners polygon primitive as box body*
4,1,4,$2,$3,$4,$5,$6,$7,$8,$9,$2,$3,0*
0 Add four circle primitives for the rounded corners*
1,1,$1+$1,$2,$3*
1,1,$1+$1,$4,$5*
1,1,$1+$1,$6,$7*
1,1,$1+$1,$8,$9*
0 Add four rect primitives between the rounded corners*
20,1,$1+$1,$2,$3,$4,$5,0*
20,1,$1+$1,$4,$5,$6,$7,0*
20,1,$1+$1,$6,$7,$8,$9,0*
20,1,$1+$1,$8,$9,$2,$3,0*%
G04 Aperture macros list end*
%TA.AperFunction,SMDPad,CuDef*%
%ADD10RoundRect,0.200000X0.275000X-0.200000X0.275000X0.200000X-0.275000X0.200000X-0.275000X-0.200000X0*%
%TD*%
%TA.AperFunction,SMDPad,CuDef*%
%ADD11R,1.550000X1.300000*%
%TD*%
%TA.AperFunction,ComponentPad*%
%ADD12C,2.200000*%
%TD*%
%TA.AperFunction,ComponentPad*%
%ADD13R,1.700000X1.700000*%
%TD*%
%TA.AperFunction,ComponentPad*%
%ADD14O,1.700000X1.700000*%
%TD*%
%TA.AperFunction,SMDPad,CuDef*%
%ADD15R,0.900000X1.450000*%
%TD*%
%TA.AperFunction,SMDPad,CuDef*%
%ADD16R,1.000000X1.600000*%
%TD*%
%TA.AperFunction,SMDPad,CuDef*%
%ADD17RoundRect,0.381000X-0.762000X-0.381000X0.762000X-0.381000X0.762000X0.381000X-0.762000X0.381000X0*%
%TD*%
%TA.AperFunction,ComponentPad*%
%ADD18RoundRect,0.381000X-0.762000X-0.381000X0.762000X-0.381000X0.762000X0.381000X-0.762000X0.381000X0*%
%TD*%
%TA.AperFunction,ComponentPad*%
%ADD19RoundRect,0.250000X-0.862000X-0.512000X0.862000X-0.512000X0.862000X0.512000X-0.862000X0.512000X0*%
%TD*%
%TA.AperFunction,SMDPad,CuDef*%
%ADD20RoundRect,0.150000X0.587500X0.150000X-0.587500X0.150000X-0.587500X-0.150000X0.587500X-0.150000X0*%
%TD*%
%TA.AperFunction,ComponentPad*%
%ADD21C,2.000000*%
%TD*%
%TA.AperFunction,SMDPad,CuDef*%
%ADD22RoundRect,0.200000X-0.275000X0.200000X-0.275000X-0.200000X0.275000X-0.200000X0.275000X0.200000X0*%
%TD*%
%TA.AperFunction,ComponentPad*%
%ADD23C,1.600000*%
%TD*%
%TA.AperFunction,ComponentPad*%
%ADD24O,1.600000X1.600000*%
%TD*%
%TA.AperFunction,SMDPad,CuDef*%
%ADD25RoundRect,0.150000X-0.587500X-0.150000X0.587500X-0.150000X0.587500X0.150000X-0.587500X0.150000X0*%
%TD*%
%TA.AperFunction,ViaPad*%
%ADD26C,0.600000*%
%TD*%
%TA.AperFunction,Conductor*%
%ADD27C,1.000000*%
%TD*%
%TA.AperFunction,Conductor*%
%ADD28C,0.330000*%
%TD*%
%TA.AperFunction,Conductor*%
%ADD29C,0.500000*%
%TD*%
%TA.AperFunction,Conductor*%
%ADD30C,0.750000*%
%TD*%
G04 APERTURE END LIST*
D10*
%TO.P,R5,1*%
%TO.N,Net-(J3-J1)*%
X154513600Y-135385000D03*
%TO.P,R5,2*%
%TO.N,Net-(Q3-B)*%
X154513600Y-133735000D03*
%TD*%
D11*
%TO.P,SW2,1,1*%
%TO.N,/Button*%
X150375000Y-105750000D03*
X142425000Y-105750000D03*
%TO.P,SW2,2,2*%
%TO.N,GND*%
X150375000Y-101250000D03*
X142425000Y-101250000D03*
%TD*%
D12*
%TO.P,J3,1,+*%
%TO.N,Net-(J3-+)*%
X160000000Y-141200000D03*
X165080000Y-141200000D03*
%TO.P,J3,2,J1*%
%TO.N,Net-(J3-J1)*%
X160000000Y-135600000D03*
X165080000Y-135600000D03*
%TO.P,J3,3,J2*%
%TO.N,Net-(J3-J2)*%
X160000000Y-124400000D03*
X165080000Y-124400000D03*
%TO.P,J3,4,-*%
%TO.N,GND*%
X160000000Y-118800000D03*
X165080000Y-118800000D03*
%TD*%
D13*
%TO.P,J2,1,Pin_1*%
%TO.N,GND*%
X143159400Y-125629200D03*
D14*
%TO.P,J2,2,Pin_2*%
%TO.N,/Rx*%
X143159400Y-128169200D03*
%TO.P,J2,3,Pin_3*%
%TO.N,/Tx*%
X143159400Y-130709200D03*
%TO.P,J2,4,Pin_4*%
%TO.N,/3V3*%
X143159400Y-133249200D03*
%TD*%
D15*
%TO.P,SW1,1,1*%
%TO.N,/Button*%
X176673900Y-128173800D03*
D16*
%TO.P,SW1,2,2*%
%TO.N,GND*%
X178373900Y-126923800D03*
D15*
X176673900Y-131973800D03*
D16*
X178373900Y-133273800D03*
%TD*%
D17*
%TO.P,U2,1,5_Mi*%
%TO.N,unconnected-(U2-5_Mi-Pad1)_0*%
X116545000Y-121030000D03*
D18*
%TO.N,unconnected-(U2-5_Mi-Pad1)*%
X118450000Y-121030000D03*
D17*
%TO.P,U2,2,6_Mo*%
%TO.N,/6*%
X116545000Y-123570000D03*
D18*
X118450000Y-123570000D03*
D17*
%TO.P,U2,3,7_SS*%
%TO.N,/7*%
X116545000Y-126110000D03*
D19*
X118450000Y-126110000D03*
D17*
%TO.P,U2,4,8_Boot_SDA_Led*%
%TO.N,/8*%
X116545000Y-128650000D03*
D18*
X118450000Y-128650000D03*
D17*
%TO.P,U2,5,9_SCL*%
%TO.N,/9*%
X116545000Y-131190000D03*
D18*
X118450000Y-131190000D03*
D17*
%TO.P,U2,6,10*%
%TO.N,/10*%
X116545000Y-133730000D03*
D18*
X118450000Y-133730000D03*
D17*
%TO.P,U2,7,20_Tx*%
%TO.N,/Tx*%
X116545000Y-136270000D03*
D18*
X118450000Y-136270000D03*
D17*
%TO.P,U2,8,21_Rx*%
%TO.N,/Rx*%
X116545000Y-138810000D03*
D19*
X118450000Y-138810000D03*
%TO.P,U2,9,0*%
%TO.N,/Button*%
X133690000Y-138810000D03*
D17*
X135595000Y-138810000D03*
D19*
%TO.P,U2,10,1*%
%TO.N,unconnected-(U2-1-Pad10)_0*%
X133690000Y-136270000D03*
D17*
%TO.N,unconnected-(U2-1-Pad10)*%
X135595000Y-136270000D03*
D19*
%TO.P,U2,11,2*%
%TO.N,/2*%
X133690000Y-133730000D03*
D17*
X135595000Y-133730000D03*
D19*
%TO.P,U2,12,3*%
%TO.N,/3*%
X133690000Y-131190000D03*
D17*
X135595000Y-131190000D03*
D19*
%TO.P,U2,13,4_Sck*%
%TO.N,/4*%
X133690000Y-128650000D03*
D17*
X135595000Y-128650000D03*
D19*
%TO.P,U2,14,3V3*%
%TO.N,/3V3*%
X133690000Y-126110000D03*
D17*
X135595000Y-126110000D03*
D19*
%TO.P,U2,15,GND*%
%TO.N,GND*%
X133690000Y-123570000D03*
D17*
X135595000Y-123570000D03*
D19*
%TO.P,U2,16,5V*%
%TO.N,Net-(U2-5V)*%
X133690000Y-121030000D03*
D17*
X135595000Y-121030000D03*
%TD*%
D20*
%TO.P,Q1,1,B*%
%TO.N,Net-(Q1-B)*%
X150421900Y-131460100D03*
%TO.P,Q1,2,E*%
%TO.N,GND*%
X150421900Y-129560100D03*
%TO.P,Q1,3,C*%
%TO.N,/Rx*%
X148546900Y-130510100D03*
%TD*%
D21*
%TO.P,U1,1,GND*%
%TO.N,GND*%
X109800000Y-138920000D03*
%TO.P,U1,2,Vcc*%
%TO.N,/3V3*%
X109800000Y-136380000D03*
%TO.P,U1,3,Ck*%
%TO.N,/4*%
X109800000Y-133840000D03*
%TO.P,U1,4,Da*%
%TO.N,/6*%
X109800000Y-131300000D03*
%TO.P,U1,5,Rs*%
%TO.N,/3*%
X109800000Y-128760000D03*
%TO.P,U1,6,Dc*%
%TO.N,/2*%
X109800000Y-126220000D03*
%TO.P,U1,7,Cs*%
%TO.N,/7*%
X109800000Y-123680000D03*
%TO.P,U1,8,Bckl*%
%TO.N,/10*%
X109800000Y-121160000D03*
%TD*%
D22*
%TO.P,R2,1*%
%TO.N,/3V3*%
X147800000Y-124540200D03*
%TO.P,R2,2*%
%TO.N,/Tx*%
X147800000Y-126190200D03*
%TD*%
D10*
%TO.P,R1,1*%
%TO.N,/3V3*%
X148366800Y-135334200D03*
%TO.P,R1,2*%
%TO.N,/Rx*%
X148366800Y-133684200D03*
%TD*%
D23*
%TO.P,J1,1,Pin_1*%
%TO.N,GND*%
X133980000Y-113100000D03*
%TO.P,J1,2,Pin_2*%
%TO.N,/3V3*%
X136520000Y-113100000D03*
%TO.P,J1,3,Pin_3*%
%TO.N,/9*%
X139060000Y-113100000D03*
D24*
%TO.P,J1,4,Pin_4*%
%TO.N,/8*%
X141600000Y-113100000D03*
%TD*%
D10*
%TO.P,R4,1*%
%TO.N,Net-(J3-+)*%
X155252500Y-126190200D03*
%TO.P,R4,2*%
%TO.N,Net-(J3-J2)*%
X155252500Y-124540200D03*
%TD*%
D20*
%TO.P,Q3,1,B*%
%TO.N,Net-(Q3-B)*%
X154462800Y-131461200D03*
%TO.P,Q3,2,E*%
%TO.N,GND*%
X154462800Y-129561200D03*
%TO.P,Q3,3,C*%
%TO.N,Net-(Q1-B)*%
X152587800Y-130511200D03*
%TD*%
D25*
%TO.P,Q2,1,G*%
%TO.N,/3V3*%
X150911400Y-124364400D03*
%TO.P,Q2,2,S*%
%TO.N,/Tx*%
X150911400Y-126264400D03*
%TO.P,Q2,3,D*%
%TO.N,Net-(J3-J2)*%
X152786400Y-125314400D03*
%TD*%
D10*
%TO.P,R3,1*%
%TO.N,/3V3*%
X151364000Y-135435800D03*
%TO.P,R3,2*%
%TO.N,Net-(Q1-B)*%
X151364000Y-133785800D03*
%TD*%
D21*
%TO.P,U3,1,Vin+*%
%TO.N,Net-(J3-+)*%
X160212500Y-146400000D03*
%TO.P,U3,2,Vin-*%
%TO.N,GND*%
X160212500Y-159700000D03*
%TO.P,U3,3,Vout-*%
X141912500Y-159700000D03*
%TO.P,U3,4,Vout+*%
%TO.N,Net-(U2-5V)*%
X141912500Y-146400000D03*
%TD*%
D26*
%TO.N,GND*%
X119380000Y-147320000D03*
X144780000Y-109220000D03*
X172720000Y-121513600D03*
X129540000Y-109220000D03*
X137160000Y-140970000D03*
X127000000Y-139700000D03*
X139700000Y-154940000D03*
X129540000Y-139954000D03*
X157327600Y-121564400D03*
X157480000Y-116840000D03*
X114300000Y-115570000D03*
X175260000Y-132080000D03*
X162560000Y-128270000D03*
X149860000Y-116840000D03*
X157480000Y-147320000D03*
X167640000Y-124460000D03*
X156006800Y-134620000D03*
X138430000Y-139700000D03*
X162560000Y-109220000D03*
X175260000Y-121920000D03*
X152400000Y-132080000D03*
X129540000Y-124460000D03*
X162560000Y-139700000D03*
X119380000Y-154940000D03*
X175260000Y-109220000D03*
X147320000Y-139700000D03*
X116840000Y-115570000D03*
X116840000Y-109220000D03*
X134620000Y-140970000D03*
X141800000Y-125700000D03*
X151668800Y-129560100D03*
X165100000Y-154940000D03*
X114300000Y-109220000D03*
X165100000Y-116840000D03*
X121920000Y-130810000D03*
X111760000Y-133350000D03*
X149860000Y-109220000D03*
X111760000Y-147320000D03*
X142240000Y-139700000D03*
X175260000Y-111760000D03*
X129540000Y-127000000D03*
X139700000Y-109220000D03*
X170180000Y-154940000D03*
X127000000Y-147320000D03*
X141427200Y-133451600D03*
X167640000Y-154940000D03*
X160020000Y-116840000D03*
X116840000Y-119380000D03*
X134620000Y-147320000D03*
X120650000Y-123190000D03*
X175260000Y-142240000D03*
X121920000Y-139700000D03*
X132080000Y-147320000D03*
X144780000Y-147320000D03*
X175260000Y-147320000D03*
X124460000Y-154940000D03*
X132080000Y-109220000D03*
X147320000Y-127635000D03*
X129540000Y-147320000D03*
X134620000Y-109220000D03*
X152400000Y-139700000D03*
X160020000Y-132080000D03*
X129540000Y-154940000D03*
X145000000Y-125700000D03*
X137160000Y-154940000D03*
X175260000Y-134620000D03*
X175260000Y-125069600D03*
X127000000Y-129540000D03*
X132080000Y-154940000D03*
X109220000Y-116840000D03*
X121920000Y-115570000D03*
X114046000Y-139903200D03*
X144780000Y-154940000D03*
X127000000Y-109220000D03*
X109220000Y-154940000D03*
X172720000Y-109220000D03*
X124460000Y-129540000D03*
X124460000Y-119380000D03*
X155834400Y-129530800D03*
X154940000Y-154940000D03*
X157480000Y-132080000D03*
X165100000Y-132080000D03*
X160020000Y-154940000D03*
X172720000Y-154940000D03*
X152400000Y-109220000D03*
X162560000Y-132080000D03*
X127000000Y-124460000D03*
X170180000Y-147320000D03*
X170180000Y-116840000D03*
X129540000Y-121920000D03*
X116840000Y-147320000D03*
X152400000Y-154940000D03*
X134620000Y-154940000D03*
X147320000Y-147320000D03*
X144780000Y-139700000D03*
X162560000Y-154940000D03*
X119380000Y-109220000D03*
X175260000Y-144780000D03*
X160020000Y-128270000D03*
X119380000Y-115570000D03*
X175260000Y-152400000D03*
X111963200Y-136601200D03*
X116840000Y-154940000D03*
X121920000Y-119380000D03*
X172720000Y-139700000D03*
X165100000Y-128270000D03*
X152400000Y-127000000D03*
X121920000Y-154940000D03*
X149860000Y-139700000D03*
X113030000Y-121920000D03*
X114300000Y-154940000D03*
X175260000Y-116840000D03*
X111658400Y-139954000D03*
X124460000Y-124460000D03*
X137160000Y-147320000D03*
X127000000Y-115570000D03*
X172720000Y-147320000D03*
X175260000Y-154940000D03*
X170281600Y-121462800D03*
X167843200Y-121361200D03*
X149860000Y-132715000D03*
X140970000Y-119380000D03*
X139700000Y-147320000D03*
X144780000Y-132080000D03*
X157480000Y-109220000D03*
X132080000Y-116840000D03*
X165100000Y-109220000D03*
X149860000Y-154940000D03*
X121920000Y-147320000D03*
X170180000Y-139700000D03*
X170180000Y-132080000D03*
X167640000Y-116840000D03*
X147320000Y-154940000D03*
X144322800Y-121412000D03*
X121920000Y-109220000D03*
X175260000Y-114300000D03*
X175260000Y-139700000D03*
X109220000Y-147320000D03*
X140970000Y-115570000D03*
X152857200Y-136347200D03*
X138430000Y-118110000D03*
X160020000Y-109220000D03*
X152400000Y-116840000D03*
X114300000Y-147320000D03*
X142240000Y-154940000D03*
X170180000Y-124460000D03*
X172720000Y-116840000D03*
X111760000Y-115570000D03*
X129540000Y-137160000D03*
X147320000Y-109220000D03*
X127000000Y-121920000D03*
X152400000Y-147320000D03*
X165100000Y-147320000D03*
X124460000Y-147320000D03*
X157480000Y-154940000D03*
X114300000Y-119380000D03*
X154940000Y-109220000D03*
X149860000Y-147320000D03*
X154940000Y-116840000D03*
X127000000Y-154940000D03*
X139700000Y-116840000D03*
X157480000Y-128270000D03*
X111760000Y-154940000D03*
X131673600Y-135026400D03*
X147320000Y-132080000D03*
X167640000Y-147320000D03*
X175260000Y-127000000D03*
X111760000Y-119380000D03*
X137160000Y-109220000D03*
X162560000Y-116840000D03*
X138430000Y-123190000D03*
X114300000Y-121920000D03*
X113995200Y-136499600D03*
X124460000Y-109220000D03*
X146685000Y-129540000D03*
X145415000Y-129540000D03*
X175260000Y-149860000D03*
X124460000Y-139700000D03*
X175260000Y-119380000D03*
X167640000Y-109220000D03*
X119380000Y-119380000D03*
X175260000Y-129540000D03*
X121920000Y-133350000D03*
X162560000Y-147320000D03*
X124460000Y-115570000D03*
X129540000Y-116840000D03*
X124460000Y-133350000D03*
X170180000Y-109220000D03*
X175260000Y-137160000D03*
X154940000Y-147320000D03*
X154940000Y-139700000D03*
X132080000Y-140970000D03*
X157480000Y-139700000D03*
%TO.N,/Tx*%
X137300000Y-132400000D03*
%TO.N,/Rx*%
X131100000Y-133700000D03*
%TO.N,/8*%
X125700000Y-119903000D03*
%TO.N,/9*%
X127900000Y-119100000D03*
%TO.N,/Button*%
X142100000Y-122700000D03*
X138800000Y-125700000D03*
%TO.N,/3*%
X130750000Y-131350000D03*
X111900000Y-131300000D03*
%TO.N,/6*%
X113800000Y-124500000D03*
%TO.N,/10*%
X111700000Y-127100000D03*
%TD*%
D27*
%TO.N,GND*%
X178175000Y-124835000D02*
X178175000Y-125921100D01*
D28*
X155819200Y-129546000D02*
X155834400Y-129530800D01*
D29*
X143159400Y-125629200D02*
X144879136Y-125629200D01*
X145000000Y-125700000D02*
X144964600Y-125664600D01*
D28*
X142425000Y-101250000D02*
X150375000Y-101250000D01*
D27*
X178373900Y-126120000D02*
X178373900Y-126923800D01*
D29*
X141835400Y-125664600D02*
X141800000Y-125700000D01*
D28*
X154460922Y-129560100D02*
X150421900Y-129560100D01*
D29*
X143159400Y-125629200D02*
X141920863Y-125629200D01*
D28*
X154463577Y-129561200D02*
X155782503Y-129561200D01*
D27*
X178373900Y-133273800D02*
X175443800Y-133273800D01*
X178175000Y-125921100D02*
X178373900Y-126120000D01*
X175260000Y-133090000D02*
X175260000Y-132080000D01*
X175260000Y-121920000D02*
X178175000Y-124835000D01*
X175443800Y-133273800D02*
X175260000Y-133090000D01*
D28*
X154462250Y-129560650D02*
G75*
G03*
X154463577Y-129561209I1350J1350D01*
G01*
X155819200Y-129546000D02*
G75*
G02*
X155782503Y-129561202I-36700J36700D01*
G01*
X154462250Y-129560650D02*
G75*
G03*
X154460922Y-129560091I-1350J-1350D01*
G01*
D29*
X144964600Y-125664600D02*
G75*
G03*
X144879136Y-125629185I-85500J-85500D01*
G01*
X141920863Y-125629200D02*
G75*
G03*
X141835411Y-125664611I37J-120900D01*
G01*
D28*
%TO.N,Net-(Q1-B)*%
X151364000Y-131445543D02*
X151364000Y-133785800D01*
X151364000Y-131375256D02*
X151364000Y-130918857D01*
X151364000Y-131375256D02*
X151364000Y-131445543D01*
X151279156Y-131460100D02*
X150421900Y-131460100D01*
X151771657Y-130511200D02*
X152587800Y-130511200D01*
X151364000Y-131445543D02*
G75*
G03*
X151339076Y-131435176I-14600J43D01*
G01*
X151339150Y-131435250D02*
G75*
G02*
X151279156Y-131460053I-59950J60050D01*
G01*
X151339150Y-131435250D02*
G75*
G03*
X151363953Y-131375256I-60050J59950D01*
G01*
X151483400Y-130630600D02*
G75*
G03*
X151363982Y-130918857I288300J-288300D01*
G01*
X151771657Y-130511200D02*
G75*
G03*
X151483413Y-130630613I43J-407700D01*
G01*
D30*
%TO.N,/3V3*%
X108225000Y-119805850D02*
X108225000Y-133964590D01*
D27*
X131000000Y-125239375D02*
X131000000Y-120318198D01*
D28*
X148366950Y-124364400D02*
X149281050Y-124364400D01*
X141051600Y-125560800D02*
X141051600Y-124763200D01*
D27*
X131425000Y-119575000D02*
X131474999Y-119524999D01*
D28*
X148366950Y-124364400D02*
X141450400Y-124364400D01*
D27*
X136520000Y-113790000D02*
X136520000Y-113100000D01*
D30*
X108819259Y-135399259D02*
X109800000Y-136380000D01*
D27*
X131474999Y-119524999D02*
X136032096Y-114967903D01*
D30*
X130775000Y-119775000D02*
X129900000Y-118900000D01*
D28*
X143159400Y-133249200D02*
X142105500Y-132195300D01*
D30*
X110230850Y-117800000D02*
X127244365Y-117800000D01*
D28*
X141051600Y-125560800D02*
X141051600Y-129650960D01*
X149281050Y-124364400D02*
X150911400Y-124364400D01*
X147822000Y-124452300D02*
X147734100Y-124540200D01*
X131535355Y-119500000D02*
X137890721Y-119500000D01*
D27*
X131425000Y-119575000D02*
X131225000Y-119775000D01*
D28*
X141051600Y-122660878D02*
X141051600Y-124763200D01*
X151190557Y-135334200D02*
X148366800Y-135334200D01*
D27*
X131870624Y-126110000D02*
X133690000Y-126110000D01*
D28*
X131475000Y-119525000D02*
X131425000Y-119575000D01*
X148034209Y-124364400D02*
X148366950Y-124364400D01*
X151313200Y-135385000D02*
X151364000Y-135435800D01*
X148366800Y-135334200D02*
X146718717Y-135334200D01*
X141051600Y-124763200D02*
X141051600Y-125560800D01*
X143159400Y-133249200D02*
X144201900Y-134291700D01*
D30*
X110230850Y-117800000D02*
G75*
G03*
X108812485Y-118387485I-50J-2005800D01*
G01*
D27*
X131255000Y-125855000D02*
G75*
G03*
X131870624Y-126109990I615600J615600D01*
G01*
D28*
X144201900Y-134291700D02*
G75*
G03*
X146718717Y-135334193I2516800J2516800D01*
G01*
D27*
X131225000Y-119775000D02*
G75*
G03*
X130999999Y-120318198I543200J-543200D01*
G01*
X131000000Y-125239375D02*
G75*
G03*
X131254993Y-125855007I870600J-25D01*
G01*
D30*
X129900000Y-118900000D02*
G75*
G03*
X127244365Y-117800014I-2655600J-2655600D01*
G01*
D28*
X141051600Y-124763200D02*
X141051600Y-124763200D01*
X140125800Y-120425800D02*
G75*
G02*
X141051609Y-122660878I-2235100J-2235100D01*
G01*
D30*
X108812500Y-118387500D02*
G75*
G03*
X108225021Y-119805850I1418300J-1418300D01*
G01*
D27*
X131000000Y-120318198D02*
G75*
G03*
X130774999Y-119775001I-768200J-2D01*
G01*
D30*
X108225000Y-133964590D02*
G75*
G03*
X108819260Y-135399258I2028900J-10D01*
G01*
D28*
X140125800Y-120425800D02*
G75*
G03*
X137890721Y-119499991I-2235100J-2235100D01*
G01*
X131535355Y-119500000D02*
G75*
G03*
X131475013Y-119525013I45J-85400D01*
G01*
X148034209Y-124364400D02*
G75*
G03*
X147821997Y-124452297I-9J-300100D01*
G01*
X151313200Y-135385000D02*
G75*
G03*
X151190557Y-135334217I-122600J-122600D01*
G01*
D27*
X136520000Y-113790000D02*
G75*
G02*
X136032095Y-114967902I-1665800J0D01*
G01*
D28*
X141450400Y-124364400D02*
G75*
G03*
X141051600Y-124763200I0J-398800D01*
G01*
D27*
X131474999Y-119524999D02*
X131475000Y-119525000D01*
D30*
X130775000Y-119775000D02*
G75*
G03*
X131225000Y-119775000I225000J225000D01*
G01*
D28*
X141051600Y-129650960D02*
G75*
G03*
X142105488Y-132195312I3598200J-40D01*
G01*
%TO.N,/Tx*%
X141944400Y-127880004D02*
X141944400Y-128635065D01*
X116710000Y-136435000D02*
X116545000Y-136270000D01*
X128806206Y-133993792D02*
X127793792Y-135006207D01*
X142935204Y-126889200D02*
X144978599Y-126889200D01*
X117108345Y-136600000D02*
X123946036Y-136600000D01*
X146487000Y-126264400D02*
X150911400Y-126264400D01*
X132653963Y-132400000D02*
X137300000Y-132400000D01*
X142551900Y-130101700D02*
X143159400Y-130709200D01*
X127793792Y-135006207D02*
G75*
G02*
X123946036Y-136600010I-3847792J3847807D01*
G01*
X116710000Y-136435000D02*
G75*
G03*
X117108345Y-136599952I398300J398400D01*
G01*
X132653963Y-132400000D02*
G75*
G03*
X128806215Y-133993801I37J-5441600D01*
G01*
X145732800Y-126576800D02*
G75*
G02*
X144978599Y-126889200I-754200J754200D01*
G01*
X142234600Y-127179400D02*
G75*
G03*
X141944402Y-127880004I700600J-700600D01*
G01*
X146487000Y-126264400D02*
G75*
G03*
X145732800Y-126576800I0J-1066600D01*
G01*
X141944400Y-128635065D02*
G75*
G03*
X142551890Y-130101710I2074100J-35D01*
G01*
X142935204Y-126889200D02*
G75*
G03*
X142234599Y-127179399I-4J-990800D01*
G01*
%TO.N,/Rx*%
X148366800Y-130923300D02*
X148366800Y-131389500D01*
X148366800Y-131389500D02*
X148366800Y-130923300D01*
X116850000Y-138505000D02*
X116545000Y-138810000D01*
X148366800Y-130817549D02*
X148366800Y-130923300D01*
X117586335Y-138200000D02*
X124346036Y-138200000D01*
X146129124Y-128169200D02*
X143159400Y-128169200D01*
X148456850Y-130600150D02*
X148546900Y-130510100D01*
X148366800Y-131389500D02*
X148366800Y-133684200D01*
X148366800Y-130923300D02*
X148366800Y-130318200D01*
X131100000Y-133700000D02*
X128193792Y-136606207D01*
X147774103Y-128887303D02*
X147711400Y-128824600D01*
X148366800Y-130923300D02*
X148366800Y-130923300D01*
X148456850Y-130600150D02*
G75*
G03*
X148366821Y-130817549I217350J-217350D01*
G01*
X128193792Y-136606207D02*
G75*
G02*
X124346036Y-138200010I-3847792J3847807D01*
G01*
X147711400Y-128824600D02*
G75*
G03*
X146129124Y-128169190I-1582300J-1582300D01*
G01*
X147774103Y-128887303D02*
G75*
G02*
X148366798Y-130318200I-1430903J-1430897D01*
G01*
X117586335Y-138200000D02*
G75*
G03*
X116849990Y-138504990I-35J-1041300D01*
G01*
%TO.N,/8*%
X121500000Y-125501500D02*
X121500000Y-125662563D01*
X120624999Y-127774999D02*
X120209619Y-128190380D01*
X119100000Y-128650000D02*
X118450000Y-128650000D01*
X122488888Y-123114111D02*
X125700000Y-119903000D01*
X121500000Y-125662563D02*
G75*
G02*
X120625011Y-127775011I-2987400J-37D01*
G01*
X120209619Y-128190380D02*
G75*
G02*
X119100000Y-128650011I-1109619J1109580D01*
G01*
X122488888Y-123114111D02*
G75*
G03*
X121500006Y-125501500I2387412J-2387389D01*
G01*
%TO.N,/9*%
X119280000Y-131190000D02*
X118450000Y-131190000D01*
X127900000Y-119100000D02*
X124520279Y-122479720D01*
X123000000Y-126256461D02*
X123000000Y-126150000D01*
X121554999Y-129744999D02*
X120696898Y-130603101D01*
X124520279Y-122479720D02*
G75*
G03*
X123000011Y-126150000I3670321J-3670280D01*
G01*
X120696898Y-130603101D02*
G75*
G02*
X119280000Y-131189998I-1416898J1416901D01*
G01*
X123000000Y-126256461D02*
G75*
G02*
X121555011Y-129745011I-4933500J-39D01*
G01*
%TO.N,Net-(J3-J1)*%
X154621100Y-135492500D02*
X154513600Y-135385000D01*
X154880627Y-135600000D02*
X165080000Y-135600000D01*
X154621100Y-135492500D02*
G75*
G03*
X154880627Y-135599988I259500J259500D01*
G01*
%TO.N,Net-(J3-+)*%
X166070600Y-140209400D02*
X165080000Y-141200000D01*
X160150260Y-141200000D02*
X165080000Y-141200000D01*
X163786627Y-126190200D02*
X155252500Y-126190200D01*
X167061200Y-137817880D02*
X167061200Y-129464772D01*
D27*
X160212500Y-141562760D02*
X160212500Y-146233750D01*
X160330056Y-145949943D02*
X165080000Y-141200000D01*
D28*
X167061200Y-137817880D02*
G75*
G02*
X166070606Y-140209406I-3382100J-20D01*
G01*
X166102100Y-127149300D02*
G75*
G02*
X167061212Y-129464772I-2315500J-2315500D01*
G01*
X166102100Y-127149300D02*
G75*
G03*
X163786627Y-126190188I-2315500J-2315500D01*
G01*
D27*
X160330056Y-145949943D02*
G75*
G03*
X160212545Y-146233750I283844J-283757D01*
G01*
X160106250Y-141306250D02*
G75*
G02*
X160212516Y-141562760I-256550J-256550D01*
G01*
X160212500Y-146233750D02*
X160212500Y-146233750D01*
D28*
X160150260Y-141200000D02*
G75*
G03*
X160106318Y-141306182I40J-62200D01*
G01*
%TO.N,Net-(J3-J2)*%
X154230370Y-124937229D02*
X154310400Y-124857200D01*
X155414178Y-124400000D02*
X165080000Y-124400000D01*
X153319800Y-125314400D02*
X152786400Y-125314400D01*
X154230370Y-124937229D02*
G75*
G02*
X153319800Y-125314411I-910570J910529D01*
G01*
X155414178Y-124400000D02*
G75*
G03*
X154310406Y-124857206I22J-1561000D01*
G01*
%TO.N,Net-(Q3-B)*%
X154513600Y-131547921D02*
X154513600Y-133735000D01*
X154488200Y-131486600D02*
X154462800Y-131461200D01*
X154488200Y-131486600D02*
G75*
G02*
X154513591Y-131547921I-61300J-61300D01*
G01*
%TO.N,/Button*%
X142665416Y-105750000D02*
X150375000Y-105750000D01*
X136492500Y-138810000D02*
X135595000Y-138810000D01*
X138094999Y-138104999D02*
X138024628Y-138175371D01*
X176675000Y-126887411D02*
X176673900Y-126888511D01*
X176673900Y-126888511D02*
X176673900Y-128173800D01*
X138800000Y-136402979D02*
X138800000Y-125700000D01*
X142765000Y-106330416D02*
X142765000Y-121564773D01*
X172478788Y-122700000D02*
X142100000Y-122700000D01*
X142432500Y-122367500D02*
X142100000Y-122700000D01*
X142765000Y-121564773D02*
G75*
G02*
X142432508Y-122367508I-1135200J-27D01*
G01*
X175450000Y-123930000D02*
G75*
G02*
X176674995Y-126887411I-2957400J-2957400D01*
G01*
X175447412Y-123925000D02*
G75*
G03*
X172490000Y-122699996I-2957412J-2957400D01*
G01*
X138800000Y-136402979D02*
G75*
G02*
X138095006Y-138105006I-2407000J-21D01*
G01*
X142595000Y-105920000D02*
G75*
G02*
X142764993Y-106330416I-410400J-410400D01*
G01*
X138024628Y-138175371D02*
G75*
G02*
X136492500Y-138809987I-1532128J1532171D01*
G01*
X142665416Y-105750000D02*
G75*
G03*
X142594972Y-105920028I-16J-99600D01*
G01*
%TO.N,/3*%
X110280000Y-128760000D02*
X109800000Y-128760000D01*
X111099411Y-129099411D02*
X111405025Y-129405025D01*
X111900000Y-131300000D02*
X111900000Y-130600000D01*
X131023137Y-131190000D02*
X133690000Y-131190000D01*
X130750000Y-131350000D02*
X130830000Y-131270000D01*
X111405025Y-129405025D02*
G75*
G02*
X111899985Y-130600000I-1195025J-1194975D01*
G01*
X111099411Y-129099411D02*
G75*
G03*
X110280000Y-128759993I-819411J-819389D01*
G01*
X131023137Y-131190000D02*
G75*
G03*
X130829989Y-131269989I-37J-273100D01*
G01*
%TO.N,/6*%
X114265000Y-124035000D02*
X113800000Y-124500000D01*
X115387609Y-123570000D02*
X116545000Y-123570000D01*
X115387609Y-123570000D02*
G75*
G03*
X114264997Y-124034997I-9J-1587600D01*
G01*
%TO.N,/4*%
X133020000Y-128650000D02*
X133690000Y-128650000D01*
X110380000Y-134420000D02*
X109800000Y-133840000D01*
X131876238Y-129123761D02*
X127593792Y-133406207D01*
X123746036Y-135000000D02*
X111780243Y-135000000D01*
X110380000Y-134420000D02*
G75*
G03*
X111780243Y-134999953I1400200J1400300D01*
G01*
X133020000Y-128650000D02*
G75*
G03*
X131876243Y-129123766I0J-1617500D01*
G01*
X127593792Y-133406207D02*
G75*
G02*
X123746036Y-135000010I-3847792J3847807D01*
G01*
%TO.N,/7*%
X110640000Y-123680000D02*
X109800000Y-123680000D01*
X112695000Y-124895000D02*
X112073969Y-124273969D01*
X115628269Y-126110000D02*
X118450000Y-126110000D01*
X112073969Y-124273969D02*
G75*
G03*
X110640000Y-123679988I-1433969J-1433931D01*
G01*
X112695000Y-124895000D02*
G75*
G03*
X115628269Y-126110013I2933300J2933300D01*
G01*
%TO.N,/2*%
X115707106Y-132400000D02*
X124346036Y-132400000D01*
X136683101Y-133730000D02*
X135595000Y-133730000D01*
X111302771Y-126220000D02*
X109800000Y-126220000D01*
X138100000Y-128936396D02*
X138100000Y-132313101D01*
X130006206Y-128993792D02*
X128193792Y-130806207D01*
X133853963Y-127400000D02*
X136563603Y-127400000D01*
X114000000Y-128917228D02*
X114000000Y-130692893D01*
X138100000Y-132313101D02*
G75*
G02*
X137685000Y-133315000I-1416900J1D01*
G01*
X113210000Y-127010000D02*
G75*
G02*
X113999988Y-128917228I-1907200J-1907200D01*
G01*
X137650000Y-127850000D02*
G75*
G02*
X138100002Y-128936396I-1086400J-1086400D01*
G01*
X114500000Y-131900000D02*
G75*
G03*
X115707106Y-132399997I1207100J1207100D01*
G01*
X133853963Y-127400000D02*
G75*
G03*
X130006215Y-128993801I37J-5441600D01*
G01*
X137685000Y-133315000D02*
G75*
G02*
X136683101Y-133730001I-1001900J1001900D01*
G01*
X114000000Y-130692893D02*
G75*
G03*
X114499998Y-131900002I1707100J-7D01*
G01*
X113210000Y-127010000D02*
G75*
G03*
X111302771Y-126220012I-1907200J-1907200D01*
G01*
X137650000Y-127850000D02*
G75*
G03*
X136563603Y-127399998I-1086400J-1086400D01*
G01*
X128193792Y-130806207D02*
G75*
G02*
X124346036Y-132400010I-3847792J3847807D01*
G01*
%TO.N,/10*%
X112400000Y-128800000D02*
X112053553Y-128453553D01*
X113815000Y-133015000D02*
X113817589Y-133017589D01*
X115537500Y-133730000D02*
X116545000Y-133730000D01*
X111700000Y-127600000D02*
X111700000Y-127100000D01*
X113100000Y-131288837D02*
X113100000Y-130489949D01*
X111700000Y-127600000D02*
G75*
G03*
X112053554Y-128453552I1207100J0D01*
G01*
X113100000Y-131288837D02*
G75*
G03*
X113815011Y-133014989I2441200J37D01*
G01*
X112400000Y-128800000D02*
G75*
G02*
X113100021Y-130489949I-1690000J-1690000D01*
G01*
X113817589Y-133017589D02*
G75*
G03*
X115537500Y-133730006I1719911J1719889D01*
G01*
D27*
%TO.N,Net-(U2-5V)*%
X140000000Y-123880868D02*
X140000000Y-143135158D01*
X137149131Y-121030000D02*
X135595000Y-121030000D01*
X140956250Y-145443750D02*
X141912500Y-146400000D01*
X140000000Y-143135158D02*
G75*
G03*
X140956238Y-145443762I3264800J-42D01*
G01*
X139165000Y-121865000D02*
G75*
G02*
X140000013Y-123880868I-2015900J-2015900D01*
G01*
X139165000Y-121865000D02*
G75*
G03*
X137149131Y-121029987I-2015900J-2015900D01*
G01*
%TD*%
%TA.AperFunction,Conductor*%
%TO.N,GND*%
G36*
X172493032Y-123365648D02*
G01*
X172828635Y-123382136D01*
X172840743Y-123383328D01*
X173170099Y-123432184D01*
X173182013Y-123434554D01*
X173505003Y-123515458D01*
X173516630Y-123518985D01*
X173830142Y-123631162D01*
X173841354Y-123635806D01*
X174142360Y-123778172D01*
X174153085Y-123783905D01*
X174436873Y-123954002D01*
X174438659Y-123955072D01*
X174448774Y-123961830D01*
X174700939Y-124148848D01*
X174716214Y-124160177D01*
X174725620Y-124167897D01*
X174869395Y-124298208D01*
X174948856Y-124370227D01*
X174953266Y-124374426D01*
X174977275Y-124398436D01*
X174981470Y-124402842D01*
X175207102Y-124651788D01*
X175214822Y-124661194D01*
X175413167Y-124928631D01*
X175419927Y-124938749D01*
X175451331Y-124991143D01*
X175561761Y-125175386D01*
X175591091Y-125224319D01*
X175596825Y-125235047D01*
X175739184Y-125536039D01*
X175743841Y-125547282D01*
X175856009Y-125860773D01*
X175859541Y-125872418D01*
X175940439Y-126195385D01*
X175942813Y-126207320D01*
X175991666Y-126536663D01*
X175992859Y-126548773D01*
X176008251Y-126862084D01*
X176008400Y-126868168D01*
X176008400Y-126922848D01*
X175988715Y-126989887D01*
X175958712Y-127022114D01*
X175866352Y-127091255D01*
X175780106Y-127206464D01*
X175780102Y-127206471D01*
X175729808Y-127341317D01*
X175723401Y-127400916D01*
X175723400Y-127400935D01*
X175723400Y-128946670D01*
X175723401Y-128946676D01*
X175729808Y-129006283D01*
X175780102Y-129141128D01*
X175780106Y-129141135D01*
X175866352Y-129256344D01*
X175866355Y-129256347D01*
X175981564Y-129342593D01*
X175981571Y-129342597D01*
X176116417Y-129392891D01*
X176116416Y-129392891D01*
X176123344Y-129393635D01*
X176176027Y-129399300D01*
X177171772Y-129399299D01*
X177231383Y-129392891D01*
X177231382Y-129392891D01*
X177239096Y-129392062D01*
X177239387Y-129394771D01*
X177296143Y-129397811D01*
X177342577Y-129427069D01*
X177375163Y-129459655D01*
X177375167Y-129459658D01*
X177477607Y-129528107D01*
X177477613Y-129528110D01*
X177477614Y-129528111D01*
X177591448Y-129575263D01*
X177591458Y-129575265D01*
X177597278Y-129577031D01*
X177596864Y-129578393D01*
X177652442Y-129607453D01*
X177687027Y-129668163D01*
X177690354Y-129696266D01*
X177692993Y-130449939D01*
X177673544Y-130517047D01*
X177620900Y-130562986D01*
X177593200Y-130571987D01*
X177591462Y-130572332D01*
X177591447Y-130572337D01*
X177477616Y-130619487D01*
X177477607Y-130619492D01*
X177375167Y-130687941D01*
X177375162Y-130687945D01*
X177342156Y-130720951D01*
X177280832Y-130754436D01*
X177239197Y-130754070D01*
X177238987Y-130756031D01*
X177171744Y-130748800D01*
X176923900Y-130748800D01*
X176923900Y-133198800D01*
X177171728Y-133198800D01*
X177171744Y-133198799D01*
X177231277Y-133192397D01*
X177231282Y-133192396D01*
X177330898Y-133155241D01*
X177330900Y-133155239D01*
X177330900Y-133147800D01*
X177350585Y-133080761D01*
X177403389Y-133035006D01*
X177454900Y-133023800D01*
X177702010Y-133023800D01*
X177703761Y-133523800D01*
X177373900Y-133523800D01*
X177373900Y-134121644D01*
X177380301Y-134181172D01*
X177380303Y-134181179D01*
X177430545Y-134315886D01*
X177430549Y-134315893D01*
X177516709Y-134430987D01*
X177516712Y-134430990D01*
X177631806Y-134517150D01*
X177639596Y-134521404D01*
X177638280Y-134523813D01*
X177682907Y-134557221D01*
X177707324Y-134622685D01*
X177707639Y-134631097D01*
X177799564Y-160875566D01*
X177780115Y-160942674D01*
X177727471Y-160988613D01*
X177675565Y-161000000D01*
X175655202Y-161000000D01*
X175588163Y-160980315D01*
X175542408Y-160927511D01*
X175532263Y-160859815D01*
X175550500Y-160721288D01*
X175550500Y-160478711D01*
X175542292Y-160416364D01*
X175518838Y-160238211D01*
X175456054Y-160003900D01*
X175363224Y-159779788D01*
X175241936Y-159569711D01*
X175094265Y-159377262D01*
X175094260Y-159377256D01*
X174922743Y-159205739D01*
X174922736Y-159205733D01*
X174730293Y-159058067D01*
X174730292Y-159058066D01*
X174730289Y-159058064D01*
X174520212Y-158936776D01*
X174520205Y-158936773D01*
X174296104Y-158843947D01*
X174061785Y-158781161D01*
X173821289Y-158749500D01*
X173821288Y-158749500D01*
X173578712Y-158749500D01*
X173578711Y-158749500D01*
X173338214Y-158781161D01*
X173103895Y-158843947D01*
X172879794Y-158936773D01*
X172879785Y-158936777D01*
X172669706Y-159058067D01*
X172477263Y-159205733D01*
X172477256Y-159205739D01*
X172305739Y-159377256D01*
X172305733Y-159377263D01*
X172158067Y-159569706D01*
X172036777Y-159779785D01*
X172036773Y-159779794D01*
X171943947Y-160003895D01*
X171881161Y-160238214D01*
X171849500Y-160478711D01*
X171849500Y-160721288D01*
X171867737Y-160859815D01*
X171856971Y-160928850D01*
X171810591Y-160981106D01*
X171744798Y-161000000D01*
X161209751Y-161000000D01*
X161142712Y-160980315D01*
X161125178Y-160960080D01*
X161122103Y-160963156D01*
X160423559Y-160264612D01*
X160444091Y-160259111D01*
X160580908Y-160180119D01*
X160692619Y-160068408D01*
X160771611Y-159931591D01*
X160777112Y-159911060D01*
X161435934Y-160569882D01*
X161536231Y-160416369D01*
X161636087Y-160188717D01*
X161697112Y-159947738D01*
X161697114Y-159947729D01*
X161717641Y-159700005D01*
X161717641Y-159699994D01*
X161697114Y-159452270D01*
X161697112Y-159452261D01*
X161636087Y-159211282D01*
X161536231Y-158983630D01*
X161435934Y-158830116D01*
X160777112Y-159488939D01*
X160771611Y-159468409D01*
X160692619Y-159331592D01*
X160580908Y-159219881D01*
X160444091Y-159140889D01*
X160423560Y-159135387D01*
X161082557Y-158476390D01*
X161082556Y-158476389D01*
X161035729Y-158439943D01*
X160817114Y-158321635D01*
X160817103Y-158321630D01*
X160581993Y-158240916D01*
X160336793Y-158200000D01*
X160088207Y-158200000D01*
X159843006Y-158240916D01*
X159607896Y-158321630D01*
X159607890Y-158321632D01*
X159389261Y-158439949D01*
X159342442Y-158476388D01*
X159342442Y-158476390D01*
X160001440Y-159135387D01*
X159980909Y-159140889D01*
X159844092Y-159219881D01*
X159732381Y-159331592D01*
X159653389Y-159468409D01*
X159647887Y-159488939D01*
X158989064Y-158830116D01*
X158888767Y-158983632D01*
X158788912Y-159211282D01*
X158727887Y-159452261D01*
X158727885Y-159452270D01*
X158707359Y-159699994D01*
X158707359Y-159700005D01*
X158727885Y-159947729D01*
X158727887Y-159947738D01*
X158788912Y-160188717D01*
X158888766Y-160416364D01*
X158989064Y-160569882D01*
X159647887Y-159911059D01*
X159653389Y-159931591D01*
X159732381Y-160068408D01*
X159844092Y-160180119D01*
X159980909Y-160259111D01*
X160001440Y-160264612D01*
X159302896Y-160963156D01*
X159299628Y-160959888D01*
X159273734Y-160985341D01*
X159215248Y-161000000D01*
X142909751Y-161000000D01*
X142842712Y-160980315D01*
X142825178Y-160960080D01*
X142822103Y-160963156D01*
X142123559Y-160264612D01*
X142144091Y-160259111D01*
X142280908Y-160180119D01*
X142392619Y-160068408D01*
X142471611Y-159931591D01*
X142477112Y-159911060D01*
X143135934Y-160569882D01*
X143236231Y-160416369D01*
X143336087Y-160188717D01*
X143397112Y-159947738D01*
X143397114Y-159947729D01*
X143417641Y-159700005D01*
X143417641Y-159699994D01*
X143397114Y-159452270D01*
X143397112Y-159452261D01*
X143336087Y-159211282D01*
X143236231Y-158983630D01*
X143135934Y-158830116D01*
X142477112Y-159488939D01*
X142471611Y-159468409D01*
X142392619Y-159331592D01*
X142280908Y-159219881D01*
X142144091Y-159140889D01*
X142123560Y-159135387D01*
X142782557Y-158476390D01*
X142782556Y-158476389D01*
X142735729Y-158439943D01*
X142517114Y-158321635D01*
X142517103Y-158321630D01*
X142281993Y-158240916D01*
X142036793Y-158200000D01*
X141788207Y-158200000D01*
X141543006Y-158240916D01*
X141307896Y-158321630D01*
X141307890Y-158321632D01*
X141089261Y-158439949D01*
X141042442Y-158476388D01*
X141042442Y-158476390D01*
X141701440Y-159135387D01*
X141680909Y-159140889D01*
X141544092Y-159219881D01*
X141432381Y-159331592D01*
X141353389Y-159468409D01*
X141347887Y-159488939D01*
X140689064Y-158830116D01*
X140588767Y-158983632D01*
X140488912Y-159211282D01*
X140427887Y-159452261D01*
X140427885Y-159452270D01*
X140407359Y-159699994D01*
X140407359Y-159700005D01*
X140427885Y-159947729D01*
X140427887Y-159947738D01*
X140488912Y-160188717D01*
X140588766Y-160416364D01*
X140689064Y-160569882D01*
X141347887Y-159911059D01*
X141353389Y-159931591D01*
X141432381Y-160068408D01*
X141544092Y-160180119D01*
X141680909Y-160259111D01*
X141701440Y-160264612D01*
X141002896Y-160963156D01*
X140999628Y-160959888D01*
X140973734Y-160985341D01*
X140915248Y-161000000D01*
X127355202Y-161000000D01*
X127288163Y-160980315D01*
X127242408Y-160927511D01*
X127232263Y-160859815D01*
X127250500Y-160721288D01*
X127250500Y-160478711D01*
X127242292Y-160416364D01*
X127218838Y-160238211D01*
X127156054Y-160003900D01*
X127063224Y-159779788D01*
X126941936Y-159569711D01*
X126794265Y-159377262D01*
X126794260Y-159377256D01*
X126622743Y-159205739D01*
X126622736Y-159205733D01*
X126430293Y-159058067D01*
X126430292Y-159058066D01*
X126430289Y-159058064D01*
X126220212Y-158936776D01*
X126220205Y-158936773D01*
X125996104Y-158843947D01*
X125761785Y-158781161D01*
X125521289Y-158749500D01*
X125521288Y-158749500D01*
X125278712Y-158749500D01*
X125278711Y-158749500D01*
X125038214Y-158781161D01*
X124803895Y-158843947D01*
X124579794Y-158936773D01*
X124579785Y-158936777D01*
X124369706Y-159058067D01*
X124177263Y-159205733D01*
X124177256Y-159205739D01*
X124005739Y-159377256D01*
X124005733Y-159377263D01*
X123858067Y-159569706D01*
X123736777Y-159779785D01*
X123736773Y-159779794D01*
X123643947Y-160003895D01*
X123581161Y-160238214D01*
X123549500Y-160478711D01*
X123549500Y-160721288D01*
X123567737Y-160859815D01*
X123556971Y-160928850D01*
X123510591Y-160981106D01*
X123444798Y-161000000D01*
X107824500Y-161000000D01*
X107757461Y-160980315D01*
X107711706Y-160927511D01*
X107700500Y-160876000D01*
X107700500Y-150878711D01*
X108749500Y-150878711D01*
X108749500Y-151121288D01*
X108781161Y-151361785D01*
X108843947Y-151596104D01*
X108936773Y-151820205D01*
X108936776Y-151820212D01*
X109058064Y-152030289D01*
X109058066Y-152030292D01*
X109058067Y-152030293D01*
X109205733Y-152222736D01*
X109205739Y-152222743D01*
X109377256Y-152394260D01*
X109377262Y-152394265D01*
X109569711Y-152541936D01*
X109779788Y-152663224D01*
X110003900Y-152756054D01*
X110238211Y-152818838D01*
X110418586Y-152842584D01*
X110478711Y-152850500D01*
X110478712Y-152850500D01*
X110721289Y-152850500D01*
X110769388Y-152844167D01*
X110961789Y-152818838D01*
X111196100Y-152756054D01*
X111420212Y-152663224D01*
X111630289Y-152541936D01*
X111822738Y-152394265D01*
X111994265Y-152222738D01*
X112141936Y-152030289D01*
X112263224Y-151820212D01*
X112356054Y-151596100D01*
X112418838Y-151361789D01*
X112450500Y-151121288D01*
X112450500Y-150878712D01*
X112418838Y-150638211D01*
X112356054Y-150403900D01*
X112263224Y-150179788D01*
X112141936Y-149969711D01*
X111994265Y-149777262D01*
X111994260Y-149777256D01*
X111822743Y-149605739D01*
X111822736Y-149605733D01*
X111630293Y-149458067D01*
X111630292Y-149458066D01*
X111630289Y-149458064D01*
X111420212Y-149336776D01*
X111420205Y-149336773D01*
X111196104Y-149243947D01*
X110961785Y-149181161D01*
X110721289Y-149149500D01*
X110721288Y-149149500D01*
X110478712Y-149149500D01*
X110478711Y-149149500D01*
X110238214Y-149181161D01*
X110003895Y-149243947D01*
X109779794Y-149336773D01*
X109779785Y-149336777D01*
X109569706Y-149458067D01*
X109377263Y-149605733D01*
X109377256Y-149605739D01*
X109205739Y-149777256D01*
X109205733Y-149777263D01*
X109058067Y-149969706D01*
X108936777Y-150179785D01*
X108936773Y-150179794D01*
X108843947Y-150403895D01*
X108781161Y-150638214D01*
X108749500Y-150878711D01*
X107700500Y-150878711D01*
X107700500Y-135778064D01*
X107720185Y-135711025D01*
X107772989Y-135665270D01*
X107842147Y-135655326D01*
X107905703Y-135684351D01*
X107920347Y-135699393D01*
X108053805Y-135862011D01*
X108098675Y-135916685D01*
X108099296Y-135917441D01*
X108151241Y-135969385D01*
X108151242Y-135969386D01*
X108274184Y-136092328D01*
X108307669Y-136153651D01*
X108310079Y-136190247D01*
X108294358Y-136379994D01*
X108294357Y-136380004D01*
X108294357Y-136380005D01*
X108314890Y-136627812D01*
X108314892Y-136627824D01*
X108375936Y-136868881D01*
X108475826Y-137096606D01*
X108611833Y-137304782D01*
X108611836Y-137304785D01*
X108780256Y-137487738D01*
X108780259Y-137487740D01*
X108780262Y-137487743D01*
X108863415Y-137552464D01*
X108904228Y-137609174D01*
X108907903Y-137678947D01*
X108873271Y-137739630D01*
X108863416Y-137748170D01*
X108780597Y-137812630D01*
X108780592Y-137812635D01*
X108612232Y-137995521D01*
X108476267Y-138203632D01*
X108376411Y-138431283D01*
X108315960Y-138670000D01*
X109366988Y-138670000D01*
X109334075Y-138727007D01*
X109300000Y-138854174D01*
X109300000Y-138985826D01*
X109334075Y-139112993D01*
X109366988Y-139170000D01*
X108315960Y-139170000D01*
X108376411Y-139408716D01*
X108476267Y-139636367D01*
X108612232Y-139844478D01*
X108780592Y-140027364D01*
X108780602Y-140027373D01*
X108976762Y-140180051D01*
X108976771Y-140180057D01*
X109195385Y-140298364D01*
X109195396Y-140298369D01*
X109430507Y-140379083D01*
X109549999Y-140399023D01*
X109550000Y-140399022D01*
X109550000Y-139353012D01*
X109607007Y-139385925D01*
X109734174Y-139420000D01*
X109865826Y-139420000D01*
X109992993Y-139385925D01*
X110050000Y-139353012D01*
X110050000Y-140399023D01*
X110169492Y-140379083D01*
X110404603Y-140298369D01*
X110404614Y-140298364D01*
X110623228Y-140180057D01*
X110623237Y-140180051D01*
X110819397Y-140027373D01*
X110819407Y-140027364D01*
X110987767Y-139844478D01*
X111123732Y-139636367D01*
X111223588Y-139408716D01*
X111284040Y-139170000D01*
X110233012Y-139170000D01*
X110265925Y-139112993D01*
X110300000Y-138985826D01*
X110300000Y-138854174D01*
X110265925Y-138727007D01*
X110233012Y-138670000D01*
X111284040Y-138670000D01*
X111223588Y-138431283D01*
X111123732Y-138203632D01*
X110987767Y-137995521D01*
X110819407Y-137812635D01*
X110819397Y-137812626D01*
X110736584Y-137748170D01*
X110695771Y-137691460D01*
X110692096Y-137621687D01*
X110726728Y-137561004D01*
X110736571Y-137552473D01*
X110819744Y-137487738D01*
X110988164Y-137304785D01*
X111124173Y-137096607D01*
X111224063Y-136868881D01*
X111285108Y-136627821D01*
X111285561Y-136622355D01*
X111305643Y-136380005D01*
X111305643Y-136379994D01*
X111285109Y-136132187D01*
X111285107Y-136132175D01*
X111224063Y-135891118D01*
X111184289Y-135800443D01*
X111175386Y-135731143D01*
X111205363Y-135668031D01*
X111264702Y-135631144D01*
X111325436Y-135629742D01*
X111336378Y-135632239D01*
X111631675Y-135665503D01*
X111780254Y-135665500D01*
X111780258Y-135665500D01*
X114778764Y-135665500D01*
X114845803Y-135685185D01*
X114891558Y-135737989D01*
X114902480Y-135797888D01*
X114901500Y-135812341D01*
X114901500Y-136727656D01*
X114901501Y-136727659D01*
X114904418Y-136770701D01*
X114904418Y-136770702D01*
X114950694Y-136956778D01*
X115035881Y-137128543D01*
X115035883Y-137128546D01*
X115156009Y-137277989D01*
X115156010Y-137277990D01*
X115305453Y-137398116D01*
X115367547Y-137428912D01*
X115418859Y-137476333D01*
X115436388Y-137543968D01*
X115414569Y-137610343D01*
X115367547Y-137651088D01*
X115305453Y-137681883D01*
X115156010Y-137802009D01*
X115156009Y-137802010D01*
X115035883Y-137951453D01*
X115035881Y-137951456D01*
X114950694Y-138123221D01*
X114904419Y-138309291D01*
X114901500Y-138352345D01*
X114901500Y-139267656D01*
X114901501Y-139267659D01*
X114904418Y-139310701D01*
X114904418Y-139310702D01*
X114950694Y-139496778D01*
X115035881Y-139668543D01*
X115035883Y-139668546D01*
X115156009Y-139817989D01*
X115156010Y-139817990D01*
X115305453Y-139938116D01*
X115305456Y-139938118D01*
X115419625Y-139994740D01*
X115477225Y-140023307D01*
X115627013Y-140060558D01*
X115663291Y-140069580D01*
X115663292Y-140069580D01*
X115663296Y-140069581D01*
X115706343Y-140072500D01*
X117383656Y-140072499D01*
X117426704Y-140069581D01*
X117429776Y-140068817D01*
X117472315Y-140065790D01*
X117537991Y-140072500D01*
X119362008Y-140072499D01*
X119464797Y-140061999D01*
X119631334Y-140006814D01*
X119780656Y-139914712D01*
X119904712Y-139790656D01*
X119996814Y-139641334D01*
X120051999Y-139474797D01*
X120062500Y-139372009D01*
X120062500Y-138989500D01*
X120082185Y-138922461D01*
X120134989Y-138876706D01*
X120186500Y-138865500D01*
X124271057Y-138865500D01*
X124294668Y-138865500D01*
X124294702Y-138865509D01*
X124346040Y-138865509D01*
X124346040Y-138865510D01*
X124564154Y-138865509D01*
X124999270Y-138834386D01*
X125431056Y-138772302D01*
X125431061Y-138772301D01*
X125857306Y-138679576D01*
X125857309Y-138679575D01*
X125857314Y-138679574D01*
X126275871Y-138556673D01*
X126684593Y-138404226D01*
X127081399Y-138223010D01*
X127464266Y-138013948D01*
X127831244Y-137778106D01*
X128180462Y-137516685D01*
X128510141Y-137231017D01*
X128607811Y-137133344D01*
X128607815Y-137133342D01*
X128618021Y-137123135D01*
X128618023Y-137123135D01*
X131223591Y-134517566D01*
X131273497Y-134489998D01*
X131272682Y-134487668D01*
X131316547Y-134472319D01*
X131449522Y-134425789D01*
X131602262Y-134329816D01*
X131729816Y-134202262D01*
X131825789Y-134049522D01*
X131836458Y-134019032D01*
X131877178Y-133962255D01*
X131942130Y-133936506D01*
X132010692Y-133949961D01*
X132061096Y-133998347D01*
X132077500Y-134059983D01*
X132077500Y-134292001D01*
X132077501Y-134292018D01*
X132088000Y-134394796D01*
X132088001Y-134394799D01*
X132143185Y-134561331D01*
X132143187Y-134561336D01*
X132159970Y-134588546D01*
X132235288Y-134710656D01*
X132359344Y-134834712D01*
X132425132Y-134875290D01*
X132456213Y-134894461D01*
X132502937Y-134946409D01*
X132514160Y-135015372D01*
X132486316Y-135079454D01*
X132456213Y-135105539D01*
X132359342Y-135165289D01*
X132235289Y-135289342D01*
X132143187Y-135438663D01*
X132143185Y-135438668D01*
X132129630Y-135479574D01*
X132088001Y-135605203D01*
X132088001Y-135605204D01*
X132088000Y-135605204D01*
X132077500Y-135707983D01*
X132077500Y-136832001D01*
X132077501Y-136832018D01*
X132088000Y-136934796D01*
X132088001Y-136934799D01*
X132143185Y-137101331D01*
X132143187Y-137101336D01*
X132162932Y-137133348D01*
X132235288Y-137250656D01*
X132359344Y-137374712D01*
X132447217Y-137428912D01*
X132456213Y-137434461D01*
X132502937Y-137486409D01*
X132514160Y-137555372D01*
X132486316Y-137619454D01*
X132456213Y-137645539D01*
X132359342Y-137705289D01*
X132235289Y-137829342D01*
X132143187Y-137978663D01*
X132143185Y-137978668D01*
X132125364Y-138032449D01*
X132088001Y-138145203D01*
X132088001Y-138145204D01*
X132088000Y-138145204D01*
X132077500Y-138247983D01*
X132077500Y-139372001D01*
X132077501Y-139372018D01*
X132088000Y-139474796D01*
X132088001Y-139474799D01*
X132143185Y-139641331D01*
X132143187Y-139641336D01*
X132159970Y-139668546D01*
X132235288Y-139790656D01*
X132359344Y-139914712D01*
X132508666Y-140006814D01*
X132675203Y-140061999D01*
X132777991Y-140072500D01*
X134602008Y-140072499D01*
X134667682Y-140065790D01*
X134710211Y-140068814D01*
X134713290Y-140069580D01*
X134713292Y-140069580D01*
X134713296Y-140069581D01*
X134756343Y-140072500D01*
X136433656Y-140072499D01*
X136476704Y-140069581D01*
X136662775Y-140023307D01*
X136834547Y-139938116D01*
X136983990Y-139817990D01*
X137104116Y-139668547D01*
X137189307Y-139496775D01*
X137200622Y-139451273D01*
X137235901Y-139390968D01*
X137284958Y-139362540D01*
X137447803Y-139313144D01*
X137704899Y-139206654D01*
X137950319Y-139075477D01*
X138181700Y-138920876D01*
X138396813Y-138744342D01*
X138441782Y-138699372D01*
X138441803Y-138699355D01*
X138448861Y-138692297D01*
X138448863Y-138692296D01*
X138516925Y-138624233D01*
X138516926Y-138624233D01*
X138529254Y-138611905D01*
X138529282Y-138611889D01*
X138565585Y-138575585D01*
X138565586Y-138575586D01*
X138672319Y-138468852D01*
X138779647Y-138338070D01*
X138837392Y-138298737D01*
X138907236Y-138296866D01*
X138967005Y-138333053D01*
X138997721Y-138395809D01*
X138999500Y-138416736D01*
X138999500Y-143239299D01*
X138999516Y-143239642D01*
X138999516Y-143321379D01*
X139031974Y-143692422D01*
X139096642Y-144059195D01*
X139096647Y-144059216D01*
X139193039Y-144418975D01*
X139193046Y-144418995D01*
X139320426Y-144768976D01*
X139320434Y-144768995D01*
X139438024Y-145021169D01*
X139477835Y-145106545D01*
X139545053Y-145222971D01*
X139664063Y-145429105D01*
X139877695Y-145734206D01*
X140045731Y-145934463D01*
X140117107Y-146019525D01*
X140173175Y-146075594D01*
X140175993Y-146078412D01*
X140176025Y-146078446D01*
X140373157Y-146275577D01*
X140406642Y-146336900D01*
X140409053Y-146373495D01*
X140406858Y-146399994D01*
X140406857Y-146400002D01*
X140406857Y-146400005D01*
X140427390Y-146647812D01*
X140427392Y-146647824D01*
X140488436Y-146888881D01*
X140588326Y-147116606D01*
X140724333Y-147324782D01*
X140724336Y-147324785D01*
X140892756Y-147507738D01*
X141088991Y-147660474D01*
X141307690Y-147778828D01*
X141542886Y-147859571D01*
X141788165Y-147900500D01*
X142036835Y-147900500D01*
X142282114Y-147859571D01*
X142517310Y-147778828D01*
X142736009Y-147660474D01*
X142932244Y-147507738D01*
X143100664Y-147324785D01*
X143236673Y-147116607D01*
X143336563Y-146888881D01*
X143397608Y-146647821D01*
X143418143Y-146400000D01*
X143412914Y-146336900D01*
X143397609Y-146152187D01*
X143397607Y-146152175D01*
X143336563Y-145911118D01*
X143236673Y-145683393D01*
X143100666Y-145475217D01*
X143058217Y-145429105D01*
X142932244Y-145292262D01*
X142736009Y-145139526D01*
X142736007Y-145139525D01*
X142736006Y-145139524D01*
X142517311Y-145021172D01*
X142517302Y-145021169D01*
X142282116Y-144940429D01*
X142036835Y-144899500D01*
X141878283Y-144899500D01*
X141811244Y-144879815D01*
X141790601Y-144863181D01*
X141666173Y-144738752D01*
X141661404Y-144733708D01*
X141499149Y-144552144D01*
X141490479Y-144541272D01*
X141351602Y-144345543D01*
X141344204Y-144333768D01*
X141228113Y-144123714D01*
X141222080Y-144111186D01*
X141130241Y-143889464D01*
X141125648Y-143876338D01*
X141072663Y-143692416D01*
X141059209Y-143645715D01*
X141056117Y-143632164D01*
X141023537Y-143440398D01*
X141015917Y-143395547D01*
X141014363Y-143381755D01*
X141000694Y-143138321D01*
X141000500Y-143131373D01*
X141000501Y-143042461D01*
X141000500Y-143042455D01*
X141000500Y-132266042D01*
X141020185Y-132199003D01*
X141072989Y-132153248D01*
X141142147Y-132143304D01*
X141205703Y-132172329D01*
X141226074Y-132194918D01*
X141233672Y-132205769D01*
X141263965Y-132249033D01*
X141503289Y-132534247D01*
X141584938Y-132615896D01*
X141584963Y-132615923D01*
X141807207Y-132838167D01*
X141840692Y-132899490D01*
X141839302Y-132957939D01*
X141824336Y-133013795D01*
X141803741Y-133249199D01*
X141803741Y-133249200D01*
X141824336Y-133484603D01*
X141824338Y-133484613D01*
X141885494Y-133712855D01*
X141885496Y-133712859D01*
X141885497Y-133712863D01*
X141957966Y-133868272D01*
X141985365Y-133927030D01*
X141985367Y-133927034D01*
X142080009Y-134062196D01*
X142120905Y-134120601D01*
X142287999Y-134287695D01*
X142362347Y-134339754D01*
X142481565Y-134423232D01*
X142481567Y-134423233D01*
X142481570Y-134423235D01*
X142695737Y-134523103D01*
X142695743Y-134523104D01*
X142695744Y-134523105D01*
X142742220Y-134535558D01*
X142923992Y-134584263D01*
X143112318Y-134600739D01*
X143159399Y-134604859D01*
X143159400Y-134604859D01*
X143159401Y-134604859D01*
X143199039Y-134601391D01*
X143394808Y-134584263D01*
X143450657Y-134569298D01*
X143520506Y-134570961D01*
X143570431Y-134601391D01*
X143678299Y-134709258D01*
X143694996Y-134725955D01*
X143695008Y-134725977D01*
X143731315Y-134762284D01*
X143731315Y-134762285D01*
X143861748Y-134892718D01*
X144144357Y-135129854D01*
X144144362Y-135129858D01*
X144446541Y-135341446D01*
X144446548Y-135341450D01*
X144446559Y-135341458D01*
X144651133Y-135459568D01*
X144766046Y-135525913D01*
X144766061Y-135525921D01*
X145100412Y-135681831D01*
X145359552Y-135776149D01*
X145447080Y-135808006D01*
X145447081Y-135808006D01*
X145447086Y-135808008D01*
X145559036Y-135838004D01*
X145803429Y-135903488D01*
X146166744Y-135967549D01*
X146534260Y-135999701D01*
X146718720Y-135999700D01*
X146793704Y-135999700D01*
X147515281Y-135999700D01*
X147582320Y-136019385D01*
X147602963Y-136036020D01*
X147656610Y-136089668D01*
X147656611Y-136089669D01*
X147656613Y-136089670D01*
X147656615Y-136089672D01*
X147802194Y-136177678D01*
X147964604Y-136228286D01*
X148035184Y-136234700D01*
X148035187Y-136234700D01*
X148698413Y-136234700D01*
X148698416Y-136234700D01*
X148768996Y-136228286D01*
X148931406Y-136177678D01*
X149076985Y-136089672D01*
X149130637Y-136036020D01*
X149191960Y-136002534D01*
X149218319Y-135999700D01*
X150420498Y-135999700D01*
X150487537Y-136019385D01*
X150526615Y-136059551D01*
X150533523Y-136070979D01*
X150533524Y-136070980D01*
X150533526Y-136070982D01*
X150533528Y-136070985D01*
X150653815Y-136191272D01*
X150799394Y-136279278D01*
X150961804Y-136329886D01*
X151032384Y-136336300D01*
X151032387Y-136336300D01*
X151695613Y-136336300D01*
X151695616Y-136336300D01*
X151766196Y-136329886D01*
X151928606Y-136279278D01*
X152074185Y-136191272D01*
X152194472Y-136070985D01*
X152282478Y-135925406D01*
X152333086Y-135762996D01*
X152339500Y-135692416D01*
X152339500Y-135179184D01*
X152333086Y-135108604D01*
X152282478Y-134946194D01*
X152194472Y-134800615D01*
X152194470Y-134800613D01*
X152194469Y-134800611D01*
X152092339Y-134698481D01*
X152058854Y-134637158D01*
X152063838Y-134567466D01*
X152092339Y-134523119D01*
X152194468Y-134420989D01*
X152194469Y-134420988D01*
X152194472Y-134420985D01*
X152282478Y-134275406D01*
X152333086Y-134112996D01*
X152339500Y-134042416D01*
X152339500Y-133529184D01*
X152333086Y-133458604D01*
X152282478Y-133296194D01*
X152194472Y-133150615D01*
X152194470Y-133150613D01*
X152194469Y-133150611D01*
X152068882Y-133025024D01*
X152070491Y-133023414D01*
X152036392Y-132975707D01*
X152029500Y-132934943D01*
X152029500Y-131455279D01*
X152029543Y-131454387D01*
X152029539Y-131448794D01*
X152029541Y-131448789D01*
X152029533Y-131435768D01*
X152049179Y-131368721D01*
X152101957Y-131322935D01*
X152153533Y-131311700D01*
X153100800Y-131311700D01*
X153167839Y-131331385D01*
X153213594Y-131384189D01*
X153224800Y-131435700D01*
X153224800Y-131676901D01*
X153227701Y-131713767D01*
X153227702Y-131713773D01*
X153273554Y-131871593D01*
X153273555Y-131871596D01*
X153273556Y-131871598D01*
X153287074Y-131894456D01*
X153357217Y-132013062D01*
X153357223Y-132013070D01*
X153473429Y-132129276D01*
X153473433Y-132129279D01*
X153473435Y-132129281D01*
X153614902Y-132212944D01*
X153739117Y-132249032D01*
X153758695Y-132254720D01*
X153817580Y-132292326D01*
X153846787Y-132355798D01*
X153848100Y-132373796D01*
X153848100Y-132884143D01*
X153828415Y-132951182D01*
X153808044Y-132973550D01*
X153808718Y-132974224D01*
X153683131Y-133099810D01*
X153683130Y-133099811D01*
X153595122Y-133245393D01*
X153544513Y-133407807D01*
X153538100Y-133478386D01*
X153538100Y-133991613D01*
X153544513Y-134062192D01*
X153544513Y-134062194D01*
X153544514Y-134062196D01*
X153595122Y-134224606D01*
X153670889Y-134349940D01*
X153683130Y-134370188D01*
X153785261Y-134472319D01*
X153818746Y-134533642D01*
X153813762Y-134603334D01*
X153785261Y-134647681D01*
X153683131Y-134749810D01*
X153683130Y-134749811D01*
X153595122Y-134895393D01*
X153544513Y-135057807D01*
X153538100Y-135128386D01*
X153538100Y-135641613D01*
X153544513Y-135712192D01*
X153544513Y-135712194D01*
X153544514Y-135712196D01*
X153595122Y-135874606D01*
X153682644Y-136019385D01*
X153683130Y-136020188D01*
X153803411Y-136140469D01*
X153803413Y-136140470D01*
X153803415Y-136140472D01*
X153948994Y-136228478D01*
X154111404Y-136279086D01*
X154181984Y-136285500D01*
X154181987Y-136285500D01*
X154845213Y-136285500D01*
X154845216Y-136285500D01*
X154915796Y-136279086D01*
X154928140Y-136275239D01*
X154941382Y-136271114D01*
X154978269Y-136265500D01*
X158461264Y-136265500D01*
X158528303Y-136285185D01*
X158566991Y-136324710D01*
X158701160Y-136543653D01*
X158701161Y-136543656D01*
X158712179Y-136556556D01*
X158864776Y-136735224D01*
X159003522Y-136853724D01*
X159056343Y-136898838D01*
X159056346Y-136898839D01*
X159271140Y-137030466D01*
X159430820Y-137096607D01*
X159503889Y-137126873D01*
X159748852Y-137185683D01*
X160000000Y-137205449D01*
X160251148Y-137185683D01*
X160496111Y-137126873D01*
X160728859Y-137030466D01*
X160943659Y-136898836D01*
X161135224Y-136735224D01*
X161298836Y-136543659D01*
X161385041Y-136402985D01*
X161433009Y-136324710D01*
X161484821Y-136277835D01*
X161538736Y-136265500D01*
X163541264Y-136265500D01*
X163608303Y-136285185D01*
X163646991Y-136324710D01*
X163781160Y-136543653D01*
X163781161Y-136543656D01*
X163792179Y-136556556D01*
X163944776Y-136735224D01*
X164083522Y-136853724D01*
X164136343Y-136898838D01*
X164136346Y-136898839D01*
X164351140Y-137030466D01*
X164510820Y-137096607D01*
X164583889Y-137126873D01*
X164828852Y-137185683D01*
X165080000Y-137205449D01*
X165331148Y-137185683D01*
X165576111Y-137126873D01*
X165808859Y-137030466D01*
X166023659Y-136898836D01*
X166191169Y-136755768D01*
X166254930Y-136727198D01*
X166324015Y-136737635D01*
X166376491Y-136783766D01*
X166395700Y-136850059D01*
X166395700Y-137814404D01*
X166395505Y-137821356D01*
X166379010Y-138115097D01*
X166377453Y-138128915D01*
X166328758Y-138415521D01*
X166325664Y-138429079D01*
X166245182Y-138708439D01*
X166240589Y-138721563D01*
X166129341Y-138990143D01*
X166123308Y-139002672D01*
X165982681Y-139257118D01*
X165975283Y-139268892D01*
X165807054Y-139505991D01*
X165798383Y-139516863D01*
X165693508Y-139634217D01*
X165634159Y-139671088D01*
X165572102Y-139672164D01*
X165331151Y-139614317D01*
X165080000Y-139594551D01*
X164828848Y-139614317D01*
X164583889Y-139673126D01*
X164351140Y-139769533D01*
X164136346Y-139901160D01*
X164136343Y-139901161D01*
X163944776Y-140064776D01*
X163781161Y-140256343D01*
X163781160Y-140256346D01*
X163646991Y-140475290D01*
X163595179Y-140522165D01*
X163541264Y-140534500D01*
X161538736Y-140534500D01*
X161471697Y-140514815D01*
X161433009Y-140475290D01*
X161298839Y-140256346D01*
X161298838Y-140256343D01*
X161233678Y-140180051D01*
X161135224Y-140064776D01*
X160959522Y-139914712D01*
X160943656Y-139901161D01*
X160943653Y-139901160D01*
X160728859Y-139769533D01*
X160496110Y-139673126D01*
X160251151Y-139614317D01*
X160000000Y-139594551D01*
X159748848Y-139614317D01*
X159503889Y-139673126D01*
X159271140Y-139769533D01*
X159056346Y-139901160D01*
X159056343Y-139901161D01*
X158864776Y-140064776D01*
X158701161Y-140256343D01*
X158701160Y-140256346D01*
X158569533Y-140471140D01*
X158473126Y-140703889D01*
X158414317Y-140948848D01*
X158394551Y-141200000D01*
X158414317Y-141451151D01*
X158473126Y-141696110D01*
X158569533Y-141928859D01*
X158701160Y-142143653D01*
X158701161Y-142143656D01*
X158701164Y-142143659D01*
X158864776Y-142335224D01*
X159056341Y-142498836D01*
X159152789Y-142557939D01*
X159199665Y-142609751D01*
X159212000Y-142663667D01*
X159212000Y-145222971D01*
X159192315Y-145290010D01*
X159179230Y-145306953D01*
X159024336Y-145475214D01*
X158888326Y-145683393D01*
X158788436Y-145911118D01*
X158727392Y-146152175D01*
X158727390Y-146152187D01*
X158706857Y-146399994D01*
X158706857Y-146400005D01*
X158727390Y-146647812D01*
X158727392Y-146647824D01*
X158788436Y-146888881D01*
X158888326Y-147116606D01*
X159024333Y-147324782D01*
X159024336Y-147324785D01*
X159192756Y-147507738D01*
X159388991Y-147660474D01*
X159607690Y-147778828D01*
X159842886Y-147859571D01*
X160088165Y-147900500D01*
X160336835Y-147900500D01*
X160582114Y-147859571D01*
X160817310Y-147778828D01*
X161036009Y-147660474D01*
X161232244Y-147507738D01*
X161400664Y-147324785D01*
X161536673Y-147116607D01*
X161636563Y-146888881D01*
X161697608Y-146647821D01*
X161718143Y-146400000D01*
X161712914Y-146336900D01*
X161697609Y-146152187D01*
X161697608Y-146152183D01*
X161697608Y-146152179D01*
X161697605Y-146152166D01*
X161683611Y-146096904D01*
X161686235Y-146027084D01*
X161716133Y-145978784D01*
X164862951Y-142831967D01*
X164924272Y-142798484D01*
X164960357Y-142796032D01*
X165080000Y-142805449D01*
X165331148Y-142785683D01*
X165576111Y-142726873D01*
X165808859Y-142630466D01*
X166023659Y-142498836D01*
X166215224Y-142335224D01*
X166378836Y-142143659D01*
X166510466Y-141928859D01*
X166606873Y-141696111D01*
X166665683Y-141451148D01*
X166685449Y-141200000D01*
X166665683Y-140948852D01*
X166606873Y-140703889D01*
X166606872Y-140703888D01*
X166605739Y-140699166D01*
X166609230Y-140629384D01*
X166638630Y-140582540D01*
X166666148Y-140555023D01*
X166893339Y-140284267D01*
X167096067Y-139994740D01*
X167272790Y-139688646D01*
X167422162Y-139368314D01*
X167543047Y-139036182D01*
X167634524Y-138694779D01*
X167695898Y-138346701D01*
X167726701Y-137994599D01*
X167726700Y-137817876D01*
X167726700Y-137742892D01*
X167726700Y-132746644D01*
X175723900Y-132746644D01*
X175730301Y-132806172D01*
X175730303Y-132806179D01*
X175780545Y-132940886D01*
X175780549Y-132940893D01*
X175866709Y-133055987D01*
X175866712Y-133055990D01*
X175981806Y-133142150D01*
X175981813Y-133142154D01*
X176116520Y-133192396D01*
X176116527Y-133192398D01*
X176176055Y-133198799D01*
X176176072Y-133198800D01*
X176423900Y-133198800D01*
X176423900Y-132223800D01*
X175723900Y-132223800D01*
X175723900Y-132746644D01*
X167726700Y-132746644D01*
X167726700Y-131200955D01*
X175723900Y-131200955D01*
X175723900Y-131723800D01*
X176423900Y-131723800D01*
X176423900Y-130748800D01*
X176176055Y-130748800D01*
X176116527Y-130755201D01*
X176116520Y-130755203D01*
X175981813Y-130805445D01*
X175981806Y-130805449D01*
X175866712Y-130891609D01*
X175866709Y-130891612D01*
X175780549Y-131006706D01*
X175780545Y-131006713D01*
X175730303Y-131141420D01*
X175730301Y-131141427D01*
X175723900Y-131200955D01*
X167726700Y-131200955D01*
X167726700Y-129539754D01*
X167726701Y-129539750D01*
X167726700Y-129516139D01*
X167726710Y-129516104D01*
X167726710Y-129464766D01*
X167726711Y-129464766D01*
X167726710Y-129292739D01*
X167726252Y-129287508D01*
X167713445Y-129141131D01*
X167696721Y-128949994D01*
X167636974Y-128611168D01*
X167547925Y-128278837D01*
X167430250Y-127955533D01*
X167284845Y-127643714D01*
X167271084Y-127619880D01*
X167112820Y-127345760D01*
X167112819Y-127345759D01*
X167112817Y-127345755D01*
X166915475Y-127063923D01*
X166915474Y-127063922D01*
X166915470Y-127063916D01*
X166694318Y-126800358D01*
X166643144Y-126749185D01*
X166643143Y-126749183D01*
X166572681Y-126678721D01*
X166515060Y-126621101D01*
X166514902Y-126620959D01*
X166451032Y-126557089D01*
X166441121Y-126548773D01*
X166359264Y-126480086D01*
X166187476Y-126335938D01*
X165905645Y-126138596D01*
X165905640Y-126138593D01*
X165905639Y-126138592D01*
X165772220Y-126061562D01*
X165724006Y-126010996D01*
X165710784Y-125942388D01*
X165736752Y-125877524D01*
X165786771Y-125839614D01*
X165808859Y-125830466D01*
X166023659Y-125698836D01*
X166215224Y-125535224D01*
X166378836Y-125343659D01*
X166510466Y-125128859D01*
X166606873Y-124896111D01*
X166665683Y-124651148D01*
X166685449Y-124400000D01*
X166665683Y-124148852D01*
X166606873Y-123903889D01*
X166592912Y-123870184D01*
X166510466Y-123671140D01*
X166438860Y-123554290D01*
X166420615Y-123486844D01*
X166441731Y-123420242D01*
X166495503Y-123375628D01*
X166544587Y-123365500D01*
X172415016Y-123365500D01*
X172486949Y-123365500D01*
X172493032Y-123365648D01*
G37*
%TD.AperFunction*%
%TA.AperFunction,Conductor*%
G36*
X154237533Y-125839161D02*
G01*
X154273186Y-125899249D01*
X154276438Y-125930774D01*
X154277000Y-125930774D01*
X154277000Y-126446813D01*
X154283413Y-126517392D01*
X154283413Y-126517394D01*
X154283414Y-126517396D01*
X154334022Y-126679806D01*
X154419899Y-126821864D01*
X154422030Y-126825388D01*
X154542311Y-126945669D01*
X154542313Y-126945670D01*
X154542315Y-126945672D01*
X154687894Y-127033678D01*
X154850304Y-127084286D01*
X154920884Y-127090700D01*
X154920887Y-127090700D01*
X155584113Y-127090700D01*
X155584116Y-127090700D01*
X155654696Y-127084286D01*
X155817106Y-127033678D01*
X155962685Y-126945672D01*
X156016337Y-126892020D01*
X156077660Y-126858534D01*
X156104019Y-126855700D01*
X163783140Y-126855700D01*
X163790093Y-126855894D01*
X164071802Y-126871718D01*
X164085602Y-126873273D01*
X164360339Y-126919954D01*
X164373868Y-126923041D01*
X164641662Y-127000193D01*
X164654770Y-127004780D01*
X164909065Y-127110114D01*
X164912218Y-127111420D01*
X164924746Y-127117453D01*
X165168634Y-127252246D01*
X165180408Y-127259644D01*
X165407674Y-127420898D01*
X165418546Y-127429569D01*
X165626398Y-127615318D01*
X165636217Y-127625136D01*
X165821851Y-127832860D01*
X165830506Y-127843713D01*
X165991767Y-128070989D01*
X165999160Y-128082755D01*
X166059728Y-128192343D01*
X166109214Y-128281881D01*
X166133954Y-128326643D01*
X166139986Y-128339169D01*
X166180599Y-128437215D01*
X166246626Y-128596617D01*
X166251218Y-128609741D01*
X166328364Y-128877513D01*
X166331459Y-128891071D01*
X166378136Y-129165787D01*
X166379693Y-129179604D01*
X166395505Y-129461110D01*
X166395700Y-129468064D01*
X166395700Y-134349940D01*
X166376015Y-134416979D01*
X166323211Y-134462734D01*
X166254053Y-134472678D01*
X166191169Y-134444230D01*
X166023662Y-134301166D01*
X166023653Y-134301160D01*
X165808859Y-134169533D01*
X165576110Y-134073126D01*
X165331151Y-134014317D01*
X165080000Y-133994551D01*
X164828848Y-134014317D01*
X164583889Y-134073126D01*
X164351140Y-134169533D01*
X164136346Y-134301160D01*
X164136343Y-134301161D01*
X163944776Y-134464776D01*
X163781161Y-134656343D01*
X163781160Y-134656346D01*
X163646991Y-134875290D01*
X163595179Y-134922165D01*
X163541264Y-134934500D01*
X161538736Y-134934500D01*
X161471697Y-134914815D01*
X161433009Y-134875290D01*
X161298839Y-134656346D01*
X161298838Y-134656343D01*
X161240934Y-134588547D01*
X161135224Y-134464776D01*
X160988842Y-134339754D01*
X160943656Y-134301161D01*
X160943653Y-134301160D01*
X160728859Y-134169533D01*
X160496110Y-134073126D01*
X160251151Y-134014317D01*
X160000000Y-133994551D01*
X159748848Y-134014317D01*
X159503889Y-134073126D01*
X159271140Y-134169533D01*
X159056346Y-134301160D01*
X159056343Y-134301161D01*
X158864776Y-134464776D01*
X158701161Y-134656343D01*
X158701160Y-134656346D01*
X158566991Y-134875290D01*
X158515179Y-134922165D01*
X158461264Y-134934500D01*
X155525654Y-134934500D01*
X155458615Y-134914815D01*
X155419538Y-134874652D01*
X155344072Y-134749815D01*
X155344070Y-134749813D01*
X155344069Y-134749811D01*
X155241939Y-134647681D01*
X155208454Y-134586358D01*
X155213438Y-134516666D01*
X155241939Y-134472319D01*
X155344068Y-134370189D01*
X155344069Y-134370188D01*
X155344072Y-134370185D01*
X155432078Y-134224606D01*
X155482686Y-134062196D01*
X155489100Y-133991616D01*
X155489100Y-133478384D01*
X155482686Y-133407804D01*
X155432078Y-133245394D01*
X155344072Y-133099815D01*
X155344070Y-133099813D01*
X155344069Y-133099811D01*
X155218482Y-132974224D01*
X155220091Y-132972614D01*
X155185992Y-132924907D01*
X155179100Y-132884143D01*
X155179100Y-132344278D01*
X155198785Y-132277239D01*
X155251589Y-132231484D01*
X155268498Y-132225204D01*
X155310698Y-132212944D01*
X155452165Y-132129281D01*
X155568381Y-132013065D01*
X155652044Y-131871598D01*
X155688041Y-131747698D01*
X155697897Y-131713773D01*
X155697898Y-131713767D01*
X155700800Y-131676894D01*
X155700800Y-131245506D01*
X155697898Y-131208631D01*
X155689051Y-131178181D01*
X155652045Y-131050806D01*
X155652044Y-131050803D01*
X155652044Y-131050802D01*
X155568381Y-130909335D01*
X155568379Y-130909333D01*
X155568376Y-130909329D01*
X155452170Y-130793123D01*
X155452162Y-130793117D01*
X155310696Y-130709455D01*
X155310693Y-130709454D01*
X155152873Y-130663602D01*
X155152867Y-130663601D01*
X155116001Y-130660700D01*
X155115994Y-130660700D01*
X153949800Y-130660700D01*
X153882761Y-130641015D01*
X153837006Y-130588211D01*
X153825800Y-130536700D01*
X153825800Y-130485200D01*
X153845485Y-130418161D01*
X153898289Y-130372406D01*
X153949800Y-130361200D01*
X154212800Y-130361200D01*
X154712800Y-130361200D01*
X155115934Y-130361200D01*
X155115949Y-130361199D01*
X155152789Y-130358300D01*
X155152795Y-130358299D01*
X155310493Y-130312483D01*
X155310496Y-130312482D01*
X155451852Y-130228885D01*
X155451861Y-130228878D01*
X155567978Y-130112761D01*
X155567985Y-130112752D01*
X155651581Y-129971398D01*
X155697400Y-129813686D01*
X155697595Y-129811201D01*
X155697595Y-129811200D01*
X154712800Y-129811200D01*
X154712800Y-130361200D01*
X154212800Y-130361200D01*
X154212800Y-129811200D01*
X153557115Y-129811200D01*
X153493994Y-129793932D01*
X153435696Y-129759455D01*
X153435693Y-129759454D01*
X153277873Y-129713602D01*
X153277867Y-129713601D01*
X153241001Y-129710700D01*
X153240994Y-129710700D01*
X151934606Y-129710700D01*
X151934598Y-129710700D01*
X151897732Y-129713601D01*
X151897726Y-129713602D01*
X151739906Y-129759454D01*
X151739903Y-129759455D01*
X151683466Y-129792832D01*
X151620345Y-129810100D01*
X150671900Y-129810100D01*
X150671900Y-130360100D01*
X150679271Y-130367471D01*
X150721207Y-130379785D01*
X150766962Y-130432589D01*
X150776906Y-130501747D01*
X150772098Y-130522418D01*
X150755358Y-130573927D01*
X150715918Y-130631599D01*
X150651558Y-130658793D01*
X150637431Y-130659600D01*
X149908900Y-130659600D01*
X149841861Y-130639915D01*
X149796106Y-130587111D01*
X149784900Y-130535600D01*
X149784900Y-130484100D01*
X149804585Y-130417061D01*
X149857389Y-130371306D01*
X149908900Y-130360100D01*
X150171900Y-130360100D01*
X150171900Y-129810100D01*
X149516215Y-129810100D01*
X149453094Y-129792832D01*
X149396656Y-129759455D01*
X149394798Y-129758356D01*
X149394797Y-129758355D01*
X149394796Y-129758355D01*
X149394793Y-129758354D01*
X149236973Y-129712502D01*
X149236967Y-129712501D01*
X149200101Y-129709600D01*
X149200094Y-129709600D01*
X149061431Y-129709600D01*
X148994392Y-129689915D01*
X148948637Y-129637111D01*
X148940540Y-129613192D01*
X148931273Y-129572591D01*
X148931269Y-129572579D01*
X148884597Y-129439200D01*
X148839808Y-129311198D01*
X153228004Y-129311198D01*
X153228005Y-129311200D01*
X154212800Y-129311200D01*
X154712800Y-129311200D01*
X155697595Y-129311200D01*
X155697595Y-129311198D01*
X155697400Y-129308713D01*
X155651581Y-129151001D01*
X155567985Y-129009647D01*
X155567978Y-129009638D01*
X155451861Y-128893521D01*
X155451852Y-128893514D01*
X155310496Y-128809917D01*
X155310493Y-128809916D01*
X155152795Y-128764100D01*
X155152789Y-128764099D01*
X155115949Y-128761200D01*
X154712800Y-128761200D01*
X154712800Y-129311200D01*
X154212800Y-129311200D01*
X154212800Y-128761200D01*
X153809650Y-128761200D01*
X153772810Y-128764099D01*
X153772804Y-128764100D01*
X153615106Y-128809916D01*
X153615103Y-128809917D01*
X153473747Y-128893514D01*
X153473738Y-128893521D01*
X153357621Y-129009638D01*
X153357614Y-129009647D01*
X153274018Y-129151001D01*
X153228199Y-129308713D01*
X153228004Y-129311198D01*
X148839808Y-129311198D01*
X148839423Y-129310098D01*
X149187104Y-129310098D01*
X149187105Y-129310100D01*
X150171900Y-129310100D01*
X150671900Y-129310100D01*
X151656695Y-129310100D01*
X151656695Y-129310098D01*
X151656500Y-129307613D01*
X151610681Y-129149901D01*
X151527085Y-129008547D01*
X151527078Y-129008538D01*
X151410961Y-128892421D01*
X151410952Y-128892414D01*
X151269596Y-128808817D01*
X151269593Y-128808816D01*
X151111895Y-128763000D01*
X151111889Y-128762999D01*
X151075049Y-128760100D01*
X150671900Y-128760100D01*
X150671900Y-129310100D01*
X150171900Y-129310100D01*
X150171900Y-128760100D01*
X149768750Y-128760100D01*
X149731910Y-128762999D01*
X149731904Y-128763000D01*
X149574206Y-128808816D01*
X149574203Y-128808817D01*
X149432847Y-128892414D01*
X149432838Y-128892421D01*
X149316721Y-129008538D01*
X149316714Y-129008547D01*
X149233118Y-129149901D01*
X149187299Y-129307613D01*
X149187104Y-129310098D01*
X148839423Y-129310098D01*
X148831518Y-129287508D01*
X148831515Y-129287503D01*
X148831513Y-129287496D01*
X148700475Y-129015391D01*
X148693260Y-129003909D01*
X148539781Y-128759648D01*
X148539779Y-128759645D01*
X148539776Y-128759641D01*
X148351474Y-128523515D01*
X148303269Y-128475310D01*
X148303265Y-128475303D01*
X148215965Y-128388006D01*
X148215963Y-128388004D01*
X148131590Y-128303630D01*
X148131423Y-128303478D01*
X148081128Y-128253182D01*
X147860629Y-128072223D01*
X147860628Y-128072222D01*
X147860624Y-128072219D01*
X147623451Y-127913744D01*
X147481826Y-127838043D01*
X147371886Y-127779278D01*
X147371880Y-127779276D01*
X147108350Y-127670117D01*
X146835395Y-127587314D01*
X146555633Y-127531664D01*
X146555638Y-127531664D01*
X146388710Y-127515222D01*
X146271754Y-127503702D01*
X146271752Y-127503701D01*
X146271757Y-127503701D01*
X146194674Y-127503700D01*
X146194673Y-127503700D01*
X146129131Y-127503700D01*
X146054147Y-127503699D01*
X146054146Y-127503699D01*
X146046552Y-127503699D01*
X146046536Y-127503700D01*
X145993822Y-127503700D01*
X145926783Y-127484015D01*
X145881028Y-127431211D01*
X145871084Y-127362053D01*
X145900109Y-127298497D01*
X145931822Y-127272313D01*
X145937712Y-127268912D01*
X145942967Y-127265878D01*
X146123103Y-127127656D01*
X146160103Y-127090656D01*
X146197638Y-127053121D01*
X146209817Y-127042440D01*
X146273502Y-126993573D01*
X146301530Y-126977391D01*
X146368107Y-126949814D01*
X146399375Y-126941437D01*
X146478953Y-126930961D01*
X146495137Y-126929900D01*
X146561984Y-126929900D01*
X147029158Y-126929900D01*
X147093306Y-126947782D01*
X147235394Y-127033678D01*
X147397804Y-127084286D01*
X147468384Y-127090700D01*
X147468387Y-127090700D01*
X148131613Y-127090700D01*
X148131616Y-127090700D01*
X148202196Y-127084286D01*
X148364606Y-127033678D01*
X148506693Y-126947782D01*
X148570842Y-126929900D01*
X149883748Y-126929900D01*
X149946869Y-126947168D01*
X149980769Y-126967216D01*
X150063502Y-127016144D01*
X150084051Y-127022114D01*
X150221326Y-127061997D01*
X150221329Y-127061997D01*
X150221331Y-127061998D01*
X150258206Y-127064900D01*
X150258214Y-127064900D01*
X151564586Y-127064900D01*
X151564594Y-127064900D01*
X151601469Y-127061998D01*
X151601471Y-127061997D01*
X151601473Y-127061997D01*
X151696557Y-127034372D01*
X151759298Y-127016144D01*
X151900765Y-126932481D01*
X152016981Y-126816265D01*
X152100644Y-126674798D01*
X152146498Y-126516969D01*
X152149400Y-126480094D01*
X152149400Y-126238900D01*
X152169085Y-126171861D01*
X152221889Y-126126106D01*
X152273400Y-126114900D01*
X153439586Y-126114900D01*
X153439594Y-126114900D01*
X153476469Y-126111998D01*
X153476471Y-126111997D01*
X153476473Y-126111997D01*
X153518799Y-126099700D01*
X153634298Y-126066144D01*
X153775765Y-125982481D01*
X153828554Y-125929690D01*
X153884141Y-125897596D01*
X153949004Y-125880217D01*
X154105584Y-125815356D01*
X154175053Y-125807887D01*
X154237533Y-125839161D01*
G37*
%TD.AperFunction*%
%TA.AperFunction,Conductor*%
G36*
X146133174Y-128834965D02*
G01*
X146326218Y-128847620D01*
X146342293Y-128849736D01*
X146528057Y-128886688D01*
X146543718Y-128890885D01*
X146717831Y-128949990D01*
X146723066Y-128951767D01*
X146738049Y-128957973D01*
X146907925Y-129041748D01*
X146921951Y-129049846D01*
X147079443Y-129155079D01*
X147092303Y-129164947D01*
X147135018Y-129202407D01*
X147237872Y-129292608D01*
X147243793Y-129298153D01*
X147272702Y-129327061D01*
X147272705Y-129327064D01*
X147300656Y-129355016D01*
X147306201Y-129360937D01*
X147415292Y-129485331D01*
X147425167Y-129498200D01*
X147514834Y-129632398D01*
X147522943Y-129646444D01*
X147559660Y-129720899D01*
X147571656Y-129789732D01*
X147544535Y-129854122D01*
X147536129Y-129863424D01*
X147441323Y-129958229D01*
X147441317Y-129958237D01*
X147357655Y-130099703D01*
X147357654Y-130099706D01*
X147311802Y-130257526D01*
X147311801Y-130257532D01*
X147308900Y-130294398D01*
X147308900Y-130725801D01*
X147311801Y-130762667D01*
X147311802Y-130762673D01*
X147357654Y-130920493D01*
X147357655Y-130920496D01*
X147441317Y-131061962D01*
X147441323Y-131061970D01*
X147557529Y-131178176D01*
X147557540Y-131178185D01*
X147640420Y-131227199D01*
X147688104Y-131278267D01*
X147701300Y-131333931D01*
X147701300Y-132833343D01*
X147681615Y-132900382D01*
X147661244Y-132922750D01*
X147661918Y-132923424D01*
X147536331Y-133049010D01*
X147536330Y-133049011D01*
X147448322Y-133194593D01*
X147397713Y-133357007D01*
X147391300Y-133427586D01*
X147391300Y-133940813D01*
X147397713Y-134011392D01*
X147397713Y-134011394D01*
X147397714Y-134011396D01*
X147448322Y-134173806D01*
X147536223Y-134319212D01*
X147536330Y-134319388D01*
X147638461Y-134421519D01*
X147671946Y-134482842D01*
X147666962Y-134552534D01*
X147638462Y-134596880D01*
X147602963Y-134632380D01*
X147541641Y-134665866D01*
X147515281Y-134668700D01*
X146721765Y-134668700D01*
X146715681Y-134668551D01*
X146441151Y-134655065D01*
X146429041Y-134653872D01*
X146160183Y-134613991D01*
X146148248Y-134611617D01*
X145884595Y-134545577D01*
X145872950Y-134542045D01*
X145617032Y-134450477D01*
X145605789Y-134445820D01*
X145360081Y-134329609D01*
X145349350Y-134323873D01*
X145122087Y-134187658D01*
X145116219Y-134184141D01*
X145106102Y-134177381D01*
X144887782Y-134015464D01*
X144878376Y-134007744D01*
X144789321Y-133927030D01*
X144674851Y-133823280D01*
X144670451Y-133819091D01*
X144619459Y-133768100D01*
X144619458Y-133768099D01*
X144511591Y-133660231D01*
X144478107Y-133598908D01*
X144479497Y-133540458D01*
X144494463Y-133484608D01*
X144515059Y-133249200D01*
X144494463Y-133013792D01*
X144433303Y-132785537D01*
X144333435Y-132571371D01*
X144312429Y-132541370D01*
X144197894Y-132377797D01*
X144030802Y-132210706D01*
X144030796Y-132210701D01*
X143845242Y-132080775D01*
X143801617Y-132026198D01*
X143794423Y-131956700D01*
X143825946Y-131894345D01*
X143845242Y-131877625D01*
X143971981Y-131788881D01*
X144030801Y-131747695D01*
X144197895Y-131580601D01*
X144333435Y-131387030D01*
X144433303Y-131172863D01*
X144494463Y-130944608D01*
X144515059Y-130709200D01*
X144494463Y-130473792D01*
X144446395Y-130294398D01*
X144433305Y-130245544D01*
X144433304Y-130245543D01*
X144433303Y-130245537D01*
X144333435Y-130031371D01*
X144329352Y-130025539D01*
X144197894Y-129837797D01*
X144030802Y-129670706D01*
X144030796Y-129670701D01*
X143845242Y-129540775D01*
X143801617Y-129486198D01*
X143794423Y-129416700D01*
X143825946Y-129354345D01*
X143845242Y-129337625D01*
X143882981Y-129311200D01*
X144030801Y-129207695D01*
X144197895Y-129040601D01*
X144283565Y-128918252D01*
X144305044Y-128887577D01*
X144359621Y-128843952D01*
X144406619Y-128834700D01*
X146125064Y-128834700D01*
X146133174Y-128834965D01*
G37*
%TD.AperFunction*%
%TA.AperFunction,Conductor*%
G36*
X149237503Y-131891269D02*
G01*
X149263031Y-131921860D01*
X149269222Y-131932328D01*
X149316317Y-132011962D01*
X149316323Y-132011970D01*
X149432529Y-132128176D01*
X149432533Y-132128179D01*
X149432535Y-132128181D01*
X149574002Y-132211844D01*
X149596093Y-132218262D01*
X149731826Y-132257697D01*
X149731829Y-132257697D01*
X149731831Y-132257698D01*
X149768706Y-132260600D01*
X150574500Y-132260600D01*
X150641539Y-132280285D01*
X150687294Y-132333089D01*
X150698500Y-132384600D01*
X150698500Y-132934943D01*
X150678815Y-133001982D01*
X150658444Y-133024350D01*
X150659118Y-133025024D01*
X150533531Y-133150610D01*
X150533530Y-133150611D01*
X150445522Y-133296193D01*
X150394913Y-133458607D01*
X150389782Y-133515075D01*
X150388500Y-133529184D01*
X150388500Y-134042416D01*
X150389146Y-134049522D01*
X150394913Y-134112992D01*
X150394913Y-134112994D01*
X150394914Y-134112996D01*
X150445522Y-134275406D01*
X150476715Y-134327006D01*
X150533530Y-134420988D01*
X150569561Y-134457019D01*
X150603046Y-134518342D01*
X150598062Y-134588034D01*
X150556190Y-134643967D01*
X150490726Y-134668384D01*
X150481880Y-134668700D01*
X149218319Y-134668700D01*
X149151280Y-134649015D01*
X149130638Y-134632381D01*
X149095138Y-134596881D01*
X149061653Y-134535558D01*
X149066637Y-134465866D01*
X149095136Y-134421520D01*
X149197272Y-134319385D01*
X149285278Y-134173806D01*
X149335886Y-134011396D01*
X149342300Y-133940816D01*
X149342300Y-133427584D01*
X149335886Y-133357004D01*
X149285278Y-133194594D01*
X149197272Y-133049015D01*
X149197270Y-133049013D01*
X149197269Y-133049011D01*
X149071682Y-132923424D01*
X149073291Y-132921814D01*
X149039192Y-132874107D01*
X149032300Y-132833343D01*
X149032300Y-131984982D01*
X149051985Y-131917943D01*
X149104789Y-131872188D01*
X149173947Y-131862244D01*
X149237503Y-131891269D01*
G37*
%TD.AperFunction*%
%TA.AperFunction,Conductor*%
G36*
X111340160Y-131876825D02*
G01*
X111362378Y-131894456D01*
X111397738Y-131929816D01*
X111477316Y-131979818D01*
X111549104Y-132024926D01*
X111550478Y-132025789D01*
X111627694Y-132052808D01*
X111720745Y-132085368D01*
X111720750Y-132085369D01*
X111899996Y-132105565D01*
X111900000Y-132105565D01*
X111900004Y-132105565D01*
X112079249Y-132085369D01*
X112079252Y-132085368D01*
X112079255Y-132085368D01*
X112249522Y-132025789D01*
X112250896Y-132024926D01*
X112271528Y-132011962D01*
X112337844Y-131970292D01*
X112405078Y-131951292D01*
X112471914Y-131971659D01*
X112517128Y-132024926D01*
X112522925Y-132041746D01*
X112523079Y-132041700D01*
X112611474Y-132333089D01*
X112612572Y-132336708D01*
X112627935Y-132373796D01*
X112729381Y-132618706D01*
X112729383Y-132618712D01*
X112818555Y-132785537D01*
X112871261Y-132884143D01*
X112873273Y-132887906D01*
X112873279Y-132887916D01*
X113042852Y-133141698D01*
X113042863Y-133141712D01*
X113236496Y-133377654D01*
X113236506Y-133377665D01*
X113286913Y-133428071D01*
X113286917Y-133428076D01*
X113293731Y-133434890D01*
X113293740Y-133434900D01*
X113298071Y-133439231D01*
X113298072Y-133439232D01*
X113322865Y-133464025D01*
X113326970Y-133468130D01*
X113326976Y-133468140D01*
X113326978Y-133468139D01*
X113402480Y-133543639D01*
X113402552Y-133543703D01*
X113454622Y-133595774D01*
X113689904Y-133788867D01*
X113689908Y-133788869D01*
X113689912Y-133788873D01*
X113859406Y-133902126D01*
X113942980Y-133957969D01*
X114185922Y-134087826D01*
X114210834Y-134101142D01*
X114260678Y-134150105D01*
X114276138Y-134218243D01*
X114252306Y-134283922D01*
X114196748Y-134326291D01*
X114152380Y-134334500D01*
X111862013Y-134334500D01*
X111861976Y-134334498D01*
X111855212Y-134334498D01*
X111848902Y-134334498D01*
X111784291Y-134334499D01*
X111776182Y-134334234D01*
X111616723Y-134323787D01*
X111600642Y-134321670D01*
X111556773Y-134312945D01*
X111447904Y-134291292D01*
X111432238Y-134287094D01*
X111358755Y-134262152D01*
X111301599Y-134221965D01*
X111275244Y-134157256D01*
X111278405Y-134114289D01*
X111285108Y-134087821D01*
X111286326Y-134073126D01*
X111305643Y-133840005D01*
X111305643Y-133839994D01*
X111285109Y-133592187D01*
X111285107Y-133592175D01*
X111224063Y-133351118D01*
X111124173Y-133123393D01*
X110988166Y-132915217D01*
X110963435Y-132888352D01*
X110819744Y-132732262D01*
X110736991Y-132667852D01*
X110696179Y-132611143D01*
X110692504Y-132541370D01*
X110727136Y-132480687D01*
X110736985Y-132472151D01*
X110819744Y-132407738D01*
X110988164Y-132224785D01*
X110995244Y-132213949D01*
X111034901Y-132153248D01*
X111124173Y-132016607D01*
X111125725Y-132013070D01*
X111161141Y-131932328D01*
X111206096Y-131878842D01*
X111272832Y-131858151D01*
X111340160Y-131876825D01*
G37*
%TD.AperFunction*%
%TA.AperFunction,Conductor*%
G36*
X127693234Y-132152965D02*
G01*
X127738989Y-132205769D01*
X127748933Y-132274928D01*
X127719908Y-132338484D01*
X127713876Y-132344962D01*
X127124937Y-132933901D01*
X127121427Y-132937276D01*
X126851410Y-133186877D01*
X126844007Y-133193200D01*
X126557152Y-133419338D01*
X126549275Y-133425061D01*
X126245559Y-133627998D01*
X126237266Y-133633079D01*
X125959090Y-133788867D01*
X125918574Y-133811557D01*
X125909899Y-133815977D01*
X125578173Y-133968905D01*
X125569178Y-133972630D01*
X125226475Y-134099062D01*
X125217215Y-134102071D01*
X124865670Y-134201218D01*
X124856202Y-134203491D01*
X124497947Y-134274753D01*
X124488332Y-134276276D01*
X124125595Y-134319212D01*
X124115888Y-134319976D01*
X123748729Y-134334404D01*
X123743860Y-134334500D01*
X120216236Y-134334500D01*
X120149197Y-134314815D01*
X120103442Y-134262011D01*
X120092520Y-134202112D01*
X120092684Y-134199688D01*
X120093500Y-134187657D01*
X120093499Y-133272344D01*
X120090581Y-133229296D01*
X120088127Y-133219428D01*
X120091049Y-133149620D01*
X120131248Y-133092473D01*
X120195962Y-133066132D01*
X120208461Y-133065500D01*
X124271057Y-133065500D01*
X124294668Y-133065500D01*
X124294702Y-133065509D01*
X124346040Y-133065509D01*
X124346040Y-133065510D01*
X124564154Y-133065509D01*
X124999270Y-133034386D01*
X125431056Y-132972302D01*
X125431185Y-132972274D01*
X125857306Y-132879576D01*
X125857309Y-132879575D01*
X125857314Y-132879574D01*
X126275871Y-132756673D01*
X126684593Y-132604226D01*
X127081399Y-132423010D01*
X127464266Y-132213948D01*
X127559156Y-132152965D01*
X127626195Y-132133281D01*
X127693234Y-132152965D01*
G37*
%TD.AperFunction*%
%TA.AperFunction,Conductor*%
G36*
X128882923Y-119189383D02*
G01*
X129066614Y-119325616D01*
X129076022Y-119333336D01*
X129259906Y-119500000D01*
X129278481Y-119516835D01*
X129282888Y-119521032D01*
X129786938Y-120025082D01*
X129819962Y-120084369D01*
X129822299Y-120094305D01*
X129822301Y-120094312D01*
X129884516Y-120235217D01*
X129897196Y-120263933D01*
X129977800Y-120381599D01*
X129999446Y-120448028D01*
X129999500Y-120451674D01*
X129999500Y-125343535D01*
X129999508Y-125343708D01*
X129999508Y-125361988D01*
X130013720Y-125469958D01*
X130031517Y-125605172D01*
X130046896Y-125662571D01*
X130076802Y-125774194D01*
X130094997Y-125842102D01*
X130094998Y-125842106D01*
X130171144Y-126025945D01*
X130188860Y-126068717D01*
X130250919Y-126176208D01*
X130311499Y-126281138D01*
X130311506Y-126281149D01*
X130387183Y-126379773D01*
X130455564Y-126468891D01*
X130460821Y-126475741D01*
X130460824Y-126475745D01*
X130481982Y-126496902D01*
X130511214Y-126526134D01*
X130511229Y-126526162D01*
X130547533Y-126562466D01*
X130547533Y-126562467D01*
X130634254Y-126649189D01*
X130634258Y-126649192D01*
X130634259Y-126649193D01*
X130653015Y-126663585D01*
X130828853Y-126798508D01*
X131041277Y-126921149D01*
X131267893Y-127015013D01*
X131267899Y-127015014D01*
X131267900Y-127015015D01*
X131340145Y-127034372D01*
X131399806Y-127070735D01*
X131430337Y-127133581D01*
X131422043Y-127202957D01*
X131377559Y-127256836D01*
X131359566Y-127266941D01*
X131118602Y-127376987D01*
X130735738Y-127586047D01*
X130368754Y-127821892D01*
X130368749Y-127821895D01*
X130019537Y-128083312D01*
X129689860Y-128368979D01*
X129689849Y-128368989D01*
X129643755Y-128415084D01*
X129581976Y-128476863D01*
X127724952Y-130333887D01*
X127721442Y-130337262D01*
X127451410Y-130586877D01*
X127444007Y-130593200D01*
X127157152Y-130819338D01*
X127149275Y-130825061D01*
X126845559Y-131027998D01*
X126837266Y-131033079D01*
X126523797Y-131208632D01*
X126518574Y-131211557D01*
X126509899Y-131215977D01*
X126178173Y-131368905D01*
X126169178Y-131372630D01*
X125826475Y-131499062D01*
X125817215Y-131502071D01*
X125465670Y-131601218D01*
X125456202Y-131603491D01*
X125097947Y-131674753D01*
X125088332Y-131676276D01*
X124725595Y-131719212D01*
X124715888Y-131719976D01*
X124348729Y-131734404D01*
X124343860Y-131734500D01*
X120671992Y-131734500D01*
X120604953Y-131714815D01*
X120559198Y-131662011D01*
X120549254Y-131592853D01*
X120578279Y-131529297D01*
X120606018Y-131505507D01*
X120827078Y-131366607D01*
X121061478Y-131179679D01*
X121167477Y-131073681D01*
X121220499Y-131020660D01*
X121220499Y-131020659D01*
X121230701Y-131010458D01*
X121230708Y-131010448D01*
X121989247Y-130251910D01*
X121989302Y-130251879D01*
X122025590Y-130215590D01*
X122025591Y-130215591D01*
X122181146Y-130060036D01*
X122409359Y-129792832D01*
X122466870Y-129725495D01*
X122466872Y-129725492D01*
X122466886Y-129725476D01*
X122725496Y-129369529D01*
X122955382Y-128994388D01*
X123155125Y-128602366D01*
X123323495Y-128195882D01*
X123459452Y-127777440D01*
X123562160Y-127349621D01*
X123562161Y-127349613D01*
X123562163Y-127349606D01*
X123626824Y-126941334D01*
X123630985Y-126915062D01*
X123665502Y-126476443D01*
X123665500Y-126256456D01*
X123665500Y-126220000D01*
X123665500Y-126152706D01*
X123665618Y-126147298D01*
X123667032Y-126114900D01*
X123682483Y-125760997D01*
X123683422Y-125750267D01*
X123733539Y-125369592D01*
X123735415Y-125358951D01*
X123735454Y-125358775D01*
X123818518Y-124984096D01*
X123821311Y-124973673D01*
X123936770Y-124607482D01*
X123940457Y-124597350D01*
X124087397Y-124242603D01*
X124091944Y-124232853D01*
X124269251Y-123892244D01*
X124274639Y-123882912D01*
X124480951Y-123559064D01*
X124487126Y-123550247D01*
X124720871Y-123245621D01*
X124727808Y-123237354D01*
X124988870Y-122952451D01*
X124992567Y-122948589D01*
X128023591Y-119917566D01*
X128073497Y-119889998D01*
X128072682Y-119887668D01*
X128079255Y-119885368D01*
X128249522Y-119825789D01*
X128402262Y-119729816D01*
X128529816Y-119602262D01*
X128625789Y-119449522D01*
X128685368Y-119279255D01*
X128685369Y-119279250D01*
X128685837Y-119275098D01*
X128686887Y-119272598D01*
X128686917Y-119272468D01*
X128686939Y-119272473D01*
X128712903Y-119210684D01*
X128770498Y-119171129D01*
X128840335Y-119168991D01*
X128882923Y-119189383D01*
G37*
%TD.AperFunction*%
%TA.AperFunction,Conductor*%
G36*
X127092724Y-118695185D02*
G01*
X127138479Y-118747989D01*
X127148423Y-118817147D01*
X127142726Y-118840454D01*
X127114632Y-118920745D01*
X127114631Y-118920747D01*
X127112333Y-118927317D01*
X127110019Y-118926507D01*
X127082432Y-118976407D01*
X126566443Y-119492396D01*
X126505120Y-119525881D01*
X126435428Y-119520897D01*
X126379495Y-119479025D01*
X126373768Y-119470687D01*
X126348625Y-119430673D01*
X126329816Y-119400738D01*
X126202262Y-119273184D01*
X126201130Y-119272473D01*
X126049523Y-119177211D01*
X125879254Y-119117631D01*
X125879249Y-119117630D01*
X125700004Y-119097435D01*
X125699996Y-119097435D01*
X125520750Y-119117630D01*
X125520745Y-119117631D01*
X125350476Y-119177211D01*
X125197737Y-119273184D01*
X125070184Y-119400737D01*
X124974210Y-119553478D01*
X124950119Y-119622328D01*
X124914632Y-119723745D01*
X124914631Y-119723747D01*
X124912333Y-119730317D01*
X124910019Y-119729507D01*
X124882432Y-119779407D01*
X122054627Y-122607211D01*
X122054615Y-122607217D01*
X121893518Y-122768313D01*
X121666663Y-123038671D01*
X121666662Y-123038672D01*
X121464222Y-123327788D01*
X121464216Y-123327797D01*
X121287761Y-123633431D01*
X121287749Y-123633453D01*
X121138603Y-123953300D01*
X121138600Y-123953308D01*
X121017889Y-124284963D01*
X120926548Y-124625858D01*
X120926544Y-124625875D01*
X120865260Y-124973433D01*
X120865260Y-124973437D01*
X120834500Y-125325028D01*
X120834500Y-125581453D01*
X120834499Y-125581475D01*
X120834499Y-125659093D01*
X120834304Y-125666044D01*
X120820293Y-125915595D01*
X120818736Y-125929413D01*
X120777457Y-126172381D01*
X120774363Y-126185939D01*
X120706134Y-126422771D01*
X120701541Y-126435896D01*
X120607231Y-126663585D01*
X120601198Y-126676114D01*
X120481981Y-126891823D01*
X120474583Y-126903597D01*
X120331963Y-127104603D01*
X120323292Y-127115475D01*
X120156950Y-127301610D01*
X120152175Y-127306661D01*
X120124386Y-127334452D01*
X120124383Y-127334455D01*
X119905366Y-127553471D01*
X119844043Y-127586956D01*
X119774351Y-127581972D01*
X119739998Y-127562438D01*
X119689547Y-127521884D01*
X119689544Y-127521882D01*
X119689541Y-127521880D01*
X119664223Y-127509324D01*
X119612910Y-127461903D01*
X119595380Y-127394268D01*
X119617200Y-127327893D01*
X119654221Y-127292697D01*
X119655377Y-127291984D01*
X119780656Y-127214712D01*
X119904712Y-127090656D01*
X119996814Y-126941334D01*
X120051999Y-126774797D01*
X120062500Y-126672009D01*
X120062499Y-125547992D01*
X120062426Y-125547282D01*
X120051999Y-125445203D01*
X120051998Y-125445200D01*
X120039848Y-125408534D01*
X119996814Y-125278666D01*
X119904712Y-125129344D01*
X119780656Y-125005288D01*
X119675575Y-124940474D01*
X119654220Y-124927302D01*
X119607496Y-124875354D01*
X119596273Y-124806391D01*
X119624117Y-124742309D01*
X119664222Y-124710675D01*
X119689547Y-124698116D01*
X119838990Y-124577990D01*
X119959116Y-124428547D01*
X120044307Y-124256775D01*
X120090581Y-124070704D01*
X120093500Y-124027657D01*
X120093499Y-123112344D01*
X120090581Y-123069296D01*
X120044307Y-122883225D01*
X119987315Y-122768311D01*
X119959118Y-122711456D01*
X119959116Y-122711453D01*
X119838990Y-122562010D01*
X119838989Y-122562009D01*
X119689546Y-122441883D01*
X119689543Y-122441881D01*
X119627453Y-122411088D01*
X119576140Y-122363667D01*
X119558610Y-122296032D01*
X119580430Y-122229657D01*
X119627453Y-122188912D01*
X119689543Y-122158118D01*
X119689543Y-122158117D01*
X119689547Y-122158116D01*
X119838990Y-122037990D01*
X119959116Y-121888547D01*
X120044307Y-121716775D01*
X120090581Y-121530704D01*
X120093500Y-121487657D01*
X120093499Y-120572344D01*
X120090581Y-120529296D01*
X120044307Y-120343225D01*
X120026812Y-120307949D01*
X119959118Y-120171456D01*
X119959116Y-120171453D01*
X119838990Y-120022010D01*
X119838989Y-120022009D01*
X119689546Y-119901883D01*
X119689543Y-119901881D01*
X119517778Y-119816694D01*
X119517776Y-119816693D01*
X119517775Y-119816693D01*
X119474086Y-119805828D01*
X119331708Y-119770419D01*
X119307105Y-119768751D01*
X119288657Y-119767500D01*
X119288654Y-119767500D01*
X117611343Y-119767500D01*
X117611340Y-119767501D01*
X117568298Y-119770418D01*
X117568290Y-119770419D01*
X117527424Y-119780582D01*
X117467576Y-119780582D01*
X117426710Y-119770420D01*
X117426707Y-119770419D01*
X117426704Y-119770419D01*
X117383657Y-119767500D01*
X117383654Y-119767500D01*
X115706343Y-119767500D01*
X115706340Y-119767501D01*
X115663298Y-119770418D01*
X115663297Y-119770418D01*
X115477221Y-119816694D01*
X115305456Y-119901881D01*
X115305453Y-119901883D01*
X115156010Y-120022009D01*
X115156009Y-120022010D01*
X115035883Y-120171453D01*
X115035881Y-120171456D01*
X114950694Y-120343221D01*
X114904419Y-120529291D01*
X114901500Y-120572345D01*
X114901500Y-121487656D01*
X114901501Y-121487659D01*
X114904418Y-121530701D01*
X114904418Y-121530702D01*
X114950694Y-121716778D01*
X115035881Y-121888543D01*
X115035883Y-121888546D01*
X115156009Y-122037989D01*
X115156010Y-122037990D01*
X115305453Y-122158116D01*
X115367547Y-122188912D01*
X115418859Y-122236333D01*
X115436388Y-122303968D01*
X115414569Y-122370343D01*
X115367547Y-122411088D01*
X115305453Y-122441883D01*
X115156010Y-122562009D01*
X115156009Y-122562010D01*
X115035883Y-122711453D01*
X115035881Y-122711456D01*
X114950690Y-122883228D01*
X114948604Y-122888907D01*
X114907003Y-122945042D01*
X114859808Y-122967025D01*
X114762885Y-122989147D01*
X114762876Y-122989150D01*
X114524021Y-123072730D01*
X114524013Y-123072733D01*
X114296027Y-123182524D01*
X114081747Y-123317165D01*
X113883892Y-123474948D01*
X113840769Y-123518072D01*
X113840767Y-123518074D01*
X113794420Y-123564418D01*
X113794421Y-123564419D01*
X113764736Y-123594105D01*
X113764733Y-123594107D01*
X113676405Y-123682433D01*
X113626508Y-123710021D01*
X113627317Y-123712333D01*
X113620747Y-123714631D01*
X113620745Y-123714632D01*
X113563966Y-123734500D01*
X113450478Y-123774210D01*
X113297737Y-123870184D01*
X113170184Y-123997737D01*
X113170182Y-123997740D01*
X113086484Y-124130943D01*
X113034149Y-124177234D01*
X112965096Y-124187881D01*
X112901248Y-124159506D01*
X112893810Y-124152651D01*
X112493961Y-123752800D01*
X112493780Y-123752636D01*
X112437589Y-123696443D01*
X112201080Y-123507829D01*
X112201076Y-123507826D01*
X112201072Y-123507823D01*
X111944921Y-123346870D01*
X111672360Y-123215609D01*
X111672353Y-123215606D01*
X111386817Y-123115691D01*
X111386811Y-123115689D01*
X111230066Y-123079912D01*
X111169088Y-123045802D01*
X111144104Y-123008831D01*
X111124173Y-122963393D01*
X110988166Y-122755217D01*
X110890732Y-122649376D01*
X110819744Y-122572262D01*
X110749837Y-122517851D01*
X110709026Y-122461143D01*
X110705351Y-122391370D01*
X110739983Y-122330687D01*
X110749827Y-122322156D01*
X110819744Y-122267738D01*
X110988164Y-122084785D01*
X111124173Y-121876607D01*
X111224063Y-121648881D01*
X111285108Y-121407821D01*
X111302728Y-121195180D01*
X111305643Y-121160005D01*
X111305643Y-121159994D01*
X111285109Y-120912187D01*
X111285107Y-120912175D01*
X111224063Y-120671118D01*
X111124173Y-120443393D01*
X110988166Y-120235217D01*
X110960397Y-120205052D01*
X110819744Y-120052262D01*
X110623509Y-119899526D01*
X110623507Y-119899525D01*
X110623506Y-119899524D01*
X110404811Y-119781172D01*
X110404802Y-119781169D01*
X110169616Y-119700429D01*
X109924335Y-119659500D01*
X109675665Y-119659500D01*
X109430383Y-119700429D01*
X109280885Y-119751752D01*
X109211086Y-119754902D01*
X109150665Y-119719816D01*
X109118804Y-119657633D01*
X109120048Y-119605525D01*
X109153539Y-119466018D01*
X109159546Y-119447526D01*
X109219958Y-119301674D01*
X109228785Y-119284349D01*
X109311271Y-119149743D01*
X109322702Y-119134011D01*
X109425130Y-119014080D01*
X109438877Y-119000332D01*
X109559030Y-118897712D01*
X109574755Y-118886288D01*
X109709358Y-118803804D01*
X109726683Y-118794977D01*
X109872540Y-118734563D01*
X109891021Y-118728560D01*
X110044526Y-118691709D01*
X110063724Y-118688668D01*
X110226243Y-118675881D01*
X110235961Y-118675500D01*
X110317057Y-118675502D01*
X110317062Y-118675500D01*
X110323158Y-118675501D01*
X110323199Y-118675500D01*
X127025685Y-118675500D01*
X127092724Y-118695185D01*
G37*
%TD.AperFunction*%
%TA.AperFunction,Conductor*%
G36*
X137153177Y-122030765D02*
G01*
X137382533Y-122045801D01*
X137398608Y-122047917D01*
X137620063Y-122091968D01*
X137635724Y-122096165D01*
X137818227Y-122158118D01*
X137849530Y-122168744D01*
X137864513Y-122174950D01*
X138067026Y-122274820D01*
X138081053Y-122282918D01*
X138268801Y-122408368D01*
X138281661Y-122418236D01*
X138330587Y-122461143D01*
X138451500Y-122567182D01*
X138462969Y-122578651D01*
X138611770Y-122748326D01*
X138621644Y-122761194D01*
X138747084Y-122948928D01*
X138755194Y-122962974D01*
X138855061Y-123165481D01*
X138861268Y-123180467D01*
X138933845Y-123394268D01*
X138938043Y-123409935D01*
X138982094Y-123631385D01*
X138984211Y-123647465D01*
X138999234Y-123876621D01*
X138999500Y-123884733D01*
X138999500Y-124778156D01*
X138979815Y-124845195D01*
X138927011Y-124890950D01*
X138861618Y-124901377D01*
X138820040Y-124896693D01*
X138800000Y-124894435D01*
X138799998Y-124894435D01*
X138799997Y-124894435D01*
X138799996Y-124894435D01*
X138620750Y-124914630D01*
X138620745Y-124914631D01*
X138450476Y-124974211D01*
X138297737Y-125070184D01*
X138170184Y-125197737D01*
X138074211Y-125350476D01*
X138014631Y-125520745D01*
X138014630Y-125520750D01*
X137994435Y-125699996D01*
X137994435Y-125700003D01*
X138014630Y-125879249D01*
X138014631Y-125879254D01*
X138074211Y-126049524D01*
X138115493Y-126115222D01*
X138134500Y-126181195D01*
X138134500Y-127115327D01*
X138114815Y-127182366D01*
X138062011Y-127228121D01*
X137992853Y-127238065D01*
X137933188Y-127212274D01*
X137839788Y-127137790D01*
X137839786Y-127137789D01*
X137630374Y-127006206D01*
X137407575Y-126898912D01*
X137407558Y-126898905D01*
X137290061Y-126857790D01*
X137233285Y-126817068D01*
X137207539Y-126752115D01*
X137210681Y-126710825D01*
X137235581Y-126610704D01*
X137238500Y-126567657D01*
X137238499Y-125652344D01*
X137235581Y-125609296D01*
X137189307Y-125423225D01*
X137169384Y-125383053D01*
X137104118Y-125251456D01*
X137104116Y-125251453D01*
X136983990Y-125102010D01*
X136983989Y-125102009D01*
X136834546Y-124981883D01*
X136834543Y-124981881D01*
X136662778Y-124896694D01*
X136662771Y-124896691D01*
X136570223Y-124873675D01*
X136512469Y-124841022D01*
X135329128Y-123657681D01*
X135295643Y-123596358D01*
X135297528Y-123569999D01*
X135948553Y-123569999D01*
X135948553Y-123570000D01*
X136968417Y-124589864D01*
X136983635Y-124577631D01*
X137103692Y-124428275D01*
X137188834Y-124256602D01*
X137235081Y-124070640D01*
X137237999Y-124027604D01*
X137237999Y-123112394D01*
X137237998Y-123112390D01*
X137235082Y-123069367D01*
X137235082Y-123069365D01*
X137188834Y-122883397D01*
X137103692Y-122711724D01*
X136983637Y-122562369D01*
X136983629Y-122562362D01*
X136968418Y-122550133D01*
X135948553Y-123569999D01*
X135297528Y-123569999D01*
X135300627Y-123526666D01*
X135329128Y-123482319D01*
X135595000Y-123216447D01*
X136512470Y-122298976D01*
X136570222Y-122266323D01*
X136662775Y-122243307D01*
X136834547Y-122158116D01*
X136912192Y-122095702D01*
X136959280Y-122057853D01*
X137023864Y-122031194D01*
X137036967Y-122030500D01*
X137145067Y-122030500D01*
X137153177Y-122030765D01*
G37*
%TD.AperFunction*%
%TA.AperFunction,Conductor*%
G36*
X146878682Y-125049585D02*
G01*
X146917759Y-125089749D01*
X146933716Y-125116145D01*
X146969530Y-125175388D01*
X147071661Y-125277519D01*
X147105146Y-125338842D01*
X147100162Y-125408534D01*
X147071661Y-125452881D01*
X146964224Y-125560318D01*
X146962408Y-125558502D01*
X146915539Y-125592006D01*
X146874770Y-125598900D01*
X146415340Y-125598900D01*
X146415320Y-125598901D01*
X146373471Y-125598901D01*
X146148362Y-125628536D01*
X145929035Y-125687305D01*
X145719271Y-125774192D01*
X145719267Y-125774194D01*
X145636386Y-125822046D01*
X145522632Y-125887722D01*
X145522629Y-125887723D01*
X145522624Y-125887727D01*
X145342494Y-126025945D01*
X145267968Y-126100471D01*
X145255772Y-126111167D01*
X145192099Y-126160024D01*
X145164067Y-126176208D01*
X145097493Y-126203784D01*
X145066226Y-126212162D01*
X144986649Y-126222639D01*
X144970463Y-126223700D01*
X144633400Y-126223700D01*
X144566361Y-126204015D01*
X144520606Y-126151211D01*
X144509400Y-126099700D01*
X144509400Y-125879200D01*
X143592412Y-125879200D01*
X143625325Y-125822193D01*
X143659400Y-125695026D01*
X143659400Y-125563374D01*
X143625325Y-125436207D01*
X143592412Y-125379200D01*
X144509400Y-125379200D01*
X144509400Y-125153900D01*
X144529085Y-125086861D01*
X144581889Y-125041106D01*
X144633400Y-125029900D01*
X146811643Y-125029900D01*
X146878682Y-125049585D01*
G37*
%TD.AperFunction*%
%TA.AperFunction,Conductor*%
G36*
X123425682Y-99323069D02*
G01*
X123492689Y-99342849D01*
X123538368Y-99395718D01*
X123549500Y-99447068D01*
X123549500Y-99521288D01*
X123581161Y-99761785D01*
X123643947Y-99996104D01*
X123710447Y-100156649D01*
X123736776Y-100220212D01*
X123858064Y-100430289D01*
X123858066Y-100430292D01*
X123858067Y-100430293D01*
X124005733Y-100622736D01*
X124005739Y-100622743D01*
X124177256Y-100794260D01*
X124177262Y-100794265D01*
X124369711Y-100941936D01*
X124579788Y-101063224D01*
X124803900Y-101156054D01*
X125038211Y-101218838D01*
X125218586Y-101242584D01*
X125278711Y-101250500D01*
X125278712Y-101250500D01*
X125521289Y-101250500D01*
X125569388Y-101244167D01*
X125761789Y-101218838D01*
X125996100Y-101156054D01*
X126220212Y-101063224D01*
X126430289Y-100941936D01*
X126622738Y-100794265D01*
X126794265Y-100622738D01*
X126848425Y-100552155D01*
X141150000Y-100552155D01*
X141150000Y-101000000D01*
X142175000Y-101000000D01*
X142675000Y-101000000D01*
X143700000Y-101000000D01*
X143700000Y-100552172D01*
X143699999Y-100552155D01*
X149100000Y-100552155D01*
X149100000Y-101000000D01*
X150125000Y-101000000D01*
X150625000Y-101000000D01*
X151650000Y-101000000D01*
X151650000Y-100552172D01*
X151649999Y-100552155D01*
X151643598Y-100492627D01*
X151643596Y-100492620D01*
X151593354Y-100357913D01*
X151593350Y-100357906D01*
X151507190Y-100242812D01*
X151507187Y-100242809D01*
X151392093Y-100156649D01*
X151392086Y-100156645D01*
X151257379Y-100106403D01*
X151257372Y-100106401D01*
X151197844Y-100100000D01*
X150625000Y-100100000D01*
X150625000Y-101000000D01*
X150125000Y-101000000D01*
X150125000Y-100100000D01*
X149552155Y-100100000D01*
X149492627Y-100106401D01*
X149492620Y-100106403D01*
X149357913Y-100156645D01*
X149357906Y-100156649D01*
X149242812Y-100242809D01*
X149242809Y-100242812D01*
X149156649Y-100357906D01*
X149156645Y-100357913D01*
X149106403Y-100492620D01*
X149106401Y-100492627D01*
X149100000Y-100552155D01*
X143699999Y-100552155D01*
X143693598Y-100492627D01*
X143693596Y-100492620D01*
X143643354Y-100357913D01*
X143643350Y-100357906D01*
X143557190Y-100242812D01*
X143557187Y-100242809D01*
X143442093Y-100156649D01*
X143442086Y-100156645D01*
X143307379Y-100106403D01*
X143307372Y-100106401D01*
X143247844Y-100100000D01*
X142675000Y-100100000D01*
X142675000Y-101000000D01*
X142175000Y-101000000D01*
X142175000Y-100100000D01*
X141602155Y-100100000D01*
X141542627Y-100106401D01*
X141542620Y-100106403D01*
X141407913Y-100156645D01*
X141407906Y-100156649D01*
X141292812Y-100242809D01*
X141292809Y-100242812D01*
X141206649Y-100357906D01*
X141206645Y-100357913D01*
X141156403Y-100492620D01*
X141156401Y-100492627D01*
X141150000Y-100552155D01*
X126848425Y-100552155D01*
X126941936Y-100430289D01*
X127063224Y-100220212D01*
X127156054Y-99996100D01*
X127218838Y-99761789D01*
X127250500Y-99521288D01*
X127250500Y-99452718D01*
X127270185Y-99385679D01*
X127322989Y-99339924D01*
X127374671Y-99328719D01*
X171725681Y-99392168D01*
X171792689Y-99411948D01*
X171838368Y-99464817D01*
X171849500Y-99516167D01*
X171849500Y-99521288D01*
X171881161Y-99761785D01*
X171943947Y-99996104D01*
X172010447Y-100156649D01*
X172036776Y-100220212D01*
X172158064Y-100430289D01*
X172158066Y-100430292D01*
X172158067Y-100430293D01*
X172305733Y-100622736D01*
X172305739Y-100622743D01*
X172477256Y-100794260D01*
X172477262Y-100794265D01*
X172669711Y-100941936D01*
X172879788Y-101063224D01*
X173103900Y-101156054D01*
X173338211Y-101218838D01*
X173518586Y-101242584D01*
X173578711Y-101250500D01*
X173578712Y-101250500D01*
X173821289Y-101250500D01*
X173869388Y-101244167D01*
X174061789Y-101218838D01*
X174296100Y-101156054D01*
X174520212Y-101063224D01*
X174730289Y-100941936D01*
X174922738Y-100794265D01*
X175094265Y-100622738D01*
X175241936Y-100430289D01*
X175363224Y-100220212D01*
X175456054Y-99996100D01*
X175518838Y-99761789D01*
X175550500Y-99521288D01*
X175550500Y-99521282D01*
X175550766Y-99517237D01*
X175551824Y-99517306D01*
X175570185Y-99454778D01*
X175622989Y-99409023D01*
X175674673Y-99397817D01*
X177200000Y-99400000D01*
X177476000Y-99400000D01*
X177543039Y-99419685D01*
X177588794Y-99472489D01*
X177600000Y-99524000D01*
X177600000Y-103900068D01*
X177675953Y-125584897D01*
X177656504Y-125652005D01*
X177626266Y-125684597D01*
X177516711Y-125766611D01*
X177442059Y-125866331D01*
X177386124Y-125908202D01*
X177316433Y-125913185D01*
X177255110Y-125879699D01*
X177222221Y-125820969D01*
X177162084Y-125570478D01*
X177117976Y-125434728D01*
X177044366Y-125208178D01*
X177038062Y-125192958D01*
X176898582Y-124856221D01*
X176725634Y-124516792D01*
X176725625Y-124516778D01*
X176725623Y-124516772D01*
X176557625Y-124242625D01*
X176526589Y-124191979D01*
X176302672Y-123883784D01*
X176055265Y-123594107D01*
X175984972Y-123523814D01*
X175975909Y-123512444D01*
X175975355Y-123512887D01*
X175971012Y-123507441D01*
X175881704Y-123418131D01*
X175881668Y-123418102D01*
X175783311Y-123319745D01*
X175783304Y-123319738D01*
X175752811Y-123293694D01*
X175493634Y-123072334D01*
X175493611Y-123072317D01*
X175233352Y-122883228D01*
X175185433Y-122848413D01*
X175185430Y-122848411D01*
X175185423Y-122848406D01*
X174860636Y-122649376D01*
X174860625Y-122649370D01*
X174860624Y-122649369D01*
X174860620Y-122649367D01*
X174521191Y-122476419D01*
X174437817Y-122441884D01*
X174169234Y-122330632D01*
X173879008Y-122236333D01*
X173806935Y-122212915D01*
X173436510Y-122123983D01*
X173436504Y-122123982D01*
X173060260Y-122064391D01*
X173060251Y-122064390D01*
X173060249Y-122064389D01*
X173060241Y-122064389D01*
X172680480Y-122034500D01*
X172680475Y-122034500D01*
X172544334Y-122034500D01*
X143525598Y-122034500D01*
X143458559Y-122014815D01*
X143412804Y-121962011D01*
X143402658Y-121894317D01*
X143430503Y-121682785D01*
X143430500Y-121564757D01*
X143430500Y-121558942D01*
X143430500Y-118800000D01*
X158395052Y-118800000D01*
X158414812Y-119051072D01*
X158473603Y-119295956D01*
X158569980Y-119528631D01*
X158701568Y-119743362D01*
X158702266Y-119744179D01*
X159360689Y-119085756D01*
X159379668Y-119131574D01*
X159456274Y-119246224D01*
X159553776Y-119343726D01*
X159668426Y-119420332D01*
X159714242Y-119439309D01*
X159055819Y-120097732D01*
X159055819Y-120097733D01*
X159056634Y-120098429D01*
X159271368Y-120230019D01*
X159504043Y-120326396D01*
X159748927Y-120385187D01*
X160000000Y-120404947D01*
X160251072Y-120385187D01*
X160495956Y-120326396D01*
X160728631Y-120230019D01*
X160943361Y-120098432D01*
X160943363Y-120098430D01*
X160944180Y-120097732D01*
X160285757Y-119439309D01*
X160331574Y-119420332D01*
X160446224Y-119343726D01*
X160543726Y-119246224D01*
X160620332Y-119131574D01*
X160639309Y-119085757D01*
X161297732Y-119744180D01*
X161298430Y-119743363D01*
X161298432Y-119743361D01*
X161430019Y-119528631D01*
X161526396Y-119295956D01*
X161585187Y-119051072D01*
X161604947Y-118800000D01*
X163475052Y-118800000D01*
X163494812Y-119051072D01*
X163553603Y-119295956D01*
X163649980Y-119528631D01*
X163781568Y-119743362D01*
X163782266Y-119744179D01*
X164440689Y-119085755D01*
X164459668Y-119131574D01*
X164536274Y-119246224D01*
X164633776Y-119343726D01*
X164748426Y-119420332D01*
X164794242Y-119439309D01*
X164135819Y-120097732D01*
X164135819Y-120097733D01*
X164136634Y-120098429D01*
X164351368Y-120230019D01*
X164584043Y-120326396D01*
X164828927Y-120385187D01*
X165080000Y-120404947D01*
X165331072Y-120385187D01*
X165575956Y-120326396D01*
X165808631Y-120230019D01*
X166023361Y-120098432D01*
X166023363Y-120098430D01*
X166024180Y-120097732D01*
X165365757Y-119439309D01*
X165411574Y-119420332D01*
X165526224Y-119343726D01*
X165623726Y-119246224D01*
X165700332Y-119131574D01*
X165719309Y-119085757D01*
X166377732Y-119744180D01*
X166378430Y-119743363D01*
X166378432Y-119743361D01*
X166510019Y-119528631D01*
X166606396Y-119295956D01*
X166665187Y-119051072D01*
X166684947Y-118800000D01*
X166665187Y-118548927D01*
X166606396Y-118304043D01*
X166510019Y-118071368D01*
X166378429Y-117856634D01*
X166377733Y-117855819D01*
X166377732Y-117855819D01*
X165719309Y-118514242D01*
X165700332Y-118468426D01*
X165623726Y-118353776D01*
X165526224Y-118256274D01*
X165411574Y-118179668D01*
X165365756Y-118160690D01*
X166024179Y-117502266D01*
X166023362Y-117501568D01*
X165808631Y-117369980D01*
X165575956Y-117273603D01*
X165331072Y-117214812D01*
X165080000Y-117195052D01*
X164828927Y-117214812D01*
X164584043Y-117273603D01*
X164351368Y-117369980D01*
X164136637Y-117501567D01*
X164135819Y-117502266D01*
X164794243Y-118160690D01*
X164748426Y-118179668D01*
X164633776Y-118256274D01*
X164536274Y-118353776D01*
X164459668Y-118468426D01*
X164440690Y-118514243D01*
X163782266Y-117855819D01*
X163781567Y-117856637D01*
X163649980Y-118071368D01*
X163553603Y-118304043D01*
X163494812Y-118548927D01*
X163475052Y-118800000D01*
X161604947Y-118800000D01*
X161585187Y-118548927D01*
X161526396Y-118304043D01*
X161430019Y-118071368D01*
X161298429Y-117856634D01*
X161297733Y-117855819D01*
X161297732Y-117855819D01*
X160639309Y-118514242D01*
X160620332Y-118468426D01*
X160543726Y-118353776D01*
X160446224Y-118256274D01*
X160331574Y-118179668D01*
X160285756Y-118160690D01*
X160944179Y-117502266D01*
X160943362Y-117501568D01*
X160728631Y-117369980D01*
X160495956Y-117273603D01*
X160251072Y-117214812D01*
X160000000Y-117195052D01*
X159748927Y-117214812D01*
X159504043Y-117273603D01*
X159271368Y-117369980D01*
X159056637Y-117501567D01*
X159055819Y-117502266D01*
X159714243Y-118160690D01*
X159668426Y-118179668D01*
X159553776Y-118256274D01*
X159456274Y-118353776D01*
X159379668Y-118468426D01*
X159360690Y-118514243D01*
X158702266Y-117855819D01*
X158701567Y-117856637D01*
X158569980Y-118071368D01*
X158473603Y-118304043D01*
X158414812Y-118548927D01*
X158395052Y-118800000D01*
X143430500Y-118800000D01*
X143430500Y-106914722D01*
X143450185Y-106847683D01*
X143480187Y-106815456D01*
X143557546Y-106757546D01*
X143643796Y-106642331D01*
X143694091Y-106507483D01*
X143694090Y-106507483D01*
X143696802Y-106500215D01*
X143698944Y-106501013D01*
X143727826Y-106450279D01*
X143789733Y-106417886D01*
X143813940Y-106415500D01*
X148986059Y-106415500D01*
X149053098Y-106435185D01*
X149098853Y-106487989D01*
X149103062Y-106500265D01*
X149103198Y-106500215D01*
X149156202Y-106642328D01*
X149156206Y-106642335D01*
X149242452Y-106757544D01*
X149242455Y-106757547D01*
X149357664Y-106843793D01*
X149357671Y-106843797D01*
X149492517Y-106894091D01*
X149492516Y-106894091D01*
X149499444Y-106894835D01*
X149552127Y-106900500D01*
X151197872Y-106900499D01*
X151257483Y-106894091D01*
X151392331Y-106843796D01*
X151507546Y-106757546D01*
X151593796Y-106642331D01*
X151644091Y-106507483D01*
X151650500Y-106447873D01*
X151650499Y-105052128D01*
X151644091Y-104992517D01*
X151593796Y-104857669D01*
X151593795Y-104857668D01*
X151593793Y-104857664D01*
X151507547Y-104742455D01*
X151507544Y-104742452D01*
X151392335Y-104656206D01*
X151392328Y-104656202D01*
X151257482Y-104605908D01*
X151257483Y-104605908D01*
X151197883Y-104599501D01*
X151197881Y-104599500D01*
X151197873Y-104599500D01*
X151197864Y-104599500D01*
X149552129Y-104599500D01*
X149552123Y-104599501D01*
X149492516Y-104605908D01*
X149357671Y-104656202D01*
X149357664Y-104656206D01*
X149242455Y-104742452D01*
X149242452Y-104742455D01*
X149156206Y-104857664D01*
X149156202Y-104857671D01*
X149103198Y-104999785D01*
X149101055Y-104998986D01*
X149072174Y-105049721D01*
X149010267Y-105082114D01*
X148986060Y-105084500D01*
X143813941Y-105084500D01*
X143746902Y-105064815D01*
X143701147Y-105012011D01*
X143696937Y-104999734D01*
X143696802Y-104999785D01*
X143643797Y-104857671D01*
X143643793Y-104857664D01*
X143557547Y-104742455D01*
X143557544Y-104742452D01*
X143442335Y-104656206D01*
X143442328Y-104656202D01*
X143307482Y-104605908D01*
X143307483Y-104605908D01*
X143247883Y-104599501D01*
X143247881Y-104599500D01*
X143247873Y-104599500D01*
X143247864Y-104599500D01*
X141602129Y-104599500D01*
X141602123Y-104599501D01*
X141542516Y-104605908D01*
X141407671Y-104656202D01*
X141407664Y-104656206D01*
X141292455Y-104742452D01*
X141292452Y-104742455D01*
X141206206Y-104857664D01*
X141206202Y-104857671D01*
X141155908Y-104992517D01*
X141149501Y-105052116D01*
X141149501Y-105052123D01*
X141149500Y-105052135D01*
X141149500Y-106447870D01*
X141149501Y-106447876D01*
X141155908Y-106507483D01*
X141206202Y-106642328D01*
X141206206Y-106642335D01*
X141292452Y-106757544D01*
X141292455Y-106757547D01*
X141407664Y-106843793D01*
X141407671Y-106843797D01*
X141419498Y-106848208D01*
X141542517Y-106894091D01*
X141602127Y-106900500D01*
X141975500Y-106900499D01*
X142042539Y-106920183D01*
X142088294Y-106972987D01*
X142099500Y-107024499D01*
X142099500Y-111725863D01*
X142079815Y-111792902D01*
X142027011Y-111838657D01*
X141957853Y-111848601D01*
X141943407Y-111845638D01*
X141826697Y-111814366D01*
X141826693Y-111814365D01*
X141826692Y-111814365D01*
X141826691Y-111814364D01*
X141826686Y-111814364D01*
X141600002Y-111794532D01*
X141599998Y-111794532D01*
X141373313Y-111814364D01*
X141373302Y-111814366D01*
X141153511Y-111873258D01*
X141153502Y-111873261D01*
X140947267Y-111969431D01*
X140947265Y-111969432D01*
X140760858Y-112099954D01*
X140599954Y-112260858D01*
X140469432Y-112447265D01*
X140469431Y-112447267D01*
X140442382Y-112505275D01*
X140396209Y-112557714D01*
X140329016Y-112576866D01*
X140262135Y-112556650D01*
X140217618Y-112505275D01*
X140190568Y-112447266D01*
X140060047Y-112260861D01*
X140060045Y-112260858D01*
X139899141Y-112099954D01*
X139712734Y-111969432D01*
X139712732Y-111969431D01*
X139506497Y-111873261D01*
X139506488Y-111873258D01*
X139286697Y-111814366D01*
X139286693Y-111814365D01*
X139286692Y-111814365D01*
X139286691Y-111814364D01*
X139286686Y-111814364D01*
X139060002Y-111794532D01*
X139059998Y-111794532D01*
X138833313Y-111814364D01*
X138833302Y-111814366D01*
X138613511Y-111873258D01*
X138613502Y-111873261D01*
X138407267Y-111969431D01*
X138407265Y-111969432D01*
X138220858Y-112099954D01*
X138059954Y-112260858D01*
X137929432Y-112447265D01*
X137929431Y-112447267D01*
X137902382Y-112505275D01*
X137856209Y-112557714D01*
X137789016Y-112576866D01*
X137722135Y-112556650D01*
X137677618Y-112505275D01*
X137650568Y-112447266D01*
X137520047Y-112260861D01*
X137520045Y-112260858D01*
X137359141Y-112099954D01*
X137172734Y-111969432D01*
X137172732Y-111969431D01*
X136966497Y-111873261D01*
X136966488Y-111873258D01*
X136746697Y-111814366D01*
X136746693Y-111814365D01*
X136746692Y-111814365D01*
X136746691Y-111814364D01*
X136746686Y-111814364D01*
X136520002Y-111794532D01*
X136519998Y-111794532D01*
X136293313Y-111814364D01*
X136293302Y-111814366D01*
X136073511Y-111873258D01*
X136073502Y-111873261D01*
X135867267Y-111969431D01*
X135867265Y-111969432D01*
X135680858Y-112099954D01*
X135519954Y-112260858D01*
X135389432Y-112447265D01*
X135389428Y-112447272D01*
X135362105Y-112505866D01*
X135315932Y-112558305D01*
X135248738Y-112577456D01*
X135181858Y-112557239D01*
X135137342Y-112505864D01*
X135110136Y-112447521D01*
X135110132Y-112447513D01*
X135059025Y-112374526D01*
X134422137Y-113011414D01*
X134399333Y-112926306D01*
X134340090Y-112823694D01*
X134256306Y-112739910D01*
X134153694Y-112680667D01*
X134068585Y-112657862D01*
X134705472Y-112020974D01*
X134632478Y-111969863D01*
X134426331Y-111873735D01*
X134426317Y-111873730D01*
X134206610Y-111814860D01*
X134206599Y-111814858D01*
X133980002Y-111795034D01*
X133979998Y-111795034D01*
X133753400Y-111814858D01*
X133753389Y-111814860D01*
X133533682Y-111873730D01*
X133533673Y-111873734D01*
X133327516Y-111969866D01*
X133327512Y-111969868D01*
X133254526Y-112020973D01*
X133254526Y-112020974D01*
X133891414Y-112657861D01*
X133806306Y-112680667D01*
X133703694Y-112739910D01*
X133619910Y-112823694D01*
X133560667Y-112926306D01*
X133537862Y-113011414D01*
X132900974Y-112374526D01*
X132900973Y-112374526D01*
X132849868Y-112447512D01*
X132849866Y-112447516D01*
X132753734Y-112653673D01*
X132753730Y-112653682D01*
X132694860Y-112873389D01*
X132694858Y-112873400D01*
X132675034Y-113099997D01*
X132675034Y-113100002D01*
X132694858Y-113326599D01*
X132694860Y-113326610D01*
X132753730Y-113546317D01*
X132753735Y-113546331D01*
X132849863Y-113752478D01*
X132900974Y-113825472D01*
X133537861Y-113188584D01*
X133560667Y-113273694D01*
X133619910Y-113376306D01*
X133703694Y-113460090D01*
X133806306Y-113519333D01*
X133891414Y-113542137D01*
X133254526Y-114179025D01*
X133327513Y-114230132D01*
X133327521Y-114230136D01*
X133533668Y-114326264D01*
X133533682Y-114326269D01*
X133753389Y-114385139D01*
X133753400Y-114385141D01*
X133979998Y-114404966D01*
X133980002Y-114404966D01*
X134206599Y-114385141D01*
X134206610Y-114385139D01*
X134426317Y-114326269D01*
X134426331Y-114326264D01*
X134632478Y-114230136D01*
X134705471Y-114179024D01*
X134068585Y-113542138D01*
X134153694Y-113519333D01*
X134256306Y-113460090D01*
X134340090Y-113376306D01*
X134399333Y-113273694D01*
X134422138Y-113188585D01*
X135059024Y-113825471D01*
X135110133Y-113752482D01*
X135137341Y-113694135D01*
X135183513Y-113641696D01*
X135250707Y-113622543D01*
X135317588Y-113642758D01*
X135362106Y-113694133D01*
X135389432Y-113752734D01*
X135472030Y-113870698D01*
X135494357Y-113936904D01*
X135489115Y-113977814D01*
X135472402Y-114032911D01*
X135463099Y-114055371D01*
X135413132Y-114148852D01*
X135399627Y-114169063D01*
X135328499Y-114255733D01*
X135320327Y-114264749D01*
X130999291Y-118585785D01*
X130937968Y-118619270D01*
X130868276Y-118614286D01*
X130823929Y-118585785D01*
X130555401Y-118317257D01*
X130555376Y-118317212D01*
X130376113Y-118137948D01*
X130376112Y-118137947D01*
X130376105Y-118137940D01*
X130066315Y-117877997D01*
X130066314Y-117877996D01*
X130066309Y-117877992D01*
X129735049Y-117646041D01*
X129384824Y-117443842D01*
X129384807Y-117443834D01*
X129018327Y-117272942D01*
X129018308Y-117272934D01*
X128638310Y-117134629D01*
X128638295Y-117134624D01*
X128247671Y-117029959D01*
X128247656Y-117029956D01*
X127849429Y-116959742D01*
X127849422Y-116959741D01*
X127446558Y-116924498D01*
X127446557Y-116924498D01*
X127244357Y-116924500D01*
X110138816Y-116924500D01*
X110138425Y-116924518D01*
X110089322Y-116924518D01*
X110089321Y-116924518D01*
X110089319Y-116924518D01*
X110034118Y-116929953D01*
X109807584Y-116952259D01*
X109807572Y-116952261D01*
X109529908Y-117007486D01*
X109529897Y-117007489D01*
X109258999Y-117089660D01*
X108997441Y-117197998D01*
X108997437Y-117197999D01*
X108747763Y-117331449D01*
X108747753Y-117331455D01*
X108512361Y-117488738D01*
X108293520Y-117668335D01*
X108261641Y-117700214D01*
X108229760Y-117732095D01*
X108229694Y-117732131D01*
X108093315Y-117868512D01*
X107920353Y-118079268D01*
X107862608Y-118118602D01*
X107792763Y-118120473D01*
X107732995Y-118084286D01*
X107702279Y-118021530D01*
X107700500Y-118000603D01*
X107700500Y-108878711D01*
X108749500Y-108878711D01*
X108749500Y-109121288D01*
X108781161Y-109361785D01*
X108843947Y-109596104D01*
X108936773Y-109820205D01*
X108936776Y-109820212D01*
X109058064Y-110030289D01*
X109058066Y-110030292D01*
X109058067Y-110030293D01*
X109205733Y-110222736D01*
X109205739Y-110222743D01*
X109377256Y-110394260D01*
X109377262Y-110394265D01*
X109569711Y-110541936D01*
X109779788Y-110663224D01*
X110003900Y-110756054D01*
X110238211Y-110818838D01*
X110418586Y-110842584D01*
X110478711Y-110850500D01*
X110478712Y-110850500D01*
X110721289Y-110850500D01*
X110769388Y-110844167D01*
X110961789Y-110818838D01*
X111196100Y-110756054D01*
X111420212Y-110663224D01*
X111630289Y-110541936D01*
X111822738Y-110394265D01*
X111994265Y-110222738D01*
X112141936Y-110030289D01*
X112263224Y-109820212D01*
X112356054Y-109596100D01*
X112418838Y-109361789D01*
X112450500Y-109121288D01*
X112450500Y-108878712D01*
X112418838Y-108638211D01*
X112356054Y-108403900D01*
X112263224Y-108179788D01*
X112141936Y-107969711D01*
X111994265Y-107777262D01*
X111994260Y-107777256D01*
X111822743Y-107605739D01*
X111822736Y-107605733D01*
X111630293Y-107458067D01*
X111630292Y-107458066D01*
X111630289Y-107458064D01*
X111420212Y-107336776D01*
X111420205Y-107336773D01*
X111196104Y-107243947D01*
X110961785Y-107181161D01*
X110721289Y-107149500D01*
X110721288Y-107149500D01*
X110478712Y-107149500D01*
X110478711Y-107149500D01*
X110238214Y-107181161D01*
X110003895Y-107243947D01*
X109779794Y-107336773D01*
X109779785Y-107336777D01*
X109569706Y-107458067D01*
X109377263Y-107605733D01*
X109377256Y-107605739D01*
X109205739Y-107777256D01*
X109205733Y-107777263D01*
X109058067Y-107969706D01*
X108936777Y-108179785D01*
X108936773Y-108179794D01*
X108843947Y-108403895D01*
X108781161Y-108638214D01*
X108749500Y-108878711D01*
X107700500Y-108878711D01*
X107700500Y-101947844D01*
X141150000Y-101947844D01*
X141156401Y-102007372D01*
X141156403Y-102007379D01*
X141206645Y-102142086D01*
X141206649Y-102142093D01*
X141292809Y-102257187D01*
X141292812Y-102257190D01*
X141407906Y-102343350D01*
X141407913Y-102343354D01*
X141542620Y-102393596D01*
X141542627Y-102393598D01*
X141602155Y-102399999D01*
X141602172Y-102400000D01*
X142175000Y-102400000D01*
X142675000Y-102400000D01*
X143247828Y-102400000D01*
X143247844Y-102399999D01*
X143307372Y-102393598D01*
X143307379Y-102393596D01*
X143442086Y-102343354D01*
X143442093Y-102343350D01*
X143557187Y-102257190D01*
X143557190Y-102257187D01*
X143643350Y-102142093D01*
X143643354Y-102142086D01*
X143693596Y-102007379D01*
X143693598Y-102007372D01*
X143699999Y-101947844D01*
X149100000Y-101947844D01*
X149106401Y-102007372D01*
X149106403Y-102007379D01*
X149156645Y-102142086D01*
X149156649Y-102142093D01*
X149242809Y-102257187D01*
X149242812Y-102257190D01*
X149357906Y-102343350D01*
X149357913Y-102343354D01*
X149492620Y-102393596D01*
X149492627Y-102393598D01*
X149552155Y-102399999D01*
X149552172Y-102400000D01*
X150125000Y-102400000D01*
X150625000Y-102400000D01*
X151197828Y-102400000D01*
X151197844Y-102399999D01*
X151257372Y-102393598D01*
X151257379Y-102393596D01*
X151392086Y-102343354D01*
X151392093Y-102343350D01*
X151507187Y-102257190D01*
X151507190Y-102257187D01*
X151593350Y-102142093D01*
X151593354Y-102142086D01*
X151643596Y-102007379D01*
X151643598Y-102007372D01*
X151649999Y-101947844D01*
X151650000Y-101947827D01*
X151650000Y-101500000D01*
X150625000Y-101500000D01*
X150625000Y-102400000D01*
X150125000Y-102400000D01*
X150125000Y-101500000D01*
X149100000Y-101500000D01*
X149100000Y-101947844D01*
X143699999Y-101947844D01*
X143700000Y-101947827D01*
X143700000Y-101500000D01*
X142675000Y-101500000D01*
X142675000Y-102400000D01*
X142175000Y-102400000D01*
X142175000Y-101500000D01*
X141150000Y-101500000D01*
X141150000Y-101947844D01*
X107700500Y-101947844D01*
X107700500Y-99424749D01*
X107720185Y-99357710D01*
X107772989Y-99311955D01*
X107824669Y-99300750D01*
X123425682Y-99323069D01*
G37*
%TD.AperFunction*%
%TA.AperFunction,Conductor*%
G36*
X140397865Y-113643348D02*
G01*
X140442382Y-113694725D01*
X140469429Y-113752728D01*
X140469432Y-113752734D01*
X140599954Y-113939141D01*
X140760858Y-114100045D01*
X140760861Y-114100047D01*
X140947266Y-114230568D01*
X141153504Y-114326739D01*
X141373308Y-114385635D01*
X141535230Y-114399801D01*
X141599998Y-114405468D01*
X141600000Y-114405468D01*
X141600002Y-114405468D01*
X141656673Y-114400509D01*
X141826692Y-114385635D01*
X141943408Y-114354361D01*
X142013256Y-114356024D01*
X142071119Y-114395186D01*
X142098623Y-114459415D01*
X142099500Y-114474136D01*
X142099500Y-121483003D01*
X142099498Y-121483041D01*
X142099499Y-121558698D01*
X142098902Y-121570852D01*
X142091672Y-121644271D01*
X142086930Y-121668112D01*
X142067293Y-121732852D01*
X142057991Y-121755311D01*
X142026099Y-121814978D01*
X142012593Y-121835192D01*
X141980201Y-121874661D01*
X141925303Y-121913036D01*
X141798330Y-121957466D01*
X141728551Y-121961028D01*
X141667924Y-121926300D01*
X141635696Y-121864306D01*
X141635287Y-121862115D01*
X141629961Y-121831906D01*
X141543482Y-121509165D01*
X141429202Y-121195190D01*
X141287994Y-120892369D01*
X141120930Y-120603008D01*
X140929283Y-120329308D01*
X140929282Y-120329307D01*
X140929278Y-120329301D01*
X140734967Y-120097733D01*
X140714510Y-120073353D01*
X140649403Y-120008245D01*
X140649403Y-120008244D01*
X140596381Y-119955221D01*
X140538495Y-119897336D01*
X140538372Y-119897226D01*
X140478244Y-119837098D01*
X140453926Y-119816693D01*
X140367508Y-119744179D01*
X140222293Y-119622328D01*
X140017636Y-119479025D01*
X139948588Y-119430677D01*
X139948586Y-119430676D01*
X139948582Y-119430673D01*
X139659233Y-119263616D01*
X139659217Y-119263608D01*
X139356424Y-119122412D01*
X139356416Y-119122409D01*
X139356414Y-119122408D01*
X139356407Y-119122405D01*
X139042432Y-119008126D01*
X138870925Y-118962170D01*
X138719693Y-118921646D01*
X138719686Y-118921645D01*
X138390643Y-118863624D01*
X138390646Y-118863624D01*
X138057790Y-118834501D01*
X138057789Y-118834500D01*
X137956268Y-118834500D01*
X137956267Y-118834500D01*
X133879781Y-118834500D01*
X133812742Y-118814815D01*
X133766987Y-118762011D01*
X133757043Y-118692853D01*
X133786068Y-118629297D01*
X133792100Y-118622819D01*
X135141985Y-117272934D01*
X136809236Y-115605684D01*
X136809237Y-115605682D01*
X136816299Y-115598620D01*
X136816314Y-115598602D01*
X136845429Y-115569489D01*
X136845429Y-115569488D01*
X136845433Y-115569485D01*
X137032153Y-115335347D01*
X137191483Y-115081776D01*
X137321420Y-114811960D01*
X137420330Y-114529292D01*
X137486969Y-114237327D01*
X137517132Y-113969626D01*
X137538775Y-113912391D01*
X137650568Y-113752734D01*
X137677618Y-113694724D01*
X137723790Y-113642285D01*
X137790983Y-113623133D01*
X137857865Y-113643348D01*
X137902382Y-113694725D01*
X137929429Y-113752728D01*
X137929432Y-113752734D01*
X138059954Y-113939141D01*
X138220858Y-114100045D01*
X138220861Y-114100047D01*
X138407266Y-114230568D01*
X138613504Y-114326739D01*
X138833308Y-114385635D01*
X138995230Y-114399801D01*
X139059998Y-114405468D01*
X139060000Y-114405468D01*
X139060002Y-114405468D01*
X139116673Y-114400509D01*
X139286692Y-114385635D01*
X139506496Y-114326739D01*
X139712734Y-114230568D01*
X139899139Y-114100047D01*
X140060047Y-113939139D01*
X140190568Y-113752734D01*
X140217618Y-113694724D01*
X140263790Y-113642285D01*
X140330983Y-113623133D01*
X140397865Y-113643348D01*
G37*
%TD.AperFunction*%
%TD*%
M02*
