%TF.GenerationSoftware,KiCad,Pcbnew,8.0.2*%
%TF.CreationDate,2026-04-27T19:27:05+02:00*%
%TF.ProjectId,m18,6d31382e-6b69-4636-9164-5f7063625858,rev?*%
%TF.SameCoordinates,Original*%
%TF.FileFunction,Copper,L2,Bot*%
%TF.FilePolarity,Positive*%
%FSLAX46Y46*%
G04 Gerber Fmt 4.6, Leading zero omitted, Abs format (unit mm)*
G04 Created by KiCad (PCBNEW 8.0.2) date 2026-04-27 19:27:05*
%MOMM*%
%LPD*%
G01*
G04 APERTURE LIST*
G04 Aperture macros list*
%AMRoundRect*
0 Rectangle with rounded corners*
0 $1 Rounding radius*
0 $2 $3 $4 $5 $6 $7 $8 $9 X,Y pos of 4 corners*
0 Add a 4 corners polygon primitive as box body*
4,1,4,$2,$3,$4,$5,$6,$7,$8,$9,$2,$3,0*
0 Add four circle primitives for the rounded corners*
1,1,$1+$1,$2,$3*
1,1,$1+$1,$4,$5*
1,1,$1+$1,$6,$7*
1,1,$1+$1,$8,$9*
0 Add four rect primitives between the rounded corners*
20,1,$1+$1,$2,$3,$4,$5,0*
20,1,$1+$1,$4,$5,$6,$7,0*
20,1,$1+$1,$6,$7,$8,$9,0*
20,1,$1+$1,$8,$9,$2,$3,0*%
G04 Aperture macros list end*
%TA.AperFunction,ComponentPad*%
%ADD10C,2.200000*%
%TD*%
%TA.AperFunction,ComponentPad*%
%ADD11R,1.700000X1.700000*%
%TD*%
%TA.AperFunction,ComponentPad*%
%ADD12O,1.700000X1.700000*%
%TD*%
%TA.AperFunction,ComponentPad*%
%ADD13RoundRect,0.381000X-0.762000X-0.381000X0.762000X-0.381000X0.762000X0.381000X-0.762000X0.381000X0*%
%TD*%
%TA.AperFunction,ComponentPad*%
%ADD14RoundRect,0.250000X-0.862000X-0.512000X0.862000X-0.512000X0.862000X0.512000X-0.862000X0.512000X0*%
%TD*%
%TA.AperFunction,ComponentPad*%
%ADD15C,2.000000*%
%TD*%
%TA.AperFunction,ComponentPad*%
%ADD16C,1.600000*%
%TD*%
%TA.AperFunction,ComponentPad*%
%ADD17O,1.600000X1.600000*%
%TD*%
%TA.AperFunction,ViaPad*%
%ADD18C,0.600000*%
%TD*%
%TA.AperFunction,Conductor*%
%ADD19C,0.330000*%
%TD*%
G04 APERTURE END LIST*
D10*
%TO.P,J3,1,+*%
%TO.N,Net-(J3-+)*%
X160000000Y-141200000D03*
X165080000Y-141200000D03*
%TO.P,J3,2,J1*%
%TO.N,Net-(J3-J1)*%
X160000000Y-135600000D03*
X165080000Y-135600000D03*
%TO.P,J3,3,J2*%
%TO.N,Net-(J3-J2)*%
X160000000Y-124400000D03*
X165080000Y-124400000D03*
%TO.P,J3,4,-*%
%TO.N,GND*%
X160000000Y-118800000D03*
X165080000Y-118800000D03*
%TD*%
D11*
%TO.P,J2,1,Pin_1*%
%TO.N,GND*%
X143159400Y-125629200D03*
D12*
%TO.P,J2,2,Pin_2*%
%TO.N,/Rx*%
X143159400Y-128169200D03*
%TO.P,J2,3,Pin_3*%
%TO.N,/Tx*%
X143159400Y-130709200D03*
%TO.P,J2,4,Pin_4*%
%TO.N,/3V3*%
X143159400Y-133249200D03*
%TD*%
D13*
%TO.P,U2,1,5_Mi*%
%TO.N,unconnected-(U2-5_Mi-Pad1)*%
X118450000Y-121030000D03*
%TO.P,U2,2,6_Mo*%
%TO.N,/6*%
X118450000Y-123570000D03*
D14*
%TO.P,U2,3,7_SS*%
%TO.N,/7*%
X118450000Y-126110000D03*
D13*
%TO.P,U2,4,8_Boot_SDA_Led*%
%TO.N,/8*%
X118450000Y-128650000D03*
%TO.P,U2,5,9_SCL*%
%TO.N,/9*%
X118450000Y-131190000D03*
%TO.P,U2,6,10*%
%TO.N,/10*%
X118450000Y-133730000D03*
%TO.P,U2,7,20_Tx*%
%TO.N,/Tx*%
X118450000Y-136270000D03*
D14*
%TO.P,U2,8,21_Rx*%
%TO.N,/Rx*%
X118450000Y-138810000D03*
%TO.P,U2,9,0*%
%TO.N,/Button*%
X133690000Y-138810000D03*
%TO.P,U2,10,1*%
%TO.N,unconnected-(U2-1-Pad10)_0*%
X133690000Y-136270000D03*
%TO.P,U2,11,2*%
%TO.N,/2*%
X133690000Y-133730000D03*
%TO.P,U2,12,3*%
%TO.N,/3*%
X133690000Y-131190000D03*
%TO.P,U2,13,4_Sck*%
%TO.N,/4*%
X133690000Y-128650000D03*
%TO.P,U2,14,3V3*%
%TO.N,/3V3*%
X133690000Y-126110000D03*
%TO.P,U2,15,GND*%
%TO.N,GND*%
X133690000Y-123570000D03*
%TO.P,U2,16,5V*%
%TO.N,Net-(U2-5V)*%
X133690000Y-121030000D03*
%TD*%
D15*
%TO.P,U1,1,GND*%
%TO.N,GND*%
X109800000Y-138920000D03*
%TO.P,U1,2,Vcc*%
%TO.N,/3V3*%
X109800000Y-136380000D03*
%TO.P,U1,3,Ck*%
%TO.N,/4*%
X109800000Y-133840000D03*
%TO.P,U1,4,Da*%
%TO.N,/6*%
X109800000Y-131300000D03*
%TO.P,U1,5,Rs*%
%TO.N,/3*%
X109800000Y-128760000D03*
%TO.P,U1,6,Dc*%
%TO.N,/2*%
X109800000Y-126220000D03*
%TO.P,U1,7,Cs*%
%TO.N,/7*%
X109800000Y-123680000D03*
%TO.P,U1,8,Bckl*%
%TO.N,/10*%
X109800000Y-121160000D03*
%TD*%
D16*
%TO.P,J1,1,Pin_1*%
%TO.N,GND*%
X133980000Y-113100000D03*
%TO.P,J1,2,Pin_2*%
%TO.N,/3V3*%
X136520000Y-113100000D03*
%TO.P,J1,3,Pin_3*%
%TO.N,/9*%
X139060000Y-113100000D03*
D17*
%TO.P,J1,4,Pin_4*%
%TO.N,/8*%
X141600000Y-113100000D03*
%TD*%
D15*
%TO.P,U3,1,Vin+*%
%TO.N,Net-(J3-+)*%
X160212500Y-146400000D03*
%TO.P,U3,2,Vin-*%
%TO.N,GND*%
X160212500Y-159700000D03*
%TO.P,U3,3,Vout-*%
X141912500Y-159700000D03*
%TO.P,U3,4,Vout+*%
%TO.N,Net-(U2-5V)*%
X141912500Y-146400000D03*
%TD*%
D18*
%TO.N,GND*%
X119380000Y-147320000D03*
X144780000Y-109220000D03*
X172720000Y-121513600D03*
X129540000Y-109220000D03*
X137160000Y-140970000D03*
X127000000Y-139700000D03*
X139700000Y-154940000D03*
X129540000Y-139954000D03*
X157327600Y-121564400D03*
X157480000Y-116840000D03*
X114300000Y-115570000D03*
X175260000Y-132080000D03*
X162560000Y-128270000D03*
X149860000Y-116840000D03*
X157480000Y-147320000D03*
X167640000Y-124460000D03*
X156006800Y-134620000D03*
X138430000Y-139700000D03*
X162560000Y-109220000D03*
X175260000Y-121920000D03*
X152400000Y-132080000D03*
X129540000Y-124460000D03*
X162560000Y-139700000D03*
X119380000Y-154940000D03*
X175260000Y-109220000D03*
X147320000Y-139700000D03*
X116840000Y-115570000D03*
X116840000Y-109220000D03*
X134620000Y-140970000D03*
X141800000Y-125700000D03*
X151668800Y-129560100D03*
X165100000Y-154940000D03*
X114300000Y-109220000D03*
X165100000Y-116840000D03*
X121920000Y-130810000D03*
X111760000Y-133350000D03*
X149860000Y-109220000D03*
X111760000Y-147320000D03*
X142240000Y-139700000D03*
X175260000Y-111760000D03*
X129540000Y-127000000D03*
X139700000Y-109220000D03*
X170180000Y-154940000D03*
X127000000Y-147320000D03*
X141427200Y-133451600D03*
X167640000Y-154940000D03*
X160020000Y-116840000D03*
X116840000Y-119380000D03*
X134620000Y-147320000D03*
X120650000Y-123190000D03*
X175260000Y-142240000D03*
X121920000Y-139700000D03*
X132080000Y-147320000D03*
X144780000Y-147320000D03*
X175260000Y-147320000D03*
X124460000Y-154940000D03*
X132080000Y-109220000D03*
X147320000Y-127635000D03*
X129540000Y-147320000D03*
X134620000Y-109220000D03*
X152400000Y-139700000D03*
X160020000Y-132080000D03*
X129540000Y-154940000D03*
X145000000Y-125700000D03*
X137160000Y-154940000D03*
X175260000Y-134620000D03*
X175260000Y-125069600D03*
X127000000Y-129540000D03*
X132080000Y-154940000D03*
X109220000Y-116840000D03*
X121920000Y-115570000D03*
X114046000Y-139903200D03*
X144780000Y-154940000D03*
X127000000Y-109220000D03*
X109220000Y-154940000D03*
X172720000Y-109220000D03*
X124460000Y-129540000D03*
X124460000Y-119380000D03*
X155834400Y-129530800D03*
X154940000Y-154940000D03*
X157480000Y-132080000D03*
X165100000Y-132080000D03*
X160020000Y-154940000D03*
X172720000Y-154940000D03*
X152400000Y-109220000D03*
X162560000Y-132080000D03*
X127000000Y-124460000D03*
X170180000Y-147320000D03*
X170180000Y-116840000D03*
X129540000Y-121920000D03*
X116840000Y-147320000D03*
X152400000Y-154940000D03*
X134620000Y-154940000D03*
X147320000Y-147320000D03*
X144780000Y-139700000D03*
X162560000Y-154940000D03*
X119380000Y-109220000D03*
X175260000Y-144780000D03*
X160020000Y-128270000D03*
X119380000Y-115570000D03*
X175260000Y-152400000D03*
X111963200Y-136601200D03*
X116840000Y-154940000D03*
X121920000Y-119380000D03*
X172720000Y-139700000D03*
X165100000Y-128270000D03*
X152400000Y-127000000D03*
X121920000Y-154940000D03*
X149860000Y-139700000D03*
X113030000Y-121920000D03*
X114300000Y-154940000D03*
X175260000Y-116840000D03*
X111658400Y-139954000D03*
X124460000Y-124460000D03*
X137160000Y-147320000D03*
X127000000Y-115570000D03*
X172720000Y-147320000D03*
X175260000Y-154940000D03*
X170281600Y-121462800D03*
X167843200Y-121361200D03*
X149860000Y-132715000D03*
X140970000Y-119380000D03*
X139700000Y-147320000D03*
X144780000Y-132080000D03*
X157480000Y-109220000D03*
X132080000Y-116840000D03*
X165100000Y-109220000D03*
X149860000Y-154940000D03*
X121920000Y-147320000D03*
X170180000Y-139700000D03*
X170180000Y-132080000D03*
X167640000Y-116840000D03*
X147320000Y-154940000D03*
X144322800Y-121412000D03*
X121920000Y-109220000D03*
X175260000Y-114300000D03*
X175260000Y-139700000D03*
X109220000Y-147320000D03*
X140970000Y-115570000D03*
X152857200Y-136347200D03*
X138430000Y-118110000D03*
X160020000Y-109220000D03*
X152400000Y-116840000D03*
X114300000Y-147320000D03*
X142240000Y-154940000D03*
X170180000Y-124460000D03*
X172720000Y-116840000D03*
X111760000Y-115570000D03*
X129540000Y-137160000D03*
X147320000Y-109220000D03*
X127000000Y-121920000D03*
X152400000Y-147320000D03*
X165100000Y-147320000D03*
X124460000Y-147320000D03*
X157480000Y-154940000D03*
X114300000Y-119380000D03*
X154940000Y-109220000D03*
X149860000Y-147320000D03*
X154940000Y-116840000D03*
X127000000Y-154940000D03*
X139700000Y-116840000D03*
X157480000Y-128270000D03*
X111760000Y-154940000D03*
X131673600Y-135026400D03*
X147320000Y-132080000D03*
X167640000Y-147320000D03*
X175260000Y-127000000D03*
X111760000Y-119380000D03*
X137160000Y-109220000D03*
X162560000Y-116840000D03*
X138430000Y-123190000D03*
X114300000Y-121920000D03*
X113995200Y-136499600D03*
X124460000Y-109220000D03*
X146685000Y-129540000D03*
X145415000Y-129540000D03*
X175260000Y-149860000D03*
X124460000Y-139700000D03*
X175260000Y-119380000D03*
X167640000Y-109220000D03*
X119380000Y-119380000D03*
X175260000Y-129540000D03*
X121920000Y-133350000D03*
X162560000Y-147320000D03*
X124460000Y-115570000D03*
X129540000Y-116840000D03*
X124460000Y-133350000D03*
X170180000Y-109220000D03*
X175260000Y-137160000D03*
X154940000Y-147320000D03*
X154940000Y-139700000D03*
X132080000Y-140970000D03*
X157480000Y-139700000D03*
%TO.N,/Tx*%
X137300000Y-132400000D03*
%TO.N,/Rx*%
X131100000Y-133700000D03*
%TO.N,/8*%
X125700000Y-119903000D03*
%TO.N,/9*%
X127900000Y-119100000D03*
%TO.N,/Button*%
X142100000Y-122700000D03*
X138800000Y-125700000D03*
%TO.N,/3*%
X130750000Y-131350000D03*
X111900000Y-131300000D03*
%TO.N,/6*%
X113800000Y-124500000D03*
%TO.N,/10*%
X111700000Y-127100000D03*
%TD*%
D19*
%TO.N,/Tx*%
X140714213Y-130400000D02*
X142631562Y-130400000D01*
X143004800Y-130554600D02*
X143159400Y-130709200D01*
X138300000Y-131400000D02*
X137300000Y-132400000D01*
X143004800Y-130554600D02*
G75*
G03*
X142631562Y-130400015I-373200J-373200D01*
G01*
X140714213Y-130400000D02*
G75*
G03*
X138299996Y-131399996I-13J-3414200D01*
G01*
%TO.N,/Rx*%
X142594000Y-128734600D02*
X143159400Y-128169200D01*
X137929227Y-130370771D02*
X137037436Y-131262563D01*
X140514300Y-129300000D02*
X141229003Y-129300000D01*
X131100000Y-133700000D02*
X131700000Y-133100000D01*
X134050000Y-132500000D02*
X133148528Y-132500000D01*
X142594000Y-128734600D02*
G75*
G02*
X141229003Y-129300002I-1365000J1365000D01*
G01*
X133148528Y-132500000D02*
G75*
G03*
X131699992Y-133099992I-28J-2048500D01*
G01*
X137037436Y-131262563D02*
G75*
G02*
X134050000Y-132499992I-2987436J2987463D01*
G01*
X140514300Y-129300000D02*
G75*
G03*
X137929237Y-130370781I0J-3655800D01*
G01*
%TO.N,/8*%
X125700000Y-119903000D02*
X132543036Y-119903000D01*
X136390792Y-118309207D02*
X141600000Y-113100000D01*
X136390792Y-118309207D02*
G75*
G02*
X132543036Y-119903010I-3847792J3847807D01*
G01*
%TO.N,/9*%
X127900000Y-119100000D02*
X130806036Y-119100000D01*
X134653792Y-117506207D02*
X139060000Y-113100000D01*
X134653792Y-117506207D02*
G75*
G02*
X130806036Y-119100010I-3847792J3847807D01*
G01*
%TO.N,/Button*%
X141693933Y-122806066D02*
X138800000Y-125700000D01*
X141950000Y-122700000D02*
X142100000Y-122700000D01*
X141950000Y-122700000D02*
G75*
G03*
X141693940Y-122806073I0J-362100D01*
G01*
%TO.N,/3*%
X112450000Y-131850000D02*
X111900000Y-131300000D01*
X113777817Y-132400000D02*
X128957537Y-132400000D01*
X130750000Y-131350000D02*
X130225000Y-131875000D01*
X112450000Y-131850000D02*
G75*
G03*
X113777817Y-132399993I1327800J1327800D01*
G01*
X130225000Y-131875000D02*
G75*
G02*
X128957537Y-132400016I-1267500J1267500D01*
G01*
%TO.N,/6*%
X113400000Y-126600000D02*
X113400000Y-125182842D01*
X110612131Y-131087867D02*
X112197918Y-129502081D01*
X110100000Y-131300000D02*
X109800000Y-131300000D01*
X113800000Y-124500000D02*
X113600000Y-124700000D01*
X110612131Y-131087867D02*
G75*
G02*
X110100000Y-131299988I-512131J512167D01*
G01*
X113600000Y-124700000D02*
G75*
G03*
X113400018Y-125182842I482800J-482800D01*
G01*
X113400000Y-126600000D02*
G75*
G02*
X112197926Y-129502089I-4104200J0D01*
G01*
%TO.N,/10*%
X111700000Y-124403502D02*
X111700000Y-127100000D01*
X110750000Y-122110000D02*
X109800000Y-121160000D01*
X110750000Y-122110000D02*
G75*
G02*
X111699999Y-124403502I-2293500J-2293500D01*
G01*
%TD*%
%TA.AperFunction,Conductor*%
%TO.N,GND*%
G36*
X123425682Y-99323069D02*
G01*
X123492689Y-99342849D01*
X123538368Y-99395718D01*
X123549500Y-99447068D01*
X123549500Y-99521288D01*
X123581161Y-99761785D01*
X123643947Y-99996104D01*
X123736773Y-100220205D01*
X123736776Y-100220212D01*
X123858064Y-100430289D01*
X123858066Y-100430292D01*
X123858067Y-100430293D01*
X124005733Y-100622736D01*
X124005739Y-100622743D01*
X124177256Y-100794260D01*
X124177262Y-100794265D01*
X124369711Y-100941936D01*
X124579788Y-101063224D01*
X124803900Y-101156054D01*
X125038211Y-101218838D01*
X125218586Y-101242584D01*
X125278711Y-101250500D01*
X125278712Y-101250500D01*
X125521289Y-101250500D01*
X125569388Y-101244167D01*
X125761789Y-101218838D01*
X125996100Y-101156054D01*
X126220212Y-101063224D01*
X126430289Y-100941936D01*
X126622738Y-100794265D01*
X126794265Y-100622738D01*
X126941936Y-100430289D01*
X127063224Y-100220212D01*
X127156054Y-99996100D01*
X127218838Y-99761789D01*
X127250500Y-99521288D01*
X127250500Y-99452718D01*
X127270185Y-99385679D01*
X127322989Y-99339924D01*
X127374671Y-99328719D01*
X171725681Y-99392168D01*
X171792689Y-99411948D01*
X171838368Y-99464817D01*
X171849500Y-99516167D01*
X171849500Y-99521288D01*
X171881161Y-99761785D01*
X171943947Y-99996104D01*
X172036773Y-100220205D01*
X172036776Y-100220212D01*
X172158064Y-100430289D01*
X172158066Y-100430292D01*
X172158067Y-100430293D01*
X172305733Y-100622736D01*
X172305739Y-100622743D01*
X172477256Y-100794260D01*
X172477262Y-100794265D01*
X172669711Y-100941936D01*
X172879788Y-101063224D01*
X173103900Y-101156054D01*
X173338211Y-101218838D01*
X173518586Y-101242584D01*
X173578711Y-101250500D01*
X173578712Y-101250500D01*
X173821289Y-101250500D01*
X173869388Y-101244167D01*
X174061789Y-101218838D01*
X174296100Y-101156054D01*
X174520212Y-101063224D01*
X174730289Y-100941936D01*
X174922738Y-100794265D01*
X175094265Y-100622738D01*
X175241936Y-100430289D01*
X175363224Y-100220212D01*
X175456054Y-99996100D01*
X175518838Y-99761789D01*
X175550500Y-99521288D01*
X175550500Y-99521282D01*
X175550766Y-99517237D01*
X175551824Y-99517306D01*
X175570185Y-99454778D01*
X175622989Y-99409023D01*
X175674673Y-99397817D01*
X177200000Y-99400000D01*
X177476000Y-99400000D01*
X177543039Y-99419685D01*
X177588794Y-99472489D01*
X177600000Y-99524000D01*
X177600000Y-103900068D01*
X177685293Y-128251471D01*
X177665844Y-128318579D01*
X177613200Y-128364518D01*
X177597157Y-128370164D01*
X177597280Y-128370568D01*
X177591447Y-128372337D01*
X177477616Y-128419487D01*
X177477607Y-128419492D01*
X177375167Y-128487941D01*
X177375163Y-128487944D01*
X177288044Y-128575063D01*
X177288041Y-128575067D01*
X177219592Y-128677507D01*
X177219587Y-128677516D01*
X177172438Y-128791345D01*
X177172435Y-128791355D01*
X177148400Y-128912189D01*
X177148400Y-129035410D01*
X177172435Y-129156244D01*
X177172438Y-129156254D01*
X177219587Y-129270083D01*
X177219592Y-129270092D01*
X177288041Y-129372532D01*
X177288044Y-129372536D01*
X177375163Y-129459655D01*
X177375167Y-129459658D01*
X177477607Y-129528107D01*
X177477613Y-129528110D01*
X177477614Y-129528111D01*
X177591448Y-129575263D01*
X177591458Y-129575265D01*
X177597278Y-129577031D01*
X177596864Y-129578393D01*
X177652442Y-129607453D01*
X177687027Y-129668163D01*
X177690354Y-129696266D01*
X177692994Y-130449939D01*
X177673545Y-130517047D01*
X177620901Y-130562986D01*
X177593198Y-130571988D01*
X177591457Y-130572334D01*
X177591447Y-130572337D01*
X177477616Y-130619487D01*
X177477607Y-130619492D01*
X177375167Y-130687941D01*
X177375163Y-130687944D01*
X177288044Y-130775063D01*
X177288041Y-130775067D01*
X177219592Y-130877507D01*
X177219587Y-130877516D01*
X177172438Y-130991345D01*
X177172435Y-130991355D01*
X177148400Y-131112189D01*
X177148400Y-131235410D01*
X177172435Y-131356244D01*
X177172438Y-131356254D01*
X177219587Y-131470083D01*
X177219592Y-131470092D01*
X177288041Y-131572532D01*
X177288044Y-131572536D01*
X177375163Y-131659655D01*
X177375167Y-131659658D01*
X177477607Y-131728107D01*
X177477613Y-131728110D01*
X177477614Y-131728111D01*
X177591448Y-131775263D01*
X177598254Y-131776616D01*
X177660164Y-131808997D01*
X177694741Y-131869711D01*
X177698065Y-131897800D01*
X177799564Y-160875566D01*
X177780115Y-160942674D01*
X177727471Y-160988613D01*
X177675565Y-161000000D01*
X175655202Y-161000000D01*
X175588163Y-160980315D01*
X175542408Y-160927511D01*
X175532263Y-160859815D01*
X175550500Y-160721288D01*
X175550500Y-160478711D01*
X175542292Y-160416364D01*
X175518838Y-160238211D01*
X175456054Y-160003900D01*
X175363224Y-159779788D01*
X175241936Y-159569711D01*
X175094265Y-159377262D01*
X175094260Y-159377256D01*
X174922743Y-159205739D01*
X174922736Y-159205733D01*
X174730293Y-159058067D01*
X174730292Y-159058066D01*
X174730289Y-159058064D01*
X174520212Y-158936776D01*
X174520205Y-158936773D01*
X174296104Y-158843947D01*
X174061785Y-158781161D01*
X173821289Y-158749500D01*
X173821288Y-158749500D01*
X173578712Y-158749500D01*
X173578711Y-158749500D01*
X173338214Y-158781161D01*
X173103895Y-158843947D01*
X172879794Y-158936773D01*
X172879785Y-158936777D01*
X172669706Y-159058067D01*
X172477263Y-159205733D01*
X172477256Y-159205739D01*
X172305739Y-159377256D01*
X172305733Y-159377263D01*
X172158067Y-159569706D01*
X172036777Y-159779785D01*
X172036773Y-159779794D01*
X171943947Y-160003895D01*
X171881161Y-160238214D01*
X171849500Y-160478711D01*
X171849500Y-160721288D01*
X171867737Y-160859815D01*
X171856971Y-160928850D01*
X171810591Y-160981106D01*
X171744798Y-161000000D01*
X161209751Y-161000000D01*
X161142712Y-160980315D01*
X161125178Y-160960080D01*
X161122103Y-160963156D01*
X160423559Y-160264612D01*
X160444091Y-160259111D01*
X160580908Y-160180119D01*
X160692619Y-160068408D01*
X160771611Y-159931591D01*
X160777112Y-159911060D01*
X161435934Y-160569882D01*
X161536231Y-160416369D01*
X161636087Y-160188717D01*
X161697112Y-159947738D01*
X161697114Y-159947729D01*
X161717641Y-159700005D01*
X161717641Y-159699994D01*
X161697114Y-159452270D01*
X161697112Y-159452261D01*
X161636087Y-159211282D01*
X161536231Y-158983630D01*
X161435934Y-158830116D01*
X160777112Y-159488939D01*
X160771611Y-159468409D01*
X160692619Y-159331592D01*
X160580908Y-159219881D01*
X160444091Y-159140889D01*
X160423560Y-159135387D01*
X161082557Y-158476390D01*
X161082556Y-158476389D01*
X161035729Y-158439943D01*
X160817114Y-158321635D01*
X160817103Y-158321630D01*
X160581993Y-158240916D01*
X160336793Y-158200000D01*
X160088207Y-158200000D01*
X159843006Y-158240916D01*
X159607896Y-158321630D01*
X159607890Y-158321632D01*
X159389261Y-158439949D01*
X159342442Y-158476388D01*
X159342442Y-158476390D01*
X160001440Y-159135387D01*
X159980909Y-159140889D01*
X159844092Y-159219881D01*
X159732381Y-159331592D01*
X159653389Y-159468409D01*
X159647887Y-159488939D01*
X158989064Y-158830116D01*
X158888767Y-158983632D01*
X158788912Y-159211282D01*
X158727887Y-159452261D01*
X158727885Y-159452270D01*
X158707359Y-159699994D01*
X158707359Y-159700005D01*
X158727885Y-159947729D01*
X158727887Y-159947738D01*
X158788912Y-160188717D01*
X158888766Y-160416364D01*
X158989064Y-160569882D01*
X159647887Y-159911059D01*
X159653389Y-159931591D01*
X159732381Y-160068408D01*
X159844092Y-160180119D01*
X159980909Y-160259111D01*
X160001440Y-160264612D01*
X159302896Y-160963156D01*
X159299628Y-160959888D01*
X159273734Y-160985341D01*
X159215248Y-161000000D01*
X142909751Y-161000000D01*
X142842712Y-160980315D01*
X142825178Y-160960080D01*
X142822103Y-160963156D01*
X142123559Y-160264612D01*
X142144091Y-160259111D01*
X142280908Y-160180119D01*
X142392619Y-160068408D01*
X142471611Y-159931591D01*
X142477112Y-159911060D01*
X143135934Y-160569882D01*
X143236231Y-160416369D01*
X143336087Y-160188717D01*
X143397112Y-159947738D01*
X143397114Y-159947729D01*
X143417641Y-159700005D01*
X143417641Y-159699994D01*
X143397114Y-159452270D01*
X143397112Y-159452261D01*
X143336087Y-159211282D01*
X143236231Y-158983630D01*
X143135934Y-158830116D01*
X142477112Y-159488939D01*
X142471611Y-159468409D01*
X142392619Y-159331592D01*
X142280908Y-159219881D01*
X142144091Y-159140889D01*
X142123560Y-159135387D01*
X142782557Y-158476390D01*
X142782556Y-158476389D01*
X142735729Y-158439943D01*
X142517114Y-158321635D01*
X142517103Y-158321630D01*
X142281993Y-158240916D01*
X142036793Y-158200000D01*
X141788207Y-158200000D01*
X141543006Y-158240916D01*
X141307896Y-158321630D01*
X141307890Y-158321632D01*
X141089261Y-158439949D01*
X141042442Y-158476388D01*
X141042442Y-158476390D01*
X141701440Y-159135387D01*
X141680909Y-159140889D01*
X141544092Y-159219881D01*
X141432381Y-159331592D01*
X141353389Y-159468409D01*
X141347887Y-159488939D01*
X140689064Y-158830116D01*
X140588767Y-158983632D01*
X140488912Y-159211282D01*
X140427887Y-159452261D01*
X140427885Y-159452270D01*
X140407359Y-159699994D01*
X140407359Y-159700005D01*
X140427885Y-159947729D01*
X140427887Y-159947738D01*
X140488912Y-160188717D01*
X140588766Y-160416364D01*
X140689064Y-160569882D01*
X141347887Y-159911059D01*
X141353389Y-159931591D01*
X141432381Y-160068408D01*
X141544092Y-160180119D01*
X141680909Y-160259111D01*
X141701440Y-160264612D01*
X141002896Y-160963156D01*
X140999628Y-160959888D01*
X140973734Y-160985341D01*
X140915248Y-161000000D01*
X127355202Y-161000000D01*
X127288163Y-160980315D01*
X127242408Y-160927511D01*
X127232263Y-160859815D01*
X127250500Y-160721288D01*
X127250500Y-160478711D01*
X127242292Y-160416364D01*
X127218838Y-160238211D01*
X127156054Y-160003900D01*
X127063224Y-159779788D01*
X126941936Y-159569711D01*
X126794265Y-159377262D01*
X126794260Y-159377256D01*
X126622743Y-159205739D01*
X126622736Y-159205733D01*
X126430293Y-159058067D01*
X126430292Y-159058066D01*
X126430289Y-159058064D01*
X126220212Y-158936776D01*
X126220205Y-158936773D01*
X125996104Y-158843947D01*
X125761785Y-158781161D01*
X125521289Y-158749500D01*
X125521288Y-158749500D01*
X125278712Y-158749500D01*
X125278711Y-158749500D01*
X125038214Y-158781161D01*
X124803895Y-158843947D01*
X124579794Y-158936773D01*
X124579785Y-158936777D01*
X124369706Y-159058067D01*
X124177263Y-159205733D01*
X124177256Y-159205739D01*
X124005739Y-159377256D01*
X124005733Y-159377263D01*
X123858067Y-159569706D01*
X123736777Y-159779785D01*
X123736773Y-159779794D01*
X123643947Y-160003895D01*
X123581161Y-160238214D01*
X123549500Y-160478711D01*
X123549500Y-160721288D01*
X123567737Y-160859815D01*
X123556971Y-160928850D01*
X123510591Y-160981106D01*
X123444798Y-161000000D01*
X107824500Y-161000000D01*
X107757461Y-160980315D01*
X107711706Y-160927511D01*
X107700500Y-160876000D01*
X107700500Y-150878711D01*
X108749500Y-150878711D01*
X108749500Y-151121288D01*
X108781161Y-151361785D01*
X108843947Y-151596104D01*
X108936773Y-151820205D01*
X108936776Y-151820212D01*
X109058064Y-152030289D01*
X109058066Y-152030292D01*
X109058067Y-152030293D01*
X109205733Y-152222736D01*
X109205739Y-152222743D01*
X109377256Y-152394260D01*
X109377262Y-152394265D01*
X109569711Y-152541936D01*
X109779788Y-152663224D01*
X110003900Y-152756054D01*
X110238211Y-152818838D01*
X110418586Y-152842584D01*
X110478711Y-152850500D01*
X110478712Y-152850500D01*
X110721289Y-152850500D01*
X110769388Y-152844167D01*
X110961789Y-152818838D01*
X111196100Y-152756054D01*
X111420212Y-152663224D01*
X111630289Y-152541936D01*
X111822738Y-152394265D01*
X111994265Y-152222738D01*
X112141936Y-152030289D01*
X112263224Y-151820212D01*
X112356054Y-151596100D01*
X112418838Y-151361789D01*
X112450500Y-151121288D01*
X112450500Y-150878712D01*
X112418838Y-150638211D01*
X112356054Y-150403900D01*
X112263224Y-150179788D01*
X112141936Y-149969711D01*
X111994265Y-149777262D01*
X111994260Y-149777256D01*
X111822743Y-149605739D01*
X111822736Y-149605733D01*
X111630293Y-149458067D01*
X111630292Y-149458066D01*
X111630289Y-149458064D01*
X111420212Y-149336776D01*
X111420205Y-149336773D01*
X111196104Y-149243947D01*
X110961785Y-149181161D01*
X110721289Y-149149500D01*
X110721288Y-149149500D01*
X110478712Y-149149500D01*
X110478711Y-149149500D01*
X110238214Y-149181161D01*
X110003895Y-149243947D01*
X109779794Y-149336773D01*
X109779785Y-149336777D01*
X109569706Y-149458067D01*
X109377263Y-149605733D01*
X109377256Y-149605739D01*
X109205739Y-149777256D01*
X109205733Y-149777263D01*
X109058067Y-149969706D01*
X108936777Y-150179785D01*
X108936773Y-150179794D01*
X108843947Y-150403895D01*
X108781161Y-150638214D01*
X108749500Y-150878711D01*
X107700500Y-150878711D01*
X107700500Y-146399994D01*
X140406857Y-146399994D01*
X140406857Y-146400005D01*
X140427390Y-146647812D01*
X140427392Y-146647824D01*
X140488436Y-146888881D01*
X140588326Y-147116606D01*
X140724333Y-147324782D01*
X140724336Y-147324785D01*
X140892756Y-147507738D01*
X141088991Y-147660474D01*
X141307690Y-147778828D01*
X141542886Y-147859571D01*
X141788165Y-147900500D01*
X142036835Y-147900500D01*
X142282114Y-147859571D01*
X142517310Y-147778828D01*
X142736009Y-147660474D01*
X142932244Y-147507738D01*
X143100664Y-147324785D01*
X143236673Y-147116607D01*
X143336563Y-146888881D01*
X143397608Y-146647821D01*
X143418143Y-146400000D01*
X143418143Y-146399994D01*
X158706857Y-146399994D01*
X158706857Y-146400005D01*
X158727390Y-146647812D01*
X158727392Y-146647824D01*
X158788436Y-146888881D01*
X158888326Y-147116606D01*
X159024333Y-147324782D01*
X159024336Y-147324785D01*
X159192756Y-147507738D01*
X159388991Y-147660474D01*
X159607690Y-147778828D01*
X159842886Y-147859571D01*
X160088165Y-147900500D01*
X160336835Y-147900500D01*
X160582114Y-147859571D01*
X160817310Y-147778828D01*
X161036009Y-147660474D01*
X161232244Y-147507738D01*
X161400664Y-147324785D01*
X161536673Y-147116607D01*
X161636563Y-146888881D01*
X161697608Y-146647821D01*
X161718143Y-146400000D01*
X161697608Y-146152179D01*
X161636563Y-145911119D01*
X161536673Y-145683393D01*
X161400666Y-145475217D01*
X161379057Y-145451744D01*
X161232244Y-145292262D01*
X161036009Y-145139526D01*
X161036007Y-145139525D01*
X161036006Y-145139524D01*
X160817311Y-145021172D01*
X160817302Y-145021169D01*
X160582116Y-144940429D01*
X160336835Y-144899500D01*
X160088165Y-144899500D01*
X159842883Y-144940429D01*
X159607697Y-145021169D01*
X159607688Y-145021172D01*
X159388993Y-145139524D01*
X159192757Y-145292261D01*
X159024333Y-145475217D01*
X158888326Y-145683393D01*
X158788436Y-145911118D01*
X158727392Y-146152175D01*
X158727390Y-146152187D01*
X158706857Y-146399994D01*
X143418143Y-146399994D01*
X143397608Y-146152179D01*
X143336563Y-145911119D01*
X143236673Y-145683393D01*
X143100666Y-145475217D01*
X143079057Y-145451744D01*
X142932244Y-145292262D01*
X142736009Y-145139526D01*
X142736007Y-145139525D01*
X142736006Y-145139524D01*
X142517311Y-145021172D01*
X142517302Y-145021169D01*
X142282116Y-144940429D01*
X142036835Y-144899500D01*
X141788165Y-144899500D01*
X141542883Y-144940429D01*
X141307697Y-145021169D01*
X141307688Y-145021172D01*
X141088993Y-145139524D01*
X140892757Y-145292261D01*
X140724333Y-145475217D01*
X140588326Y-145683393D01*
X140488436Y-145911118D01*
X140427392Y-146152175D01*
X140427390Y-146152187D01*
X140406857Y-146399994D01*
X107700500Y-146399994D01*
X107700500Y-141200000D01*
X158394551Y-141200000D01*
X158414317Y-141451151D01*
X158473126Y-141696110D01*
X158569533Y-141928859D01*
X158701160Y-142143653D01*
X158701161Y-142143656D01*
X158701164Y-142143659D01*
X158864776Y-142335224D01*
X159013066Y-142461875D01*
X159056343Y-142498838D01*
X159056346Y-142498839D01*
X159271140Y-142630466D01*
X159503889Y-142726873D01*
X159748852Y-142785683D01*
X160000000Y-142805449D01*
X160251148Y-142785683D01*
X160496111Y-142726873D01*
X160728859Y-142630466D01*
X160943659Y-142498836D01*
X161135224Y-142335224D01*
X161298836Y-142143659D01*
X161430466Y-141928859D01*
X161526873Y-141696111D01*
X161585683Y-141451148D01*
X161605449Y-141200000D01*
X163474551Y-141200000D01*
X163494317Y-141451151D01*
X163553126Y-141696110D01*
X163649533Y-141928859D01*
X163781160Y-142143653D01*
X163781161Y-142143656D01*
X163781164Y-142143659D01*
X163944776Y-142335224D01*
X164093066Y-142461875D01*
X164136343Y-142498838D01*
X164136346Y-142498839D01*
X164351140Y-142630466D01*
X164583889Y-142726873D01*
X164828852Y-142785683D01*
X165080000Y-142805449D01*
X165331148Y-142785683D01*
X165576111Y-142726873D01*
X165808859Y-142630466D01*
X166023659Y-142498836D01*
X166215224Y-142335224D01*
X166378836Y-142143659D01*
X166510466Y-141928859D01*
X166606873Y-141696111D01*
X166665683Y-141451148D01*
X166685449Y-141200000D01*
X166665683Y-140948852D01*
X166606873Y-140703889D01*
X166510466Y-140471141D01*
X166510466Y-140471140D01*
X166378839Y-140256346D01*
X166378838Y-140256343D01*
X166313678Y-140180051D01*
X166215224Y-140064776D01*
X166039522Y-139914712D01*
X166023656Y-139901161D01*
X166023653Y-139901160D01*
X165808859Y-139769533D01*
X165576110Y-139673126D01*
X165331151Y-139614317D01*
X165080000Y-139594551D01*
X164828848Y-139614317D01*
X164583889Y-139673126D01*
X164351140Y-139769533D01*
X164136346Y-139901160D01*
X164136343Y-139901161D01*
X163944776Y-140064776D01*
X163781161Y-140256343D01*
X163781160Y-140256346D01*
X163649533Y-140471140D01*
X163553126Y-140703889D01*
X163494317Y-140948848D01*
X163474551Y-141200000D01*
X161605449Y-141200000D01*
X161585683Y-140948852D01*
X161526873Y-140703889D01*
X161430466Y-140471141D01*
X161430466Y-140471140D01*
X161298839Y-140256346D01*
X161298838Y-140256343D01*
X161233678Y-140180051D01*
X161135224Y-140064776D01*
X160959522Y-139914712D01*
X160943656Y-139901161D01*
X160943653Y-139901160D01*
X160728859Y-139769533D01*
X160496110Y-139673126D01*
X160251151Y-139614317D01*
X160000000Y-139594551D01*
X159748848Y-139614317D01*
X159503889Y-139673126D01*
X159271140Y-139769533D01*
X159056346Y-139901160D01*
X159056343Y-139901161D01*
X158864776Y-140064776D01*
X158701161Y-140256343D01*
X158701160Y-140256346D01*
X158569533Y-140471140D01*
X158473126Y-140703889D01*
X158414317Y-140948848D01*
X158394551Y-141200000D01*
X107700500Y-141200000D01*
X107700500Y-121159994D01*
X108294357Y-121159994D01*
X108294357Y-121160005D01*
X108314890Y-121407812D01*
X108314892Y-121407824D01*
X108375936Y-121648881D01*
X108475826Y-121876606D01*
X108611833Y-122084782D01*
X108611836Y-122084785D01*
X108780256Y-122267738D01*
X108850160Y-122322147D01*
X108890973Y-122378857D01*
X108894648Y-122448630D01*
X108860016Y-122509313D01*
X108850165Y-122517848D01*
X108846439Y-122520750D01*
X108780257Y-122572261D01*
X108611833Y-122755217D01*
X108475826Y-122963393D01*
X108375936Y-123191118D01*
X108314892Y-123432175D01*
X108314890Y-123432187D01*
X108294357Y-123679994D01*
X108294357Y-123680005D01*
X108314890Y-123927812D01*
X108314892Y-123927824D01*
X108375936Y-124168881D01*
X108475826Y-124396606D01*
X108611833Y-124604782D01*
X108611836Y-124604785D01*
X108780256Y-124787738D01*
X108863008Y-124852147D01*
X108903821Y-124908857D01*
X108907496Y-124978630D01*
X108872864Y-125039313D01*
X108863014Y-125047848D01*
X108834318Y-125070184D01*
X108780257Y-125112261D01*
X108611833Y-125295217D01*
X108475826Y-125503393D01*
X108375936Y-125731118D01*
X108314892Y-125972175D01*
X108314890Y-125972187D01*
X108294357Y-126219994D01*
X108294357Y-126220005D01*
X108314890Y-126467812D01*
X108314892Y-126467824D01*
X108375936Y-126708881D01*
X108475826Y-126936606D01*
X108611833Y-127144782D01*
X108632331Y-127167049D01*
X108780256Y-127327738D01*
X108863008Y-127392147D01*
X108903821Y-127448857D01*
X108907496Y-127518630D01*
X108872864Y-127579313D01*
X108863014Y-127587848D01*
X108844496Y-127602262D01*
X108780257Y-127652261D01*
X108611833Y-127835217D01*
X108475826Y-128043393D01*
X108375936Y-128271118D01*
X108314892Y-128512175D01*
X108314890Y-128512187D01*
X108294357Y-128759994D01*
X108294357Y-128760005D01*
X108314890Y-129007812D01*
X108314892Y-129007824D01*
X108375936Y-129248881D01*
X108475826Y-129476606D01*
X108611833Y-129684782D01*
X108611836Y-129684785D01*
X108780256Y-129867738D01*
X108863008Y-129932147D01*
X108903821Y-129988857D01*
X108907496Y-130058630D01*
X108872864Y-130119313D01*
X108863014Y-130127848D01*
X108804400Y-130173469D01*
X108780257Y-130192261D01*
X108611833Y-130375217D01*
X108475826Y-130583393D01*
X108375936Y-130811118D01*
X108314892Y-131052175D01*
X108314890Y-131052187D01*
X108294357Y-131299994D01*
X108294357Y-131300005D01*
X108314890Y-131547812D01*
X108314892Y-131547824D01*
X108375936Y-131788881D01*
X108475826Y-132016606D01*
X108611833Y-132224782D01*
X108611836Y-132224785D01*
X108780256Y-132407738D01*
X108863008Y-132472147D01*
X108903821Y-132528857D01*
X108907496Y-132598630D01*
X108872864Y-132659313D01*
X108863014Y-132667848D01*
X108853342Y-132675377D01*
X108780257Y-132732261D01*
X108611833Y-132915217D01*
X108475826Y-133123393D01*
X108375936Y-133351118D01*
X108314892Y-133592175D01*
X108314890Y-133592187D01*
X108294357Y-133839994D01*
X108294357Y-133840005D01*
X108314890Y-134087812D01*
X108314892Y-134087824D01*
X108375936Y-134328881D01*
X108475826Y-134556606D01*
X108611833Y-134764782D01*
X108611836Y-134764785D01*
X108780256Y-134947738D01*
X108863008Y-135012147D01*
X108903821Y-135068857D01*
X108907496Y-135138630D01*
X108872864Y-135199313D01*
X108863014Y-135207848D01*
X108804400Y-135253469D01*
X108780257Y-135272261D01*
X108611833Y-135455217D01*
X108475826Y-135663393D01*
X108375936Y-135891118D01*
X108314892Y-136132175D01*
X108314890Y-136132187D01*
X108294357Y-136379994D01*
X108294357Y-136380005D01*
X108314890Y-136627812D01*
X108314892Y-136627824D01*
X108375936Y-136868881D01*
X108475826Y-137096606D01*
X108611833Y-137304782D01*
X108611836Y-137304785D01*
X108780256Y-137487738D01*
X108780259Y-137487740D01*
X108780262Y-137487743D01*
X108863415Y-137552464D01*
X108904228Y-137609174D01*
X108907903Y-137678947D01*
X108873271Y-137739630D01*
X108863416Y-137748170D01*
X108780597Y-137812630D01*
X108780592Y-137812635D01*
X108612232Y-137995521D01*
X108476267Y-138203632D01*
X108376411Y-138431283D01*
X108315960Y-138670000D01*
X109366988Y-138670000D01*
X109334075Y-138727007D01*
X109300000Y-138854174D01*
X109300000Y-138985826D01*
X109334075Y-139112993D01*
X109366988Y-139170000D01*
X108315960Y-139170000D01*
X108376411Y-139408716D01*
X108476267Y-139636367D01*
X108612232Y-139844478D01*
X108780592Y-140027364D01*
X108780602Y-140027373D01*
X108976762Y-140180051D01*
X108976771Y-140180057D01*
X109195385Y-140298364D01*
X109195396Y-140298369D01*
X109430507Y-140379083D01*
X109549999Y-140399023D01*
X109550000Y-140399022D01*
X109550000Y-139353012D01*
X109607007Y-139385925D01*
X109734174Y-139420000D01*
X109865826Y-139420000D01*
X109992993Y-139385925D01*
X110050000Y-139353012D01*
X110050000Y-140399023D01*
X110169492Y-140379083D01*
X110404603Y-140298369D01*
X110404614Y-140298364D01*
X110623228Y-140180057D01*
X110623237Y-140180051D01*
X110819397Y-140027373D01*
X110819407Y-140027364D01*
X110987767Y-139844478D01*
X111123732Y-139636367D01*
X111223588Y-139408716D01*
X111284040Y-139170000D01*
X110233012Y-139170000D01*
X110265925Y-139112993D01*
X110300000Y-138985826D01*
X110300000Y-138854174D01*
X110265925Y-138727007D01*
X110233012Y-138670000D01*
X111284040Y-138670000D01*
X111223588Y-138431283D01*
X111123732Y-138203632D01*
X110987767Y-137995521D01*
X110819407Y-137812635D01*
X110819397Y-137812626D01*
X110736584Y-137748170D01*
X110695771Y-137691460D01*
X110692096Y-137621687D01*
X110726728Y-137561004D01*
X110736571Y-137552473D01*
X110819744Y-137487738D01*
X110988164Y-137304785D01*
X111124173Y-137096607D01*
X111224063Y-136868881D01*
X111285108Y-136627821D01*
X111292082Y-136543656D01*
X111305643Y-136380005D01*
X111305643Y-136379994D01*
X111285109Y-136132187D01*
X111285107Y-136132175D01*
X111224063Y-135891118D01*
X111124173Y-135663393D01*
X110988166Y-135455217D01*
X110947878Y-135411453D01*
X110819744Y-135272262D01*
X110736991Y-135207852D01*
X110696179Y-135151143D01*
X110692504Y-135081370D01*
X110727136Y-135020687D01*
X110736985Y-135012151D01*
X110819744Y-134947738D01*
X110988164Y-134764785D01*
X111124173Y-134556607D01*
X111224063Y-134328881D01*
X111285108Y-134087821D01*
X111287415Y-134059983D01*
X111305643Y-133840005D01*
X111305643Y-133839994D01*
X111285109Y-133592187D01*
X111285107Y-133592175D01*
X111224063Y-133351118D01*
X111124173Y-133123393D01*
X110988166Y-132915217D01*
X110943565Y-132866768D01*
X110819744Y-132732262D01*
X110736991Y-132667852D01*
X110696179Y-132611143D01*
X110692504Y-132541370D01*
X110727136Y-132480687D01*
X110736985Y-132472151D01*
X110819744Y-132407738D01*
X110988164Y-132224785D01*
X111124173Y-132016607D01*
X111161141Y-131932327D01*
X111206096Y-131878842D01*
X111272832Y-131858151D01*
X111340160Y-131876825D01*
X111362378Y-131894456D01*
X111397738Y-131929816D01*
X111488523Y-131986860D01*
X111550478Y-132025789D01*
X111727318Y-132087668D01*
X111726505Y-132089991D01*
X111776406Y-132117565D01*
X111926399Y-132267558D01*
X111943096Y-132284255D01*
X111943109Y-132284279D01*
X111979415Y-132320584D01*
X111979415Y-132320585D01*
X112080412Y-132421581D01*
X112303751Y-132599687D01*
X112542212Y-132749521D01*
X112545632Y-132751670D01*
X112802991Y-132875606D01*
X112802995Y-132875608D01*
X112802998Y-132875609D01*
X113072629Y-132969956D01*
X113072635Y-132969957D01*
X113072637Y-132969958D01*
X113183616Y-132995287D01*
X113351128Y-133033519D01*
X113351135Y-133033519D01*
X113351142Y-133033521D01*
X113490753Y-133049250D01*
X113634993Y-133065501D01*
X113777823Y-133065500D01*
X116691539Y-133065500D01*
X116758578Y-133085185D01*
X116804333Y-133137989D01*
X116814277Y-133207147D01*
X116811873Y-133219429D01*
X116809419Y-133229292D01*
X116806500Y-133272345D01*
X116806500Y-134187656D01*
X116806501Y-134187659D01*
X116809418Y-134230701D01*
X116809418Y-134230702D01*
X116855694Y-134416778D01*
X116940881Y-134588543D01*
X116940883Y-134588546D01*
X117061009Y-134737989D01*
X117061010Y-134737990D01*
X117210453Y-134858116D01*
X117272547Y-134888912D01*
X117323859Y-134936333D01*
X117341388Y-135003968D01*
X117319569Y-135070343D01*
X117272547Y-135111088D01*
X117210453Y-135141883D01*
X117061010Y-135262009D01*
X117061009Y-135262010D01*
X116940883Y-135411453D01*
X116940881Y-135411456D01*
X116855694Y-135583221D01*
X116809419Y-135769291D01*
X116806500Y-135812345D01*
X116806500Y-136727656D01*
X116806501Y-136727659D01*
X116809418Y-136770701D01*
X116809418Y-136770702D01*
X116855694Y-136956778D01*
X116940881Y-137128543D01*
X116940883Y-137128546D01*
X116986811Y-137185682D01*
X117061010Y-137277990D01*
X117210453Y-137398116D01*
X117235776Y-137410675D01*
X117287088Y-137458094D01*
X117304619Y-137525729D01*
X117282800Y-137592105D01*
X117245779Y-137627301D01*
X117119347Y-137705285D01*
X117119343Y-137705288D01*
X116995289Y-137829342D01*
X116903187Y-137978663D01*
X116903186Y-137978666D01*
X116848001Y-138145203D01*
X116848001Y-138145204D01*
X116848000Y-138145204D01*
X116837500Y-138247983D01*
X116837500Y-139372001D01*
X116837501Y-139372018D01*
X116848000Y-139474796D01*
X116848001Y-139474799D01*
X116894233Y-139614317D01*
X116903186Y-139641334D01*
X116995288Y-139790656D01*
X117119344Y-139914712D01*
X117268666Y-140006814D01*
X117435203Y-140061999D01*
X117537991Y-140072500D01*
X119362008Y-140072499D01*
X119464797Y-140061999D01*
X119631334Y-140006814D01*
X119780656Y-139914712D01*
X119904712Y-139790656D01*
X119996814Y-139641334D01*
X120051999Y-139474797D01*
X120062500Y-139372009D01*
X120062499Y-138247992D01*
X120051999Y-138145203D01*
X119996814Y-137978666D01*
X119904712Y-137829344D01*
X119780656Y-137705288D01*
X119654220Y-137627302D01*
X119607496Y-137575354D01*
X119596273Y-137506391D01*
X119624117Y-137442309D01*
X119664222Y-137410675D01*
X119689547Y-137398116D01*
X119838990Y-137277990D01*
X119959116Y-137128547D01*
X120044307Y-136956775D01*
X120090581Y-136770704D01*
X120093500Y-136727657D01*
X120093499Y-135812344D01*
X120090581Y-135769296D01*
X120044307Y-135583225D01*
X119980820Y-135455215D01*
X119959118Y-135411456D01*
X119959116Y-135411453D01*
X119838990Y-135262010D01*
X119838989Y-135262009D01*
X119689546Y-135141883D01*
X119689543Y-135141881D01*
X119627453Y-135111088D01*
X119576140Y-135063667D01*
X119558610Y-134996032D01*
X119580430Y-134929657D01*
X119627453Y-134888912D01*
X119689543Y-134858118D01*
X119689543Y-134858117D01*
X119689547Y-134858116D01*
X119838990Y-134737990D01*
X119959116Y-134588547D01*
X120044307Y-134416775D01*
X120090581Y-134230704D01*
X120093500Y-134187657D01*
X120093499Y-133272344D01*
X120090581Y-133229296D01*
X120088127Y-133219428D01*
X120091049Y-133149620D01*
X120131248Y-133092473D01*
X120195962Y-133066132D01*
X120208461Y-133065500D01*
X128875766Y-133065500D01*
X128875802Y-133065501D01*
X128882563Y-133065501D01*
X128882567Y-133065502D01*
X128906172Y-133065501D01*
X128906222Y-133065515D01*
X128957551Y-133065514D01*
X128957551Y-133065515D01*
X129095577Y-133065512D01*
X129095589Y-133065512D01*
X129171275Y-133056982D01*
X129369921Y-133034597D01*
X129639069Y-132973162D01*
X129899647Y-132881978D01*
X130148378Y-132762193D01*
X130382133Y-132615313D01*
X130597973Y-132443185D01*
X130643380Y-132397776D01*
X130643388Y-132397770D01*
X130649227Y-132391930D01*
X130649232Y-132391928D01*
X130873593Y-132167565D01*
X130923496Y-132139995D01*
X130922682Y-132137668D01*
X130980127Y-132117567D01*
X131099522Y-132075789D01*
X131252262Y-131979816D01*
X131379816Y-131852262D01*
X131475789Y-131699522D01*
X131535368Y-131529255D01*
X131535779Y-131525608D01*
X131555565Y-131350003D01*
X131555565Y-131349996D01*
X131535369Y-131170750D01*
X131535368Y-131170745D01*
X131517872Y-131120745D01*
X131475789Y-131000478D01*
X131470050Y-130991345D01*
X131398527Y-130877516D01*
X131379816Y-130847738D01*
X131252262Y-130720184D01*
X131234781Y-130709200D01*
X131099523Y-130624211D01*
X130929254Y-130564631D01*
X130929249Y-130564630D01*
X130750004Y-130544435D01*
X130749996Y-130544435D01*
X130570750Y-130564630D01*
X130570745Y-130564631D01*
X130400476Y-130624211D01*
X130247737Y-130720184D01*
X130120184Y-130847737D01*
X130024210Y-131000478D01*
X129996513Y-131079635D01*
X129964632Y-131170745D01*
X129964631Y-131170747D01*
X129962333Y-131177317D01*
X129960021Y-131176508D01*
X129932432Y-131226406D01*
X129780375Y-131378465D01*
X129780373Y-131378467D01*
X129757866Y-131400973D01*
X129750719Y-131407580D01*
X129627366Y-131512934D01*
X129611624Y-131524371D01*
X129477483Y-131606573D01*
X129460147Y-131615406D01*
X129314793Y-131675616D01*
X129296288Y-131681629D01*
X129143316Y-131718357D01*
X129124098Y-131721402D01*
X128969939Y-131733537D01*
X128962580Y-131734117D01*
X128962567Y-131734118D01*
X128952836Y-131734500D01*
X120217500Y-131734500D01*
X120150461Y-131714815D01*
X120104706Y-131662011D01*
X120093500Y-131610500D01*
X120093499Y-130732343D01*
X120093498Y-130732342D01*
X120090581Y-130689296D01*
X120044307Y-130503225D01*
X119993731Y-130401248D01*
X119959118Y-130331456D01*
X119959116Y-130331453D01*
X119838990Y-130182010D01*
X119838989Y-130182009D01*
X119689546Y-130061883D01*
X119689543Y-130061881D01*
X119627453Y-130031088D01*
X119576140Y-129983667D01*
X119558610Y-129916032D01*
X119580430Y-129849657D01*
X119627453Y-129808912D01*
X119689543Y-129778118D01*
X119689543Y-129778117D01*
X119689547Y-129778116D01*
X119838990Y-129657990D01*
X119959116Y-129508547D01*
X120044307Y-129336775D01*
X120090581Y-129150704D01*
X120093500Y-129107657D01*
X120093499Y-128192344D01*
X120090581Y-128149296D01*
X120044307Y-127963225D01*
X120023580Y-127921433D01*
X119975218Y-127823920D01*
X121284499Y-127823920D01*
X121313340Y-127968907D01*
X121313343Y-127968917D01*
X121369912Y-128105488D01*
X121369919Y-128105501D01*
X121452048Y-128228415D01*
X121452051Y-128228419D01*
X121556580Y-128332948D01*
X121556584Y-128332951D01*
X121679498Y-128415080D01*
X121679511Y-128415087D01*
X121816082Y-128471656D01*
X121816087Y-128471658D01*
X121816091Y-128471658D01*
X121816092Y-128471659D01*
X121961079Y-128500500D01*
X121961082Y-128500500D01*
X122108920Y-128500500D01*
X122206462Y-128481096D01*
X122253913Y-128471658D01*
X122379853Y-128419492D01*
X122390488Y-128415087D01*
X122390488Y-128415086D01*
X122390495Y-128415084D01*
X122513416Y-128332951D01*
X122617951Y-128228416D01*
X122700084Y-128105495D01*
X122707332Y-128087998D01*
X122749910Y-127985203D01*
X122756658Y-127968913D01*
X122782247Y-127840274D01*
X122785500Y-127823920D01*
X122785500Y-127676079D01*
X122756659Y-127531092D01*
X122756658Y-127531091D01*
X122756658Y-127531087D01*
X122751498Y-127518630D01*
X122700087Y-127394511D01*
X122700080Y-127394498D01*
X122617951Y-127271584D01*
X122617948Y-127271580D01*
X122513419Y-127167051D01*
X122513415Y-127167048D01*
X122390501Y-127084919D01*
X122390488Y-127084912D01*
X122253917Y-127028343D01*
X122253907Y-127028340D01*
X122108920Y-126999500D01*
X122108918Y-126999500D01*
X121961082Y-126999500D01*
X121961080Y-126999500D01*
X121816092Y-127028340D01*
X121816082Y-127028343D01*
X121679511Y-127084912D01*
X121679498Y-127084919D01*
X121556584Y-127167048D01*
X121556580Y-127167051D01*
X121452051Y-127271580D01*
X121452048Y-127271584D01*
X121369919Y-127394498D01*
X121369912Y-127394511D01*
X121313343Y-127531082D01*
X121313340Y-127531092D01*
X121284500Y-127676079D01*
X121284500Y-127676082D01*
X121284500Y-127823918D01*
X121284500Y-127823920D01*
X121284499Y-127823920D01*
X119975218Y-127823920D01*
X119959118Y-127791456D01*
X119959116Y-127791453D01*
X119838990Y-127642010D01*
X119838989Y-127642009D01*
X119689546Y-127521883D01*
X119689543Y-127521881D01*
X119664223Y-127509324D01*
X119612910Y-127461903D01*
X119595380Y-127394268D01*
X119617200Y-127327893D01*
X119654221Y-127292697D01*
X119780656Y-127214712D01*
X119904712Y-127090656D01*
X119996814Y-126941334D01*
X120051999Y-126774797D01*
X120062500Y-126672009D01*
X120062499Y-125547992D01*
X120051999Y-125445203D01*
X119996814Y-125278666D01*
X119904712Y-125129344D01*
X119780656Y-125005288D01*
X119654220Y-124927302D01*
X119607496Y-124875354D01*
X119596273Y-124806391D01*
X119624117Y-124742309D01*
X119664222Y-124710675D01*
X119689547Y-124698116D01*
X119838990Y-124577990D01*
X119959116Y-124428547D01*
X120044307Y-124256775D01*
X120090581Y-124070704D01*
X120093500Y-124027657D01*
X120093499Y-123112344D01*
X120090581Y-123069296D01*
X120044307Y-122883225D01*
X119972716Y-122738875D01*
X119959118Y-122711456D01*
X119959116Y-122711453D01*
X119838990Y-122562010D01*
X119838989Y-122562009D01*
X119689546Y-122441883D01*
X119689543Y-122441881D01*
X119627453Y-122411088D01*
X119576140Y-122363667D01*
X119558610Y-122296032D01*
X119580430Y-122229657D01*
X119627453Y-122188912D01*
X119689543Y-122158118D01*
X119689543Y-122158117D01*
X119689547Y-122158116D01*
X119838990Y-122037990D01*
X119959116Y-121888547D01*
X120044307Y-121716775D01*
X120090581Y-121530704D01*
X120093500Y-121487657D01*
X120093499Y-120572344D01*
X120090581Y-120529296D01*
X120044307Y-120343225D01*
X119999323Y-120252523D01*
X119959118Y-120171456D01*
X119959116Y-120171453D01*
X119838990Y-120022010D01*
X119838989Y-120022009D01*
X119690931Y-119902996D01*
X124894435Y-119902996D01*
X124894435Y-119903003D01*
X124914630Y-120082249D01*
X124914631Y-120082254D01*
X124974211Y-120252523D01*
X125045011Y-120365200D01*
X125070184Y-120405262D01*
X125197738Y-120532816D01*
X125350478Y-120628789D01*
X125471450Y-120671119D01*
X125520745Y-120688368D01*
X125520750Y-120688369D01*
X125699996Y-120708565D01*
X125700000Y-120708565D01*
X125700004Y-120708565D01*
X125879249Y-120688369D01*
X125879252Y-120688368D01*
X125879255Y-120688368D01*
X126049522Y-120628789D01*
X126115222Y-120587507D01*
X126181195Y-120568500D01*
X131953500Y-120568500D01*
X132020539Y-120588185D01*
X132066294Y-120640989D01*
X132077500Y-120692500D01*
X132077500Y-121592001D01*
X132077501Y-121592019D01*
X132088000Y-121694796D01*
X132088001Y-121694799D01*
X132143185Y-121861331D01*
X132143187Y-121861336D01*
X132159970Y-121888546D01*
X132235288Y-122010656D01*
X132359344Y-122134712D01*
X132438008Y-122183232D01*
X132456688Y-122194754D01*
X132503413Y-122246702D01*
X132514636Y-122315664D01*
X132486792Y-122379747D01*
X132456690Y-122405831D01*
X132359656Y-122465682D01*
X132235684Y-122589654D01*
X132143643Y-122738875D01*
X132143641Y-122738880D01*
X132088494Y-122905302D01*
X132088493Y-122905309D01*
X132078000Y-123008013D01*
X132078000Y-123320000D01*
X133314722Y-123320000D01*
X133270667Y-123396306D01*
X133240000Y-123510756D01*
X133240000Y-123629244D01*
X133270667Y-123743694D01*
X133314722Y-123820000D01*
X132078001Y-123820000D01*
X132078001Y-124131986D01*
X132088494Y-124234697D01*
X132143641Y-124401117D01*
X132143643Y-124401124D01*
X132235684Y-124550345D01*
X132359654Y-124674315D01*
X132456689Y-124734167D01*
X132503413Y-124786115D01*
X132514636Y-124855078D01*
X132486792Y-124919160D01*
X132456689Y-124945244D01*
X132359347Y-125005285D01*
X132359343Y-125005288D01*
X132235289Y-125129342D01*
X132143187Y-125278663D01*
X132143185Y-125278668D01*
X132121811Y-125343172D01*
X132088001Y-125445203D01*
X132088001Y-125445204D01*
X132088000Y-125445204D01*
X132077500Y-125547983D01*
X132077500Y-126672001D01*
X132077501Y-126672018D01*
X132088000Y-126774796D01*
X132088001Y-126774799D01*
X132107664Y-126834137D01*
X132143186Y-126941334D01*
X132235288Y-127090656D01*
X132359344Y-127214712D01*
X132447339Y-127268987D01*
X132456213Y-127274461D01*
X132502937Y-127326409D01*
X132514160Y-127395372D01*
X132486316Y-127459454D01*
X132456213Y-127485539D01*
X132359342Y-127545289D01*
X132235289Y-127669342D01*
X132143187Y-127818663D01*
X132143185Y-127818668D01*
X132136026Y-127840274D01*
X132088001Y-127985203D01*
X132088001Y-127985204D01*
X132088000Y-127985204D01*
X132077500Y-128087983D01*
X132077500Y-129212001D01*
X132077501Y-129212018D01*
X132088000Y-129314796D01*
X132088001Y-129314799D01*
X132143185Y-129481331D01*
X132143187Y-129481336D01*
X132159970Y-129508546D01*
X132235288Y-129630656D01*
X132359344Y-129754712D01*
X132447217Y-129808912D01*
X132456213Y-129814461D01*
X132502937Y-129866409D01*
X132514160Y-129935372D01*
X132486316Y-129999454D01*
X132456213Y-130025539D01*
X132359342Y-130085289D01*
X132235289Y-130209342D01*
X132143187Y-130358663D01*
X132143185Y-130358668D01*
X132131540Y-130393810D01*
X132088001Y-130525203D01*
X132088001Y-130525204D01*
X132088000Y-130525204D01*
X132077500Y-130627983D01*
X132077500Y-131752001D01*
X132077501Y-131752018D01*
X132088000Y-131854796D01*
X132088002Y-131854803D01*
X132108622Y-131917031D01*
X132111023Y-131986860D01*
X132075291Y-132046901D01*
X132044717Y-132067754D01*
X131833641Y-132169401D01*
X131575526Y-132331585D01*
X131337196Y-132521645D01*
X131275771Y-132583070D01*
X131275770Y-132583069D01*
X131275767Y-132583074D01*
X131229418Y-132629421D01*
X131206161Y-132652679D01*
X131183464Y-132675376D01*
X131126579Y-132732261D01*
X130976406Y-132882433D01*
X130926508Y-132910021D01*
X130927317Y-132912333D01*
X130920747Y-132914631D01*
X130920745Y-132914632D01*
X130858158Y-132936531D01*
X130750478Y-132974210D01*
X130597737Y-133070184D01*
X130470184Y-133197737D01*
X130374211Y-133350476D01*
X130314631Y-133520745D01*
X130314630Y-133520750D01*
X130294435Y-133699996D01*
X130294435Y-133700003D01*
X130314630Y-133879249D01*
X130314631Y-133879254D01*
X130374211Y-134049523D01*
X130461005Y-134187654D01*
X130470184Y-134202262D01*
X130597738Y-134329816D01*
X130688080Y-134386582D01*
X130746411Y-134423234D01*
X130750478Y-134425789D01*
X130920745Y-134485368D01*
X130920750Y-134485369D01*
X131099996Y-134505565D01*
X131100000Y-134505565D01*
X131100004Y-134505565D01*
X131279249Y-134485369D01*
X131279252Y-134485368D01*
X131279255Y-134485368D01*
X131449522Y-134425789D01*
X131602262Y-134329816D01*
X131729816Y-134202262D01*
X131825789Y-134049522D01*
X131836458Y-134019032D01*
X131877178Y-133962255D01*
X131942130Y-133936506D01*
X132010692Y-133949961D01*
X132061096Y-133998347D01*
X132077500Y-134059983D01*
X132077500Y-134292000D01*
X132077501Y-134292019D01*
X132088000Y-134394796D01*
X132088001Y-134394799D01*
X132143185Y-134561331D01*
X132143187Y-134561336D01*
X132159970Y-134588546D01*
X132235288Y-134710656D01*
X132359344Y-134834712D01*
X132447217Y-134888912D01*
X132456213Y-134894461D01*
X132502937Y-134946409D01*
X132514160Y-135015372D01*
X132486316Y-135079454D01*
X132456213Y-135105539D01*
X132359342Y-135165289D01*
X132235289Y-135289342D01*
X132143187Y-135438663D01*
X132143185Y-135438668D01*
X132115349Y-135522670D01*
X132088001Y-135605203D01*
X132088001Y-135605204D01*
X132088000Y-135605204D01*
X132077500Y-135707983D01*
X132077500Y-136832001D01*
X132077501Y-136832018D01*
X132088000Y-136934796D01*
X132088001Y-136934799D01*
X132143185Y-137101331D01*
X132143187Y-137101336D01*
X132159970Y-137128546D01*
X132235288Y-137250656D01*
X132359344Y-137374712D01*
X132417648Y-137410674D01*
X132456213Y-137434461D01*
X132502937Y-137486409D01*
X132514160Y-137555372D01*
X132486316Y-137619454D01*
X132456213Y-137645539D01*
X132359342Y-137705289D01*
X132235289Y-137829342D01*
X132143187Y-137978663D01*
X132143186Y-137978666D01*
X132088001Y-138145203D01*
X132088001Y-138145204D01*
X132088000Y-138145204D01*
X132077500Y-138247983D01*
X132077500Y-139372001D01*
X132077501Y-139372018D01*
X132088000Y-139474796D01*
X132088001Y-139474799D01*
X132134233Y-139614317D01*
X132143186Y-139641334D01*
X132235288Y-139790656D01*
X132359344Y-139914712D01*
X132508666Y-140006814D01*
X132675203Y-140061999D01*
X132777991Y-140072500D01*
X134602008Y-140072499D01*
X134704797Y-140061999D01*
X134871334Y-140006814D01*
X135020656Y-139914712D01*
X135144712Y-139790656D01*
X135236814Y-139641334D01*
X135291999Y-139474797D01*
X135302500Y-139372009D01*
X135302499Y-138247992D01*
X135291999Y-138145203D01*
X135236814Y-137978666D01*
X135144712Y-137829344D01*
X135020656Y-137705288D01*
X134923787Y-137645539D01*
X134877062Y-137593591D01*
X134865839Y-137524629D01*
X134893683Y-137460546D01*
X134923787Y-137434461D01*
X134929497Y-137430938D01*
X135020656Y-137374712D01*
X135144712Y-137250656D01*
X135236814Y-137101334D01*
X135291999Y-136934797D01*
X135302500Y-136832009D01*
X135302499Y-135707992D01*
X135291999Y-135605203D01*
X135290275Y-135600000D01*
X158394551Y-135600000D01*
X158414317Y-135851151D01*
X158473126Y-136096110D01*
X158569533Y-136328859D01*
X158701160Y-136543653D01*
X158701161Y-136543656D01*
X158701164Y-136543659D01*
X158864776Y-136735224D01*
X158978097Y-136832009D01*
X159056343Y-136898838D01*
X159056346Y-136898839D01*
X159271140Y-137030466D01*
X159430820Y-137096607D01*
X159503889Y-137126873D01*
X159748852Y-137185683D01*
X160000000Y-137205449D01*
X160251148Y-137185683D01*
X160496111Y-137126873D01*
X160728859Y-137030466D01*
X160943659Y-136898836D01*
X161135224Y-136735224D01*
X161298836Y-136543659D01*
X161430466Y-136328859D01*
X161526873Y-136096111D01*
X161585683Y-135851148D01*
X161605449Y-135600000D01*
X163474551Y-135600000D01*
X163494317Y-135851151D01*
X163553126Y-136096110D01*
X163649533Y-136328859D01*
X163781160Y-136543653D01*
X163781161Y-136543656D01*
X163781164Y-136543659D01*
X163944776Y-136735224D01*
X164058097Y-136832009D01*
X164136343Y-136898838D01*
X164136346Y-136898839D01*
X164351140Y-137030466D01*
X164510820Y-137096607D01*
X164583889Y-137126873D01*
X164828852Y-137185683D01*
X165080000Y-137205449D01*
X165331148Y-137185683D01*
X165576111Y-137126873D01*
X165808859Y-137030466D01*
X166023659Y-136898836D01*
X166215224Y-136735224D01*
X166378836Y-136543659D01*
X166510466Y-136328859D01*
X166606873Y-136096111D01*
X166665683Y-135851148D01*
X166685449Y-135600000D01*
X166665683Y-135348852D01*
X166606873Y-135103889D01*
X166596752Y-135079454D01*
X166510466Y-134871140D01*
X166378839Y-134656346D01*
X166378838Y-134656343D01*
X166320934Y-134588547D01*
X166215224Y-134464776D01*
X166057205Y-134329815D01*
X166023656Y-134301161D01*
X166023653Y-134301160D01*
X165808859Y-134169533D01*
X165576110Y-134073126D01*
X165331151Y-134014317D01*
X165080000Y-133994551D01*
X164828848Y-134014317D01*
X164583889Y-134073126D01*
X164351140Y-134169533D01*
X164136346Y-134301160D01*
X164136343Y-134301161D01*
X163944776Y-134464776D01*
X163781161Y-134656343D01*
X163781160Y-134656346D01*
X163649533Y-134871140D01*
X163553126Y-135103889D01*
X163494317Y-135348848D01*
X163474551Y-135600000D01*
X161605449Y-135600000D01*
X161585683Y-135348852D01*
X161526873Y-135103889D01*
X161516752Y-135079454D01*
X161430466Y-134871140D01*
X161298839Y-134656346D01*
X161298838Y-134656343D01*
X161240934Y-134588547D01*
X161135224Y-134464776D01*
X160977205Y-134329815D01*
X160943656Y-134301161D01*
X160943653Y-134301160D01*
X160728859Y-134169533D01*
X160496110Y-134073126D01*
X160251151Y-134014317D01*
X160000000Y-133994551D01*
X159748848Y-134014317D01*
X159503889Y-134073126D01*
X159271140Y-134169533D01*
X159056346Y-134301160D01*
X159056343Y-134301161D01*
X158864776Y-134464776D01*
X158701161Y-134656343D01*
X158701160Y-134656346D01*
X158569533Y-134871140D01*
X158473126Y-135103889D01*
X158414317Y-135348848D01*
X158394551Y-135600000D01*
X135290275Y-135600000D01*
X135236814Y-135438666D01*
X135144712Y-135289344D01*
X135020656Y-135165288D01*
X134923787Y-135105539D01*
X134877062Y-135053591D01*
X134865839Y-134984629D01*
X134893683Y-134920546D01*
X134923787Y-134894461D01*
X134932783Y-134888912D01*
X135020656Y-134834712D01*
X135144712Y-134710656D01*
X135236814Y-134561334D01*
X135291999Y-134394797D01*
X135302500Y-134292009D01*
X135302499Y-133167992D01*
X135297072Y-133114864D01*
X135309842Y-133046172D01*
X135357722Y-132995287D01*
X135382112Y-132984332D01*
X135743938Y-132866768D01*
X135743938Y-132866767D01*
X135743944Y-132866766D01*
X136098978Y-132719707D01*
X136366992Y-132583147D01*
X136435656Y-132570253D01*
X136500397Y-132596529D01*
X136540323Y-132652679D01*
X136574209Y-132749519D01*
X136574211Y-132749522D01*
X136670184Y-132902262D01*
X136797738Y-133029816D01*
X136854532Y-133065502D01*
X136946664Y-133123393D01*
X136950478Y-133125789D01*
X137120745Y-133185368D01*
X137120750Y-133185369D01*
X137299996Y-133205565D01*
X137300000Y-133205565D01*
X137300004Y-133205565D01*
X137479249Y-133185369D01*
X137479252Y-133185368D01*
X137479255Y-133185368D01*
X137649522Y-133125789D01*
X137802262Y-133029816D01*
X137929816Y-132902262D01*
X138025789Y-132749522D01*
X138085368Y-132579255D01*
X138085368Y-132579254D01*
X138087668Y-132572682D01*
X138089995Y-132573496D01*
X138117566Y-132523592D01*
X138743421Y-131897738D01*
X138768434Y-131872726D01*
X138772823Y-131868546D01*
X138965940Y-131693515D01*
X138975325Y-131685812D01*
X139182233Y-131532359D01*
X139192326Y-131525616D01*
X139413265Y-131393190D01*
X139423969Y-131387468D01*
X139656822Y-131277338D01*
X139668048Y-131272688D01*
X139910587Y-131185906D01*
X139922199Y-131182385D01*
X140172061Y-131119798D01*
X140183983Y-131117427D01*
X140438766Y-131079634D01*
X140450865Y-131078442D01*
X140672096Y-131067574D01*
X140711300Y-131065649D01*
X140717384Y-131065500D01*
X140789194Y-131065500D01*
X141761581Y-131065500D01*
X141828620Y-131085185D01*
X141874375Y-131137989D01*
X141881353Y-131157400D01*
X141884425Y-131168864D01*
X141885497Y-131172864D01*
X141985365Y-131387030D01*
X141985367Y-131387034D01*
X142120901Y-131580595D01*
X142120906Y-131580602D01*
X142287997Y-131747693D01*
X142288003Y-131747698D01*
X142473558Y-131877625D01*
X142517183Y-131932202D01*
X142524377Y-132001700D01*
X142492854Y-132064055D01*
X142473558Y-132080775D01*
X142287997Y-132210705D01*
X142120905Y-132377797D01*
X141985365Y-132571369D01*
X141985364Y-132571371D01*
X141885498Y-132785535D01*
X141885494Y-132785544D01*
X141824338Y-133013786D01*
X141824336Y-133013796D01*
X141803741Y-133249199D01*
X141803741Y-133249200D01*
X141824336Y-133484603D01*
X141824338Y-133484613D01*
X141885494Y-133712855D01*
X141885496Y-133712859D01*
X141885497Y-133712863D01*
X141963084Y-133879249D01*
X141985365Y-133927030D01*
X141985367Y-133927034D01*
X142078460Y-134059983D01*
X142120905Y-134120601D01*
X142287999Y-134287695D01*
X142307235Y-134301164D01*
X142481565Y-134423232D01*
X142481567Y-134423233D01*
X142481570Y-134423235D01*
X142695737Y-134523103D01*
X142923992Y-134584263D01*
X143112318Y-134600739D01*
X143159399Y-134604859D01*
X143159400Y-134604859D01*
X143159401Y-134604859D01*
X143198634Y-134601426D01*
X143394808Y-134584263D01*
X143623063Y-134523103D01*
X143837230Y-134423235D01*
X144030801Y-134287695D01*
X144197895Y-134120601D01*
X144333435Y-133927030D01*
X144433303Y-133712863D01*
X144494463Y-133484608D01*
X144515059Y-133249200D01*
X144494463Y-133013792D01*
X144433303Y-132785537D01*
X144333435Y-132571371D01*
X144332653Y-132570253D01*
X144197894Y-132377797D01*
X144030802Y-132210706D01*
X144030796Y-132210701D01*
X143845242Y-132080775D01*
X143801617Y-132026198D01*
X143794423Y-131956700D01*
X143825946Y-131894345D01*
X143845242Y-131877625D01*
X143881464Y-131852262D01*
X144030801Y-131747695D01*
X144197895Y-131580601D01*
X144333435Y-131387030D01*
X144433303Y-131172863D01*
X144494463Y-130944608D01*
X144515059Y-130709200D01*
X144494463Y-130473792D01*
X144433303Y-130245537D01*
X144333435Y-130031371D01*
X144329352Y-130025539D01*
X144197894Y-129837797D01*
X144030802Y-129670706D01*
X144030796Y-129670701D01*
X143845242Y-129540775D01*
X143801617Y-129486198D01*
X143794423Y-129416700D01*
X143825946Y-129354345D01*
X143845242Y-129337625D01*
X143941689Y-129270092D01*
X144030801Y-129207695D01*
X144197895Y-129040601D01*
X144333435Y-128847030D01*
X144433303Y-128632863D01*
X144494463Y-128404608D01*
X144515059Y-128169200D01*
X144494463Y-127933792D01*
X144441023Y-127734348D01*
X144433305Y-127705544D01*
X144433304Y-127705543D01*
X144433303Y-127705537D01*
X144333435Y-127491371D01*
X144329351Y-127485539D01*
X144197896Y-127297800D01*
X144170948Y-127270852D01*
X144075579Y-127175483D01*
X144042096Y-127114163D01*
X144047080Y-127044471D01*
X144088951Y-126988537D01*
X144119929Y-126971622D01*
X144251486Y-126922554D01*
X144251493Y-126922550D01*
X144366587Y-126836390D01*
X144366590Y-126836387D01*
X144452750Y-126721293D01*
X144452754Y-126721286D01*
X144502996Y-126586579D01*
X144502998Y-126586572D01*
X144509399Y-126527044D01*
X144509400Y-126527027D01*
X144509400Y-125879200D01*
X143592412Y-125879200D01*
X143625325Y-125822193D01*
X143659400Y-125695026D01*
X143659400Y-125563374D01*
X143625325Y-125436207D01*
X143592412Y-125379200D01*
X144509400Y-125379200D01*
X144509400Y-124731372D01*
X144509399Y-124731355D01*
X144502998Y-124671827D01*
X144502996Y-124671820D01*
X144452754Y-124537113D01*
X144452750Y-124537106D01*
X144366590Y-124422012D01*
X144366587Y-124422009D01*
X144337187Y-124400000D01*
X158394551Y-124400000D01*
X158414317Y-124651151D01*
X158473126Y-124896110D01*
X158569533Y-125128859D01*
X158701160Y-125343653D01*
X158701161Y-125343656D01*
X158701164Y-125343659D01*
X158864776Y-125535224D01*
X159013066Y-125661875D01*
X159056343Y-125698838D01*
X159056345Y-125698838D01*
X159058245Y-125700003D01*
X159271140Y-125830466D01*
X159503889Y-125926873D01*
X159748852Y-125985683D01*
X160000000Y-126005449D01*
X160251148Y-125985683D01*
X160496111Y-125926873D01*
X160728859Y-125830466D01*
X160943659Y-125698836D01*
X161135224Y-125535224D01*
X161298836Y-125343659D01*
X161430466Y-125128859D01*
X161526873Y-124896111D01*
X161585683Y-124651148D01*
X161605449Y-124400000D01*
X163474551Y-124400000D01*
X163494317Y-124651151D01*
X163553126Y-124896110D01*
X163649533Y-125128859D01*
X163781160Y-125343653D01*
X163781161Y-125343656D01*
X163781164Y-125343659D01*
X163944776Y-125535224D01*
X164093066Y-125661875D01*
X164136343Y-125698838D01*
X164136345Y-125698838D01*
X164138245Y-125700003D01*
X164351140Y-125830466D01*
X164583889Y-125926873D01*
X164828852Y-125985683D01*
X165080000Y-126005449D01*
X165331148Y-125985683D01*
X165576111Y-125926873D01*
X165808859Y-125830466D01*
X166023659Y-125698836D01*
X166215224Y-125535224D01*
X166378836Y-125343659D01*
X166510466Y-125128859D01*
X166606873Y-124896111D01*
X166665683Y-124651148D01*
X166685449Y-124400000D01*
X166665683Y-124148852D01*
X166606873Y-123903889D01*
X166592912Y-123870184D01*
X166510466Y-123671140D01*
X166378839Y-123456346D01*
X166378838Y-123456343D01*
X166270773Y-123329816D01*
X166215224Y-123264776D01*
X166045713Y-123120000D01*
X166023656Y-123101161D01*
X166023653Y-123101160D01*
X165808859Y-122969533D01*
X165576110Y-122873126D01*
X165331151Y-122814317D01*
X165080000Y-122794551D01*
X164828848Y-122814317D01*
X164583889Y-122873126D01*
X164351140Y-122969533D01*
X164136346Y-123101160D01*
X164136343Y-123101161D01*
X163944776Y-123264776D01*
X163781161Y-123456343D01*
X163781160Y-123456346D01*
X163649533Y-123671140D01*
X163553126Y-123903889D01*
X163494317Y-124148848D01*
X163474551Y-124400000D01*
X161605449Y-124400000D01*
X161585683Y-124148852D01*
X161526873Y-123903889D01*
X161512912Y-123870184D01*
X161430466Y-123671140D01*
X161298839Y-123456346D01*
X161298838Y-123456343D01*
X161190773Y-123329816D01*
X161135224Y-123264776D01*
X160965713Y-123120000D01*
X160943656Y-123101161D01*
X160943653Y-123101160D01*
X160728859Y-122969533D01*
X160496110Y-122873126D01*
X160251151Y-122814317D01*
X160000000Y-122794551D01*
X159748848Y-122814317D01*
X159503889Y-122873126D01*
X159271140Y-122969533D01*
X159056346Y-123101160D01*
X159056343Y-123101161D01*
X158864776Y-123264776D01*
X158701161Y-123456343D01*
X158701160Y-123456346D01*
X158569533Y-123671140D01*
X158473126Y-123903889D01*
X158414317Y-124148848D01*
X158394551Y-124400000D01*
X144337187Y-124400000D01*
X144251493Y-124335849D01*
X144251486Y-124335845D01*
X144116779Y-124285603D01*
X144116772Y-124285601D01*
X144057244Y-124279200D01*
X143409400Y-124279200D01*
X143409400Y-125196188D01*
X143352393Y-125163275D01*
X143225226Y-125129200D01*
X143093574Y-125129200D01*
X142966407Y-125163275D01*
X142909400Y-125196188D01*
X142909400Y-124279200D01*
X142261555Y-124279200D01*
X142202027Y-124285601D01*
X142202020Y-124285603D01*
X142067313Y-124335845D01*
X142067306Y-124335849D01*
X141952212Y-124422009D01*
X141952209Y-124422012D01*
X141866049Y-124537106D01*
X141866045Y-124537113D01*
X141815803Y-124671820D01*
X141815801Y-124671827D01*
X141809400Y-124731355D01*
X141809400Y-125379200D01*
X142726388Y-125379200D01*
X142693475Y-125436207D01*
X142659400Y-125563374D01*
X142659400Y-125695026D01*
X142693475Y-125822193D01*
X142726388Y-125879200D01*
X141809400Y-125879200D01*
X141809400Y-126527044D01*
X141815801Y-126586572D01*
X141815803Y-126586579D01*
X141866045Y-126721286D01*
X141866049Y-126721293D01*
X141952209Y-126836387D01*
X141952212Y-126836390D01*
X142067306Y-126922550D01*
X142067313Y-126922554D01*
X142198870Y-126971621D01*
X142254803Y-127013492D01*
X142279221Y-127078956D01*
X142264370Y-127147229D01*
X142243219Y-127175484D01*
X142120903Y-127297800D01*
X141985365Y-127491369D01*
X141985364Y-127491371D01*
X141885498Y-127705535D01*
X141885494Y-127705544D01*
X141824338Y-127933786D01*
X141824336Y-127933796D01*
X141803741Y-128169199D01*
X141803741Y-128169200D01*
X141823445Y-128394413D01*
X141809678Y-128462913D01*
X141761063Y-128513096D01*
X141747369Y-128519782D01*
X141628893Y-128568856D01*
X141610389Y-128574869D01*
X141436365Y-128616649D01*
X141417146Y-128619693D01*
X141233869Y-128634118D01*
X141224140Y-128634500D01*
X140565676Y-128634500D01*
X140565628Y-128634486D01*
X140514300Y-128634486D01*
X140325625Y-128634486D01*
X140325621Y-128634486D01*
X139949709Y-128667374D01*
X139578100Y-128732900D01*
X139578093Y-128732901D01*
X139311262Y-128804399D01*
X139213604Y-128830567D01*
X139213601Y-128830567D01*
X139213601Y-128830568D01*
X139213593Y-128830570D01*
X138859011Y-128959630D01*
X138517015Y-129119107D01*
X138190220Y-129307785D01*
X137881120Y-129524223D01*
X137592059Y-129766777D01*
X137504997Y-129853841D01*
X137504996Y-129853840D01*
X137504995Y-129853843D01*
X136619880Y-130738960D01*
X136619879Y-130738961D01*
X136569024Y-130789815D01*
X136564617Y-130794011D01*
X136312556Y-131022464D01*
X136303149Y-131030184D01*
X136032377Y-131231000D01*
X136022259Y-131237761D01*
X135733102Y-131411074D01*
X135722371Y-131416810D01*
X135479516Y-131531672D01*
X135410497Y-131542540D01*
X135346558Y-131514369D01*
X135308000Y-131456102D01*
X135302499Y-131419577D01*
X135302499Y-130627998D01*
X135302498Y-130627981D01*
X135291999Y-130525203D01*
X135291998Y-130525200D01*
X135250924Y-130401248D01*
X135236814Y-130358666D01*
X135144712Y-130209344D01*
X135020656Y-130085288D01*
X134923787Y-130025539D01*
X134877062Y-129973591D01*
X134865839Y-129904629D01*
X134893683Y-129840546D01*
X134923787Y-129814461D01*
X134932783Y-129808912D01*
X135020656Y-129754712D01*
X135144712Y-129630656D01*
X135236814Y-129481334D01*
X135291999Y-129314797D01*
X135302500Y-129212009D01*
X135302499Y-128087992D01*
X135291999Y-127985203D01*
X135236814Y-127818666D01*
X135144712Y-127669344D01*
X135020656Y-127545288D01*
X134923787Y-127485539D01*
X134877062Y-127433591D01*
X134865839Y-127364629D01*
X134893683Y-127300546D01*
X134923787Y-127274461D01*
X134929638Y-127270852D01*
X135020656Y-127214712D01*
X135144712Y-127090656D01*
X135236814Y-126941334D01*
X135291999Y-126774797D01*
X135302500Y-126672009D01*
X135302499Y-125699996D01*
X137994435Y-125699996D01*
X137994435Y-125700003D01*
X138014630Y-125879249D01*
X138014631Y-125879254D01*
X138074211Y-126049523D01*
X138102865Y-126095125D01*
X138170184Y-126202262D01*
X138297738Y-126329816D01*
X138450478Y-126425789D01*
X138570573Y-126467812D01*
X138620745Y-126485368D01*
X138620750Y-126485369D01*
X138799996Y-126505565D01*
X138800000Y-126505565D01*
X138800004Y-126505565D01*
X138979249Y-126485369D01*
X138979252Y-126485368D01*
X138979255Y-126485368D01*
X139149522Y-126425789D01*
X139302262Y-126329816D01*
X139429816Y-126202262D01*
X139525789Y-126049522D01*
X139585368Y-125879255D01*
X139585368Y-125879254D01*
X139587668Y-125872682D01*
X139589995Y-125873496D01*
X139617566Y-125823592D01*
X141910017Y-123531139D01*
X141971338Y-123497656D01*
X142011579Y-123495602D01*
X142071489Y-123502352D01*
X142099999Y-123505565D01*
X142100000Y-123505565D01*
X142100003Y-123505565D01*
X142279249Y-123485369D01*
X142279252Y-123485368D01*
X142279255Y-123485368D01*
X142449522Y-123425789D01*
X142602262Y-123329816D01*
X142729816Y-123202262D01*
X142825789Y-123049522D01*
X142885368Y-122879255D01*
X142885369Y-122879249D01*
X142905565Y-122700003D01*
X142905565Y-122699996D01*
X142885369Y-122520750D01*
X142885368Y-122520745D01*
X142845158Y-122405831D01*
X142825789Y-122350478D01*
X142812014Y-122328556D01*
X142749872Y-122229657D01*
X142729816Y-122197738D01*
X142602262Y-122070184D01*
X142524908Y-122021579D01*
X142449523Y-121974211D01*
X142279254Y-121914631D01*
X142279249Y-121914630D01*
X142100004Y-121894435D01*
X142099996Y-121894435D01*
X141920750Y-121914630D01*
X141920745Y-121914631D01*
X141750476Y-121974211D01*
X141597738Y-122070184D01*
X141597734Y-122070186D01*
X141574747Y-122093173D01*
X141543369Y-122115971D01*
X141411375Y-122183232D01*
X141411374Y-122183233D01*
X141280511Y-122278320D01*
X141280510Y-122278322D01*
X141230287Y-122328551D01*
X141230282Y-122328556D01*
X138676407Y-124882432D01*
X138626507Y-124910019D01*
X138627317Y-124912333D01*
X138620747Y-124914631D01*
X138620745Y-124914632D01*
X138558158Y-124936531D01*
X138450478Y-124974210D01*
X138297737Y-125070184D01*
X138170184Y-125197737D01*
X138074211Y-125350476D01*
X138014631Y-125520745D01*
X138014630Y-125520750D01*
X137994435Y-125699996D01*
X135302499Y-125699996D01*
X135302499Y-125547992D01*
X135291999Y-125445203D01*
X135236814Y-125278666D01*
X135144712Y-125129344D01*
X135020656Y-125005288D01*
X134923309Y-124945244D01*
X134876586Y-124893297D01*
X134865363Y-124824334D01*
X134893207Y-124760252D01*
X134923311Y-124734167D01*
X135020343Y-124674317D01*
X135144315Y-124550345D01*
X135236356Y-124401124D01*
X135236359Y-124401117D01*
X135291505Y-124234697D01*
X135291506Y-124234690D01*
X135301999Y-124131986D01*
X135302000Y-124131973D01*
X135302000Y-123820000D01*
X134065278Y-123820000D01*
X134109333Y-123743694D01*
X134140000Y-123629244D01*
X134140000Y-123510756D01*
X134109333Y-123396306D01*
X134065278Y-123320000D01*
X135301999Y-123320000D01*
X135301999Y-123008028D01*
X135301998Y-123008013D01*
X135291505Y-122905302D01*
X135236358Y-122738880D01*
X135236356Y-122738875D01*
X135144315Y-122589654D01*
X135020344Y-122465683D01*
X135020340Y-122465680D01*
X134923310Y-122405831D01*
X134876585Y-122353883D01*
X134865364Y-122284921D01*
X134893207Y-122220839D01*
X134923308Y-122194755D01*
X135020656Y-122134712D01*
X135144712Y-122010656D01*
X135236814Y-121861334D01*
X135291999Y-121694797D01*
X135302500Y-121592009D01*
X135302499Y-120467992D01*
X135291999Y-120365203D01*
X135236814Y-120198666D01*
X135188473Y-120120293D01*
X135170034Y-120052902D01*
X135190957Y-119986239D01*
X135242500Y-119942403D01*
X135278399Y-119926010D01*
X135661266Y-119716948D01*
X136028244Y-119481106D01*
X136377462Y-119219685D01*
X136707141Y-118934017D01*
X136804811Y-118836344D01*
X136804815Y-118836342D01*
X136815021Y-118826135D01*
X136815023Y-118826135D01*
X136841158Y-118800000D01*
X158395052Y-118800000D01*
X158414812Y-119051072D01*
X158473603Y-119295956D01*
X158569980Y-119528631D01*
X158701568Y-119743362D01*
X158702266Y-119744179D01*
X159360689Y-119085756D01*
X159379668Y-119131574D01*
X159456274Y-119246224D01*
X159553776Y-119343726D01*
X159668426Y-119420332D01*
X159714242Y-119439309D01*
X159055819Y-120097732D01*
X159055819Y-120097733D01*
X159056634Y-120098429D01*
X159271368Y-120230019D01*
X159504043Y-120326396D01*
X159748927Y-120385187D01*
X160000000Y-120404947D01*
X160251072Y-120385187D01*
X160495956Y-120326396D01*
X160728631Y-120230019D01*
X160943361Y-120098432D01*
X160943363Y-120098430D01*
X160944180Y-120097732D01*
X160285757Y-119439309D01*
X160331574Y-119420332D01*
X160446224Y-119343726D01*
X160543726Y-119246224D01*
X160620332Y-119131574D01*
X160639309Y-119085757D01*
X161297732Y-119744180D01*
X161298430Y-119743363D01*
X161298432Y-119743361D01*
X161430019Y-119528631D01*
X161526396Y-119295956D01*
X161585187Y-119051072D01*
X161604947Y-118800000D01*
X163475052Y-118800000D01*
X163494812Y-119051072D01*
X163553603Y-119295956D01*
X163649980Y-119528631D01*
X163781568Y-119743362D01*
X163782266Y-119744179D01*
X164440689Y-119085755D01*
X164459668Y-119131574D01*
X164536274Y-119246224D01*
X164633776Y-119343726D01*
X164748426Y-119420332D01*
X164794242Y-119439309D01*
X164135819Y-120097732D01*
X164135819Y-120097733D01*
X164136634Y-120098429D01*
X164351368Y-120230019D01*
X164584043Y-120326396D01*
X164828927Y-120385187D01*
X165080000Y-120404947D01*
X165331072Y-120385187D01*
X165575956Y-120326396D01*
X165808631Y-120230019D01*
X166023361Y-120098432D01*
X166023363Y-120098430D01*
X166024180Y-120097732D01*
X165365757Y-119439309D01*
X165411574Y-119420332D01*
X165526224Y-119343726D01*
X165623726Y-119246224D01*
X165700332Y-119131574D01*
X165719309Y-119085757D01*
X166377732Y-119744180D01*
X166378430Y-119743363D01*
X166378432Y-119743361D01*
X166510019Y-119528631D01*
X166606396Y-119295956D01*
X166665187Y-119051072D01*
X166684947Y-118800000D01*
X166665187Y-118548927D01*
X166606396Y-118304043D01*
X166510019Y-118071368D01*
X166378429Y-117856634D01*
X166377733Y-117855819D01*
X166377732Y-117855819D01*
X165719309Y-118514242D01*
X165700332Y-118468426D01*
X165623726Y-118353776D01*
X165526224Y-118256274D01*
X165411574Y-118179668D01*
X165365756Y-118160690D01*
X166024179Y-117502266D01*
X166023362Y-117501568D01*
X165808631Y-117369980D01*
X165575956Y-117273603D01*
X165331072Y-117214812D01*
X165080000Y-117195052D01*
X164828927Y-117214812D01*
X164584043Y-117273603D01*
X164351368Y-117369980D01*
X164136637Y-117501567D01*
X164135819Y-117502266D01*
X164794243Y-118160690D01*
X164748426Y-118179668D01*
X164633776Y-118256274D01*
X164536274Y-118353776D01*
X164459668Y-118468426D01*
X164440690Y-118514243D01*
X163782266Y-117855819D01*
X163781567Y-117856637D01*
X163649980Y-118071368D01*
X163553603Y-118304043D01*
X163494812Y-118548927D01*
X163475052Y-118800000D01*
X161604947Y-118800000D01*
X161585187Y-118548927D01*
X161526396Y-118304043D01*
X161430019Y-118071368D01*
X161298429Y-117856634D01*
X161297733Y-117855819D01*
X161297732Y-117855819D01*
X160639309Y-118514242D01*
X160620332Y-118468426D01*
X160543726Y-118353776D01*
X160446224Y-118256274D01*
X160331574Y-118179668D01*
X160285756Y-118160690D01*
X160944179Y-117502266D01*
X160943362Y-117501568D01*
X160728631Y-117369980D01*
X160495956Y-117273603D01*
X160251072Y-117214812D01*
X160000000Y-117195052D01*
X159748927Y-117214812D01*
X159504043Y-117273603D01*
X159271368Y-117369980D01*
X159056637Y-117501567D01*
X159055819Y-117502266D01*
X159714243Y-118160690D01*
X159668426Y-118179668D01*
X159553776Y-118256274D01*
X159456274Y-118353776D01*
X159379668Y-118468426D01*
X159360690Y-118514243D01*
X158702266Y-117855819D01*
X158701567Y-117856637D01*
X158569980Y-118071368D01*
X158473603Y-118304043D01*
X158414812Y-118548927D01*
X158395052Y-118800000D01*
X136841158Y-118800000D01*
X141229793Y-114411365D01*
X141291114Y-114377882D01*
X141349565Y-114379273D01*
X141373308Y-114385635D01*
X141535230Y-114399801D01*
X141599998Y-114405468D01*
X141600000Y-114405468D01*
X141600002Y-114405468D01*
X141656673Y-114400509D01*
X141826692Y-114385635D01*
X142046496Y-114326739D01*
X142252734Y-114230568D01*
X142439139Y-114100047D01*
X142600047Y-113939139D01*
X142730568Y-113752734D01*
X142826739Y-113546496D01*
X142885635Y-113326692D01*
X142905468Y-113100000D01*
X142885635Y-112873308D01*
X142826739Y-112653504D01*
X142730568Y-112447266D01*
X142600047Y-112260861D01*
X142600045Y-112260858D01*
X142439141Y-112099954D01*
X142252734Y-111969432D01*
X142252732Y-111969431D01*
X142046497Y-111873261D01*
X142046488Y-111873258D01*
X141826697Y-111814366D01*
X141826693Y-111814365D01*
X141826692Y-111814365D01*
X141826691Y-111814364D01*
X141826686Y-111814364D01*
X141600002Y-111794532D01*
X141599998Y-111794532D01*
X141373313Y-111814364D01*
X141373302Y-111814366D01*
X141153511Y-111873258D01*
X141153502Y-111873261D01*
X140947267Y-111969431D01*
X140947265Y-111969432D01*
X140760858Y-112099954D01*
X140599954Y-112260858D01*
X140469432Y-112447265D01*
X140469431Y-112447267D01*
X140442382Y-112505275D01*
X140396209Y-112557714D01*
X140329016Y-112576866D01*
X140262135Y-112556650D01*
X140217618Y-112505275D01*
X140190568Y-112447266D01*
X140060047Y-112260861D01*
X140060045Y-112260858D01*
X139899141Y-112099954D01*
X139712734Y-111969432D01*
X139712732Y-111969431D01*
X139506497Y-111873261D01*
X139506488Y-111873258D01*
X139286697Y-111814366D01*
X139286693Y-111814365D01*
X139286692Y-111814365D01*
X139286691Y-111814364D01*
X139286686Y-111814364D01*
X139060002Y-111794532D01*
X139059998Y-111794532D01*
X138833313Y-111814364D01*
X138833302Y-111814366D01*
X138613511Y-111873258D01*
X138613502Y-111873261D01*
X138407267Y-111969431D01*
X138407265Y-111969432D01*
X138220858Y-112099954D01*
X138059954Y-112260858D01*
X137929432Y-112447265D01*
X137929431Y-112447267D01*
X137902382Y-112505275D01*
X137856209Y-112557714D01*
X137789016Y-112576866D01*
X137722135Y-112556650D01*
X137677618Y-112505275D01*
X137650568Y-112447266D01*
X137520047Y-112260861D01*
X137520045Y-112260858D01*
X137359141Y-112099954D01*
X137172734Y-111969432D01*
X137172732Y-111969431D01*
X136966497Y-111873261D01*
X136966488Y-111873258D01*
X136746697Y-111814366D01*
X136746693Y-111814365D01*
X136746692Y-111814365D01*
X136746691Y-111814364D01*
X136746686Y-111814364D01*
X136520002Y-111794532D01*
X136519998Y-111794532D01*
X136293313Y-111814364D01*
X136293302Y-111814366D01*
X136073511Y-111873258D01*
X136073502Y-111873261D01*
X135867267Y-111969431D01*
X135867265Y-111969432D01*
X135680858Y-112099954D01*
X135519954Y-112260858D01*
X135389432Y-112447265D01*
X135389428Y-112447272D01*
X135362105Y-112505866D01*
X135315932Y-112558305D01*
X135248738Y-112577456D01*
X135181858Y-112557239D01*
X135137342Y-112505864D01*
X135110136Y-112447521D01*
X135110132Y-112447513D01*
X135059025Y-112374526D01*
X134422137Y-113011414D01*
X134399333Y-112926306D01*
X134340090Y-112823694D01*
X134256306Y-112739910D01*
X134153694Y-112680667D01*
X134068585Y-112657862D01*
X134705472Y-112020974D01*
X134632478Y-111969863D01*
X134426331Y-111873735D01*
X134426317Y-111873730D01*
X134206610Y-111814860D01*
X134206599Y-111814858D01*
X133980002Y-111795034D01*
X133979998Y-111795034D01*
X133753400Y-111814858D01*
X133753389Y-111814860D01*
X133533682Y-111873730D01*
X133533673Y-111873734D01*
X133327516Y-111969866D01*
X133327512Y-111969868D01*
X133254526Y-112020973D01*
X133254526Y-112020974D01*
X133891414Y-112657861D01*
X133806306Y-112680667D01*
X133703694Y-112739910D01*
X133619910Y-112823694D01*
X133560667Y-112926306D01*
X133537862Y-113011414D01*
X132900974Y-112374526D01*
X132900973Y-112374526D01*
X132849868Y-112447512D01*
X132849866Y-112447516D01*
X132753734Y-112653673D01*
X132753730Y-112653682D01*
X132694860Y-112873389D01*
X132694858Y-112873400D01*
X132675034Y-113099997D01*
X132675034Y-113100002D01*
X132694858Y-113326599D01*
X132694860Y-113326610D01*
X132753730Y-113546317D01*
X132753735Y-113546331D01*
X132849863Y-113752478D01*
X132900974Y-113825472D01*
X133537861Y-113188584D01*
X133560667Y-113273694D01*
X133619910Y-113376306D01*
X133703694Y-113460090D01*
X133806306Y-113519333D01*
X133891414Y-113542137D01*
X133254526Y-114179025D01*
X133327513Y-114230132D01*
X133327521Y-114230136D01*
X133533668Y-114326264D01*
X133533682Y-114326269D01*
X133753389Y-114385139D01*
X133753400Y-114385141D01*
X133979998Y-114404966D01*
X133980002Y-114404966D01*
X134206599Y-114385141D01*
X134206610Y-114385139D01*
X134426317Y-114326269D01*
X134426331Y-114326264D01*
X134632478Y-114230136D01*
X134705471Y-114179024D01*
X134068585Y-113542138D01*
X134153694Y-113519333D01*
X134256306Y-113460090D01*
X134340090Y-113376306D01*
X134399333Y-113273694D01*
X134422138Y-113188585D01*
X135059024Y-113825471D01*
X135110133Y-113752482D01*
X135137341Y-113694135D01*
X135183513Y-113641696D01*
X135250707Y-113622543D01*
X135317588Y-113642758D01*
X135362105Y-113694132D01*
X135389432Y-113752734D01*
X135389433Y-113752735D01*
X135519954Y-113939141D01*
X135680858Y-114100045D01*
X135680861Y-114100047D01*
X135867266Y-114230568D01*
X136073504Y-114326739D01*
X136293308Y-114385635D01*
X136520000Y-114405468D01*
X136520002Y-114405467D01*
X136524863Y-114405893D01*
X136589932Y-114431345D01*
X136630911Y-114487936D01*
X136634789Y-114557698D01*
X136601737Y-114617102D01*
X134184937Y-117033901D01*
X134181427Y-117037276D01*
X133911410Y-117286877D01*
X133904007Y-117293200D01*
X133617152Y-117519338D01*
X133609275Y-117525061D01*
X133305559Y-117727998D01*
X133297266Y-117733079D01*
X132978574Y-117911557D01*
X132969899Y-117915977D01*
X132638173Y-118068905D01*
X132629178Y-118072630D01*
X132286475Y-118199062D01*
X132277215Y-118202071D01*
X131925670Y-118301218D01*
X131916202Y-118303491D01*
X131557947Y-118374753D01*
X131548332Y-118376276D01*
X131185595Y-118419212D01*
X131175888Y-118419976D01*
X130808729Y-118434404D01*
X130803860Y-118434500D01*
X128381195Y-118434500D01*
X128315222Y-118415493D01*
X128249524Y-118374211D01*
X128079254Y-118314631D01*
X128079249Y-118314630D01*
X127900004Y-118294435D01*
X127899996Y-118294435D01*
X127720750Y-118314630D01*
X127720745Y-118314631D01*
X127550476Y-118374211D01*
X127397737Y-118470184D01*
X127270184Y-118597737D01*
X127174211Y-118750476D01*
X127114631Y-118920745D01*
X127114630Y-118920750D01*
X127094435Y-119099996D01*
X127094435Y-119106963D01*
X127093103Y-119106963D01*
X127082341Y-119168431D01*
X127034996Y-119219813D01*
X126971172Y-119237500D01*
X126181195Y-119237500D01*
X126115222Y-119218493D01*
X126049524Y-119177211D01*
X125879254Y-119117631D01*
X125879249Y-119117630D01*
X125700004Y-119097435D01*
X125699996Y-119097435D01*
X125520750Y-119117630D01*
X125520745Y-119117631D01*
X125350476Y-119177211D01*
X125197737Y-119273184D01*
X125070184Y-119400737D01*
X124974211Y-119553476D01*
X124914631Y-119723745D01*
X124914630Y-119723750D01*
X124894435Y-119902996D01*
X119690931Y-119902996D01*
X119689546Y-119901883D01*
X119689543Y-119901881D01*
X119517778Y-119816694D01*
X119517776Y-119816693D01*
X119517775Y-119816693D01*
X119479939Y-119807283D01*
X119331708Y-119770419D01*
X119307105Y-119768751D01*
X119288657Y-119767500D01*
X119288654Y-119767500D01*
X117611343Y-119767500D01*
X117611340Y-119767501D01*
X117568298Y-119770418D01*
X117568297Y-119770418D01*
X117382221Y-119816694D01*
X117210456Y-119901881D01*
X117210453Y-119901883D01*
X117061010Y-120022009D01*
X117061009Y-120022010D01*
X116940883Y-120171453D01*
X116940881Y-120171456D01*
X116855694Y-120343221D01*
X116809419Y-120529291D01*
X116806500Y-120572345D01*
X116806500Y-121487656D01*
X116806501Y-121487659D01*
X116809418Y-121530701D01*
X116809418Y-121530702D01*
X116855694Y-121716778D01*
X116940881Y-121888543D01*
X116940883Y-121888546D01*
X117061009Y-122037989D01*
X117061010Y-122037990D01*
X117210453Y-122158116D01*
X117272547Y-122188912D01*
X117323859Y-122236333D01*
X117341388Y-122303968D01*
X117319569Y-122370343D01*
X117272547Y-122411088D01*
X117210453Y-122441883D01*
X117061010Y-122562009D01*
X117061009Y-122562010D01*
X116940883Y-122711453D01*
X116940881Y-122711456D01*
X116855694Y-122883221D01*
X116809419Y-123069291D01*
X116806500Y-123112345D01*
X116806500Y-124027656D01*
X116806501Y-124027659D01*
X116809418Y-124070701D01*
X116809418Y-124070702D01*
X116829257Y-124150476D01*
X116850202Y-124234697D01*
X116855694Y-124256778D01*
X116940881Y-124428543D01*
X116940883Y-124428546D01*
X116940884Y-124428547D01*
X117061010Y-124577990D01*
X117210453Y-124698116D01*
X117235776Y-124710675D01*
X117287088Y-124758094D01*
X117304619Y-124825729D01*
X117282800Y-124892105D01*
X117245779Y-124927301D01*
X117119347Y-125005285D01*
X117119343Y-125005288D01*
X116995289Y-125129342D01*
X116903187Y-125278663D01*
X116903185Y-125278668D01*
X116881811Y-125343172D01*
X116848001Y-125445203D01*
X116848001Y-125445204D01*
X116848000Y-125445204D01*
X116837500Y-125547983D01*
X116837500Y-126672001D01*
X116837501Y-126672018D01*
X116848000Y-126774796D01*
X116848001Y-126774799D01*
X116867664Y-126834137D01*
X116903186Y-126941334D01*
X116995288Y-127090656D01*
X117119344Y-127214712D01*
X117245779Y-127292697D01*
X117292503Y-127344645D01*
X117303726Y-127413608D01*
X117275882Y-127477690D01*
X117235778Y-127509324D01*
X117210452Y-127521884D01*
X117061010Y-127642009D01*
X117061009Y-127642010D01*
X116940883Y-127791453D01*
X116940881Y-127791456D01*
X116855694Y-127963221D01*
X116809419Y-128149291D01*
X116806500Y-128192345D01*
X116806500Y-129107656D01*
X116806501Y-129107659D01*
X116809418Y-129150701D01*
X116809418Y-129150702D01*
X116824667Y-129212018D01*
X116848483Y-129307785D01*
X116855694Y-129336778D01*
X116940881Y-129508543D01*
X116940883Y-129508546D01*
X117061009Y-129657989D01*
X117061010Y-129657990D01*
X117210453Y-129778116D01*
X117272547Y-129808912D01*
X117323859Y-129856333D01*
X117341388Y-129923968D01*
X117319569Y-129990343D01*
X117272547Y-130031088D01*
X117210453Y-130061883D01*
X117061010Y-130182009D01*
X117061009Y-130182010D01*
X116940883Y-130331453D01*
X116940881Y-130331456D01*
X116855694Y-130503221D01*
X116809419Y-130689291D01*
X116809419Y-130689296D01*
X116806500Y-130732343D01*
X116806500Y-131185912D01*
X116806501Y-131610500D01*
X116786817Y-131677539D01*
X116734013Y-131723294D01*
X116682501Y-131734500D01*
X113860406Y-131734500D01*
X113860390Y-131734499D01*
X113782683Y-131734499D01*
X113772955Y-131734117D01*
X113597889Y-131720341D01*
X113578670Y-131717297D01*
X113412672Y-131677445D01*
X113394167Y-131671432D01*
X113236449Y-131606104D01*
X113219112Y-131597271D01*
X113073551Y-131508072D01*
X113057809Y-131496635D01*
X112964345Y-131416810D01*
X112924354Y-131382654D01*
X112917209Y-131376049D01*
X112867558Y-131326399D01*
X112717565Y-131176406D01*
X112689991Y-131126505D01*
X112687668Y-131127318D01*
X112625789Y-130950478D01*
X112579944Y-130877516D01*
X112529816Y-130797738D01*
X112402262Y-130670184D01*
X112269056Y-130586485D01*
X112222765Y-130534150D01*
X112212117Y-130465097D01*
X112240492Y-130401248D01*
X112247347Y-130393810D01*
X112265941Y-130375217D01*
X112632174Y-130008985D01*
X112632209Y-130008965D01*
X112668508Y-129972665D01*
X112668509Y-129972666D01*
X112801020Y-129840153D01*
X113044432Y-129555150D01*
X113264733Y-129251929D01*
X113460565Y-128932358D01*
X113630719Y-128598407D01*
X113774148Y-128252135D01*
X113889967Y-127895678D01*
X113977462Y-127531233D01*
X114036094Y-127161046D01*
X114065500Y-126787400D01*
X114065500Y-126600000D01*
X114065500Y-126525016D01*
X114065500Y-125343172D01*
X114085185Y-125276133D01*
X114137989Y-125230378D01*
X114148548Y-125226130D01*
X114148867Y-125226018D01*
X114149522Y-125225789D01*
X114302262Y-125129816D01*
X114429816Y-125002262D01*
X114525789Y-124849522D01*
X114585368Y-124679255D01*
X114585369Y-124679249D01*
X114605565Y-124500003D01*
X114605565Y-124499996D01*
X114585369Y-124320750D01*
X114585368Y-124320745D01*
X114562984Y-124256775D01*
X114525789Y-124150478D01*
X114524767Y-124148852D01*
X114475662Y-124070701D01*
X114429816Y-123997738D01*
X114302262Y-123870184D01*
X114149523Y-123774211D01*
X113979254Y-123714631D01*
X113979249Y-123714630D01*
X113800004Y-123694435D01*
X113799996Y-123694435D01*
X113620750Y-123714630D01*
X113620745Y-123714631D01*
X113450476Y-123774211D01*
X113297737Y-123870184D01*
X113170184Y-123997737D01*
X113074210Y-124150478D01*
X113014631Y-124320747D01*
X113014631Y-124320749D01*
X113013300Y-124332557D01*
X112988461Y-124394146D01*
X112959308Y-124432141D01*
X112870941Y-124585206D01*
X112870933Y-124585222D01*
X112803301Y-124748511D01*
X112803294Y-124748531D01*
X112757559Y-124919248D01*
X112734495Y-125094495D01*
X112734495Y-125094506D01*
X112734500Y-125174151D01*
X112734500Y-126596948D01*
X112734351Y-126603033D01*
X112721170Y-126871327D01*
X112698219Y-126937319D01*
X112643234Y-126980428D01*
X112573671Y-126986966D01*
X112511616Y-126954857D01*
X112480277Y-126906197D01*
X112476463Y-126895297D01*
X112425789Y-126750478D01*
X112399652Y-126708881D01*
X112384506Y-126684775D01*
X112365500Y-126618804D01*
X112365500Y-124332400D01*
X112365498Y-124332354D01*
X112365498Y-124232831D01*
X112365497Y-124232830D01*
X112335748Y-123892789D01*
X112276475Y-123556634D01*
X112188130Y-123226923D01*
X112071384Y-122906167D01*
X112058834Y-122879254D01*
X111927131Y-122596816D01*
X111927123Y-122596800D01*
X111907036Y-122562009D01*
X111756457Y-122301197D01*
X111560671Y-122021586D01*
X111560670Y-122021585D01*
X111560666Y-122021579D01*
X111341258Y-121760100D01*
X111275090Y-121693932D01*
X111241605Y-121632609D01*
X111242565Y-121575812D01*
X111285108Y-121407821D01*
X111305643Y-121160000D01*
X111285108Y-120912179D01*
X111233546Y-120708565D01*
X111224063Y-120671118D01*
X111124173Y-120443393D01*
X110988166Y-120235217D01*
X110954518Y-120198666D01*
X110819744Y-120052262D01*
X110623509Y-119899526D01*
X110623507Y-119899525D01*
X110623506Y-119899524D01*
X110404811Y-119781172D01*
X110404802Y-119781169D01*
X110169616Y-119700429D01*
X109924335Y-119659500D01*
X109675665Y-119659500D01*
X109430383Y-119700429D01*
X109195197Y-119781169D01*
X109195188Y-119781172D01*
X108976493Y-119899524D01*
X108780257Y-120052261D01*
X108611833Y-120235217D01*
X108475826Y-120443393D01*
X108375936Y-120671118D01*
X108314892Y-120912175D01*
X108314890Y-120912187D01*
X108294357Y-121159994D01*
X107700500Y-121159994D01*
X107700500Y-108878711D01*
X108749500Y-108878711D01*
X108749500Y-109121288D01*
X108781161Y-109361785D01*
X108843947Y-109596104D01*
X108936773Y-109820205D01*
X108936776Y-109820212D01*
X109058064Y-110030289D01*
X109058066Y-110030292D01*
X109058067Y-110030293D01*
X109205733Y-110222736D01*
X109205739Y-110222743D01*
X109377256Y-110394260D01*
X109377262Y-110394265D01*
X109569711Y-110541936D01*
X109779788Y-110663224D01*
X110003900Y-110756054D01*
X110238211Y-110818838D01*
X110418586Y-110842584D01*
X110478711Y-110850500D01*
X110478712Y-110850500D01*
X110721289Y-110850500D01*
X110769388Y-110844167D01*
X110961789Y-110818838D01*
X111196100Y-110756054D01*
X111420212Y-110663224D01*
X111630289Y-110541936D01*
X111822738Y-110394265D01*
X111994265Y-110222738D01*
X112141936Y-110030289D01*
X112263224Y-109820212D01*
X112356054Y-109596100D01*
X112418838Y-109361789D01*
X112450500Y-109121288D01*
X112450500Y-108878712D01*
X112418838Y-108638211D01*
X112356054Y-108403900D01*
X112263224Y-108179788D01*
X112141936Y-107969711D01*
X111994265Y-107777262D01*
X111994260Y-107777256D01*
X111822743Y-107605739D01*
X111822736Y-107605733D01*
X111630293Y-107458067D01*
X111630292Y-107458066D01*
X111630289Y-107458064D01*
X111420212Y-107336776D01*
X111420205Y-107336773D01*
X111196104Y-107243947D01*
X110961785Y-107181161D01*
X110721289Y-107149500D01*
X110721288Y-107149500D01*
X110478712Y-107149500D01*
X110478711Y-107149500D01*
X110238214Y-107181161D01*
X110003895Y-107243947D01*
X109779794Y-107336773D01*
X109779785Y-107336777D01*
X109569706Y-107458067D01*
X109377263Y-107605733D01*
X109377256Y-107605739D01*
X109205739Y-107777256D01*
X109205733Y-107777263D01*
X109058067Y-107969706D01*
X108936777Y-108179785D01*
X108936773Y-108179794D01*
X108843947Y-108403895D01*
X108781161Y-108638214D01*
X108749500Y-108878711D01*
X107700500Y-108878711D01*
X107700500Y-99424749D01*
X107720185Y-99357710D01*
X107772989Y-99311955D01*
X107824669Y-99300750D01*
X123425682Y-99323069D01*
G37*
%TD.AperFunction*%
%TD*%
M02*
