%TF.GenerationSoftware,KiCad,Pcbnew,8.0.2*%
%TF.CreationDate,2026-04-15T23:00:47+02:00*%
%TF.ProjectId,m18,6d31382e-6b69-4636-9164-5f7063625858,rev?*%
%TF.SameCoordinates,Original*%
%TF.FileFunction,Legend,Top*%
%TF.FilePolarity,Positive*%
%FSLAX46Y46*%
G04 Gerber Fmt 4.6, Leading zero omitted, Abs format (unit mm)*
G04 Created by KiCad (PCBNEW 8.0.2) date 2026-04-15 23:00:47*
%MOMM*%
%LPD*%
G01*
G04 APERTURE LIST*
%ADD10C,0.750000*%
%ADD11C,0.100000*%
%ADD12C,0.250000*%
%ADD13C,0.150000*%
%ADD14C,0.300000*%
%ADD15C,0.120000*%
G04 APERTURE END LIST*
D10*
X110017935Y-157467914D02*
X109732221Y-157325057D01*
X109732221Y-157325057D02*
X109303649Y-157325057D01*
X109303649Y-157325057D02*
X108875078Y-157467914D01*
X108875078Y-157467914D02*
X108589363Y-157753628D01*
X108589363Y-157753628D02*
X108446506Y-158039342D01*
X108446506Y-158039342D02*
X108303649Y-158610771D01*
X108303649Y-158610771D02*
X108303649Y-159039342D01*
X108303649Y-159039342D02*
X108446506Y-159610771D01*
X108446506Y-159610771D02*
X108589363Y-159896485D01*
X108589363Y-159896485D02*
X108875078Y-160182200D01*
X108875078Y-160182200D02*
X109303649Y-160325057D01*
X109303649Y-160325057D02*
X109589363Y-160325057D01*
X109589363Y-160325057D02*
X110017935Y-160182200D01*
X110017935Y-160182200D02*
X110160792Y-160039342D01*
X110160792Y-160039342D02*
X110160792Y-159039342D01*
X110160792Y-159039342D02*
X109589363Y-159039342D01*
X111446506Y-160325057D02*
X111446506Y-157325057D01*
X113160792Y-160325057D02*
X111875078Y-158610771D01*
X113160792Y-157325057D02*
X111446506Y-159039342D01*
X116589363Y-157182200D02*
X114017935Y-161039342D01*
X117446506Y-157610771D02*
X117589363Y-157467914D01*
X117589363Y-157467914D02*
X117875078Y-157325057D01*
X117875078Y-157325057D02*
X118589363Y-157325057D01*
X118589363Y-157325057D02*
X118875078Y-157467914D01*
X118875078Y-157467914D02*
X119017935Y-157610771D01*
X119017935Y-157610771D02*
X119160792Y-157896485D01*
X119160792Y-157896485D02*
X119160792Y-158182200D01*
X119160792Y-158182200D02*
X119017935Y-158610771D01*
X119017935Y-158610771D02*
X117303649Y-160325057D01*
X117303649Y-160325057D02*
X119160792Y-160325057D01*
X121732221Y-157325057D02*
X121160792Y-157325057D01*
X121160792Y-157325057D02*
X120875078Y-157467914D01*
X120875078Y-157467914D02*
X120732221Y-157610771D01*
X120732221Y-157610771D02*
X120446506Y-158039342D01*
X120446506Y-158039342D02*
X120303649Y-158610771D01*
X120303649Y-158610771D02*
X120303649Y-159753628D01*
X120303649Y-159753628D02*
X120446506Y-160039342D01*
X120446506Y-160039342D02*
X120589363Y-160182200D01*
X120589363Y-160182200D02*
X120875078Y-160325057D01*
X120875078Y-160325057D02*
X121446506Y-160325057D01*
X121446506Y-160325057D02*
X121732221Y-160182200D01*
X121732221Y-160182200D02*
X121875078Y-160039342D01*
X121875078Y-160039342D02*
X122017935Y-159753628D01*
X122017935Y-159753628D02*
X122017935Y-159039342D01*
X122017935Y-159039342D02*
X121875078Y-158753628D01*
X121875078Y-158753628D02*
X121732221Y-158610771D01*
X121732221Y-158610771D02*
X121446506Y-158467914D01*
X121446506Y-158467914D02*
X120875078Y-158467914D01*
X120875078Y-158467914D02*
X120589363Y-158610771D01*
X120589363Y-158610771D02*
X120446506Y-158753628D01*
X120446506Y-158753628D02*
X120303649Y-159039342D01*
D11*
X166959598Y-124196019D02*
X166959598Y-124910304D01*
X166959598Y-124910304D02*
X166911979Y-125053161D01*
X166911979Y-125053161D02*
X166816741Y-125148400D01*
X166816741Y-125148400D02*
X166673884Y-125196019D01*
X166673884Y-125196019D02*
X166578646Y-125196019D01*
X167388170Y-124291257D02*
X167435789Y-124243638D01*
X167435789Y-124243638D02*
X167531027Y-124196019D01*
X167531027Y-124196019D02*
X167769122Y-124196019D01*
X167769122Y-124196019D02*
X167864360Y-124243638D01*
X167864360Y-124243638D02*
X167911979Y-124291257D01*
X167911979Y-124291257D02*
X167959598Y-124386495D01*
X167959598Y-124386495D02*
X167959598Y-124481733D01*
X167959598Y-124481733D02*
X167911979Y-124624590D01*
X167911979Y-124624590D02*
X167340551Y-125196019D01*
X167340551Y-125196019D02*
X167959598Y-125196019D01*
X167010398Y-135372019D02*
X167010398Y-136086304D01*
X167010398Y-136086304D02*
X166962779Y-136229161D01*
X166962779Y-136229161D02*
X166867541Y-136324400D01*
X166867541Y-136324400D02*
X166724684Y-136372019D01*
X166724684Y-136372019D02*
X166629446Y-136372019D01*
X168010398Y-136372019D02*
X167438970Y-136372019D01*
X167724684Y-136372019D02*
X167724684Y-135372019D01*
X167724684Y-135372019D02*
X167629446Y-135514876D01*
X167629446Y-135514876D02*
X167534208Y-135610114D01*
X167534208Y-135610114D02*
X167438970Y-135657733D01*
X138780074Y-146072419D02*
X138303884Y-146072419D01*
X138303884Y-146072419D02*
X138256265Y-146548609D01*
X138256265Y-146548609D02*
X138303884Y-146500990D01*
X138303884Y-146500990D02*
X138399122Y-146453371D01*
X138399122Y-146453371D02*
X138637217Y-146453371D01*
X138637217Y-146453371D02*
X138732455Y-146500990D01*
X138732455Y-146500990D02*
X138780074Y-146548609D01*
X138780074Y-146548609D02*
X138827693Y-146643847D01*
X138827693Y-146643847D02*
X138827693Y-146881942D01*
X138827693Y-146881942D02*
X138780074Y-146977180D01*
X138780074Y-146977180D02*
X138732455Y-147024800D01*
X138732455Y-147024800D02*
X138637217Y-147072419D01*
X138637217Y-147072419D02*
X138399122Y-147072419D01*
X138399122Y-147072419D02*
X138303884Y-147024800D01*
X138303884Y-147024800D02*
X138256265Y-146977180D01*
X139113408Y-146072419D02*
X139446741Y-147072419D01*
X139446741Y-147072419D02*
X139780074Y-146072419D01*
X146092512Y-131282819D02*
X145759179Y-130806628D01*
X145521084Y-131282819D02*
X145521084Y-130282819D01*
X145521084Y-130282819D02*
X145902036Y-130282819D01*
X145902036Y-130282819D02*
X145997274Y-130330438D01*
X145997274Y-130330438D02*
X146044893Y-130378057D01*
X146044893Y-130378057D02*
X146092512Y-130473295D01*
X146092512Y-130473295D02*
X146092512Y-130616152D01*
X146092512Y-130616152D02*
X146044893Y-130711390D01*
X146044893Y-130711390D02*
X145997274Y-130759009D01*
X145997274Y-130759009D02*
X145902036Y-130806628D01*
X145902036Y-130806628D02*
X145521084Y-130806628D01*
X146425846Y-131282819D02*
X146949655Y-130616152D01*
X146425846Y-130616152D02*
X146949655Y-131282819D01*
X145429027Y-127590419D02*
X146000455Y-127590419D01*
X145714741Y-128590419D02*
X145714741Y-127590419D01*
X146238551Y-128590419D02*
X146762360Y-127923752D01*
X146238551Y-127923752D02*
X146762360Y-128590419D01*
X150337541Y-128222190D02*
X150242303Y-128174571D01*
X150242303Y-128174571D02*
X150194684Y-128126952D01*
X150194684Y-128126952D02*
X150147065Y-128031714D01*
X150147065Y-128031714D02*
X150147065Y-127984095D01*
X150147065Y-127984095D02*
X150194684Y-127888857D01*
X150194684Y-127888857D02*
X150242303Y-127841238D01*
X150242303Y-127841238D02*
X150337541Y-127793619D01*
X150337541Y-127793619D02*
X150528017Y-127793619D01*
X150528017Y-127793619D02*
X150623255Y-127841238D01*
X150623255Y-127841238D02*
X150670874Y-127888857D01*
X150670874Y-127888857D02*
X150718493Y-127984095D01*
X150718493Y-127984095D02*
X150718493Y-128031714D01*
X150718493Y-128031714D02*
X150670874Y-128126952D01*
X150670874Y-128126952D02*
X150623255Y-128174571D01*
X150623255Y-128174571D02*
X150528017Y-128222190D01*
X150528017Y-128222190D02*
X150337541Y-128222190D01*
X150337541Y-128222190D02*
X150242303Y-128269809D01*
X150242303Y-128269809D02*
X150194684Y-128317428D01*
X150194684Y-128317428D02*
X150147065Y-128412666D01*
X150147065Y-128412666D02*
X150147065Y-128603142D01*
X150147065Y-128603142D02*
X150194684Y-128698380D01*
X150194684Y-128698380D02*
X150242303Y-128746000D01*
X150242303Y-128746000D02*
X150337541Y-128793619D01*
X150337541Y-128793619D02*
X150528017Y-128793619D01*
X150528017Y-128793619D02*
X150623255Y-128746000D01*
X150623255Y-128746000D02*
X150670874Y-128698380D01*
X150670874Y-128698380D02*
X150718493Y-128603142D01*
X150718493Y-128603142D02*
X150718493Y-128412666D01*
X150718493Y-128412666D02*
X150670874Y-128317428D01*
X150670874Y-128317428D02*
X150623255Y-128269809D01*
X150623255Y-128269809D02*
X150528017Y-128222190D01*
X151337541Y-127793619D02*
X151432779Y-127793619D01*
X151432779Y-127793619D02*
X151528017Y-127841238D01*
X151528017Y-127841238D02*
X151575636Y-127888857D01*
X151575636Y-127888857D02*
X151623255Y-127984095D01*
X151623255Y-127984095D02*
X151670874Y-128174571D01*
X151670874Y-128174571D02*
X151670874Y-128412666D01*
X151670874Y-128412666D02*
X151623255Y-128603142D01*
X151623255Y-128603142D02*
X151575636Y-128698380D01*
X151575636Y-128698380D02*
X151528017Y-128746000D01*
X151528017Y-128746000D02*
X151432779Y-128793619D01*
X151432779Y-128793619D02*
X151337541Y-128793619D01*
X151337541Y-128793619D02*
X151242303Y-128746000D01*
X151242303Y-128746000D02*
X151194684Y-128698380D01*
X151194684Y-128698380D02*
X151147065Y-128603142D01*
X151147065Y-128603142D02*
X151099446Y-128412666D01*
X151099446Y-128412666D02*
X151099446Y-128174571D01*
X151099446Y-128174571D02*
X151147065Y-127984095D01*
X151147065Y-127984095D02*
X151194684Y-127888857D01*
X151194684Y-127888857D02*
X151242303Y-127841238D01*
X151242303Y-127841238D02*
X151337541Y-127793619D01*
X152575636Y-127793619D02*
X152099446Y-127793619D01*
X152099446Y-127793619D02*
X152051827Y-128269809D01*
X152051827Y-128269809D02*
X152099446Y-128222190D01*
X152099446Y-128222190D02*
X152194684Y-128174571D01*
X152194684Y-128174571D02*
X152432779Y-128174571D01*
X152432779Y-128174571D02*
X152528017Y-128222190D01*
X152528017Y-128222190D02*
X152575636Y-128269809D01*
X152575636Y-128269809D02*
X152623255Y-128365047D01*
X152623255Y-128365047D02*
X152623255Y-128603142D01*
X152623255Y-128603142D02*
X152575636Y-128698380D01*
X152575636Y-128698380D02*
X152528017Y-128746000D01*
X152528017Y-128746000D02*
X152432779Y-128793619D01*
X152432779Y-128793619D02*
X152194684Y-128793619D01*
X152194684Y-128793619D02*
X152099446Y-128746000D01*
X152099446Y-128746000D02*
X152051827Y-128698380D01*
X153242303Y-127793619D02*
X153337541Y-127793619D01*
X153337541Y-127793619D02*
X153432779Y-127841238D01*
X153432779Y-127841238D02*
X153480398Y-127888857D01*
X153480398Y-127888857D02*
X153528017Y-127984095D01*
X153528017Y-127984095D02*
X153575636Y-128174571D01*
X153575636Y-128174571D02*
X153575636Y-128412666D01*
X153575636Y-128412666D02*
X153528017Y-128603142D01*
X153528017Y-128603142D02*
X153480398Y-128698380D01*
X153480398Y-128698380D02*
X153432779Y-128746000D01*
X153432779Y-128746000D02*
X153337541Y-128793619D01*
X153337541Y-128793619D02*
X153242303Y-128793619D01*
X153242303Y-128793619D02*
X153147065Y-128746000D01*
X153147065Y-128746000D02*
X153099446Y-128698380D01*
X153099446Y-128698380D02*
X153051827Y-128603142D01*
X153051827Y-128603142D02*
X153004208Y-128412666D01*
X153004208Y-128412666D02*
X153004208Y-128174571D01*
X153004208Y-128174571D02*
X153051827Y-127984095D01*
X153051827Y-127984095D02*
X153099446Y-127888857D01*
X153099446Y-127888857D02*
X153147065Y-127841238D01*
X153147065Y-127841238D02*
X153242303Y-127793619D01*
X145724284Y-133340266D02*
X146486189Y-133340266D01*
D12*
X142454949Y-119374857D02*
X142931139Y-119374857D01*
X142359711Y-119803428D02*
X142693044Y-118303428D01*
X142693044Y-118303428D02*
X143026377Y-119803428D01*
X143788282Y-119803428D02*
X143788282Y-118303428D01*
X143788282Y-119732000D02*
X143693044Y-119803428D01*
X143693044Y-119803428D02*
X143502568Y-119803428D01*
X143502568Y-119803428D02*
X143407330Y-119732000D01*
X143407330Y-119732000D02*
X143359711Y-119660571D01*
X143359711Y-119660571D02*
X143312092Y-119517714D01*
X143312092Y-119517714D02*
X143312092Y-119089142D01*
X143312092Y-119089142D02*
X143359711Y-118946285D01*
X143359711Y-118946285D02*
X143407330Y-118874857D01*
X143407330Y-118874857D02*
X143502568Y-118803428D01*
X143502568Y-118803428D02*
X143693044Y-118803428D01*
X143693044Y-118803428D02*
X143788282Y-118874857D01*
X144693044Y-119803428D02*
X144693044Y-119017714D01*
X144693044Y-119017714D02*
X144645425Y-118874857D01*
X144645425Y-118874857D02*
X144550187Y-118803428D01*
X144550187Y-118803428D02*
X144359711Y-118803428D01*
X144359711Y-118803428D02*
X144264473Y-118874857D01*
X144693044Y-119732000D02*
X144597806Y-119803428D01*
X144597806Y-119803428D02*
X144359711Y-119803428D01*
X144359711Y-119803428D02*
X144264473Y-119732000D01*
X144264473Y-119732000D02*
X144216854Y-119589142D01*
X144216854Y-119589142D02*
X144216854Y-119446285D01*
X144216854Y-119446285D02*
X144264473Y-119303428D01*
X144264473Y-119303428D02*
X144359711Y-119232000D01*
X144359711Y-119232000D02*
X144597806Y-119232000D01*
X144597806Y-119232000D02*
X144693044Y-119160571D01*
X145169235Y-118803428D02*
X145169235Y-120303428D01*
X145169235Y-118874857D02*
X145264473Y-118803428D01*
X145264473Y-118803428D02*
X145454949Y-118803428D01*
X145454949Y-118803428D02*
X145550187Y-118874857D01*
X145550187Y-118874857D02*
X145597806Y-118946285D01*
X145597806Y-118946285D02*
X145645425Y-119089142D01*
X145645425Y-119089142D02*
X145645425Y-119517714D01*
X145645425Y-119517714D02*
X145597806Y-119660571D01*
X145597806Y-119660571D02*
X145550187Y-119732000D01*
X145550187Y-119732000D02*
X145454949Y-119803428D01*
X145454949Y-119803428D02*
X145264473Y-119803428D01*
X145264473Y-119803428D02*
X145169235Y-119732000D01*
X145931140Y-118803428D02*
X146312092Y-118803428D01*
X146073997Y-118303428D02*
X146073997Y-119589142D01*
X146073997Y-119589142D02*
X146121616Y-119732000D01*
X146121616Y-119732000D02*
X146216854Y-119803428D01*
X146216854Y-119803428D02*
X146312092Y-119803428D01*
X147026378Y-119732000D02*
X146931140Y-119803428D01*
X146931140Y-119803428D02*
X146740664Y-119803428D01*
X146740664Y-119803428D02*
X146645426Y-119732000D01*
X146645426Y-119732000D02*
X146597807Y-119589142D01*
X146597807Y-119589142D02*
X146597807Y-119017714D01*
X146597807Y-119017714D02*
X146645426Y-118874857D01*
X146645426Y-118874857D02*
X146740664Y-118803428D01*
X146740664Y-118803428D02*
X146931140Y-118803428D01*
X146931140Y-118803428D02*
X147026378Y-118874857D01*
X147026378Y-118874857D02*
X147073997Y-119017714D01*
X147073997Y-119017714D02*
X147073997Y-119160571D01*
X147073997Y-119160571D02*
X146597807Y-119303428D01*
X147502569Y-119803428D02*
X147502569Y-118803428D01*
X147502569Y-119089142D02*
X147550188Y-118946285D01*
X147550188Y-118946285D02*
X147597807Y-118874857D01*
X147597807Y-118874857D02*
X147693045Y-118803428D01*
X147693045Y-118803428D02*
X147788283Y-118803428D01*
D11*
X144708646Y-124972419D02*
X145327693Y-124972419D01*
X145327693Y-124972419D02*
X144994360Y-125353371D01*
X144994360Y-125353371D02*
X145137217Y-125353371D01*
X145137217Y-125353371D02*
X145232455Y-125400990D01*
X145232455Y-125400990D02*
X145280074Y-125448609D01*
X145280074Y-125448609D02*
X145327693Y-125543847D01*
X145327693Y-125543847D02*
X145327693Y-125781942D01*
X145327693Y-125781942D02*
X145280074Y-125877180D01*
X145280074Y-125877180D02*
X145232455Y-125924800D01*
X145232455Y-125924800D02*
X145137217Y-125972419D01*
X145137217Y-125972419D02*
X144851503Y-125972419D01*
X144851503Y-125972419D02*
X144756265Y-125924800D01*
X144756265Y-125924800D02*
X144708646Y-125877180D01*
X145613408Y-124972419D02*
X145946741Y-125972419D01*
X145946741Y-125972419D02*
X146280074Y-124972419D01*
X146518170Y-124972419D02*
X147137217Y-124972419D01*
X147137217Y-124972419D02*
X146803884Y-125353371D01*
X146803884Y-125353371D02*
X146946741Y-125353371D01*
X146946741Y-125353371D02*
X147041979Y-125400990D01*
X147041979Y-125400990D02*
X147089598Y-125448609D01*
X147089598Y-125448609D02*
X147137217Y-125543847D01*
X147137217Y-125543847D02*
X147137217Y-125781942D01*
X147137217Y-125781942D02*
X147089598Y-125877180D01*
X147089598Y-125877180D02*
X147041979Y-125924800D01*
X147041979Y-125924800D02*
X146946741Y-125972419D01*
X146946741Y-125972419D02*
X146661027Y-125972419D01*
X146661027Y-125972419D02*
X146565789Y-125924800D01*
X146565789Y-125924800D02*
X146518170Y-125877180D01*
D12*
X142602568Y-117403428D02*
X142602568Y-115903428D01*
X142602568Y-115903428D02*
X142935901Y-116974857D01*
X142935901Y-116974857D02*
X143269234Y-115903428D01*
X143269234Y-115903428D02*
X143269234Y-117403428D01*
X143745425Y-117403428D02*
X143745425Y-116403428D01*
X143745425Y-115903428D02*
X143697806Y-115974857D01*
X143697806Y-115974857D02*
X143745425Y-116046285D01*
X143745425Y-116046285D02*
X143793044Y-115974857D01*
X143793044Y-115974857D02*
X143745425Y-115903428D01*
X143745425Y-115903428D02*
X143745425Y-116046285D01*
X144364472Y-117403428D02*
X144269234Y-117332000D01*
X144269234Y-117332000D02*
X144221615Y-117189142D01*
X144221615Y-117189142D02*
X144221615Y-115903428D01*
X144650187Y-116403428D02*
X144840663Y-117403428D01*
X144840663Y-117403428D02*
X145031139Y-116689142D01*
X145031139Y-116689142D02*
X145221615Y-117403428D01*
X145221615Y-117403428D02*
X145412091Y-116403428D01*
X146221615Y-117403428D02*
X146221615Y-116617714D01*
X146221615Y-116617714D02*
X146173996Y-116474857D01*
X146173996Y-116474857D02*
X146078758Y-116403428D01*
X146078758Y-116403428D02*
X145888282Y-116403428D01*
X145888282Y-116403428D02*
X145793044Y-116474857D01*
X146221615Y-117332000D02*
X146126377Y-117403428D01*
X146126377Y-117403428D02*
X145888282Y-117403428D01*
X145888282Y-117403428D02*
X145793044Y-117332000D01*
X145793044Y-117332000D02*
X145745425Y-117189142D01*
X145745425Y-117189142D02*
X145745425Y-117046285D01*
X145745425Y-117046285D02*
X145793044Y-116903428D01*
X145793044Y-116903428D02*
X145888282Y-116832000D01*
X145888282Y-116832000D02*
X146126377Y-116832000D01*
X146126377Y-116832000D02*
X146221615Y-116760571D01*
X147126377Y-116403428D02*
X147126377Y-117403428D01*
X146697806Y-116403428D02*
X146697806Y-117189142D01*
X146697806Y-117189142D02*
X146745425Y-117332000D01*
X146745425Y-117332000D02*
X146840663Y-117403428D01*
X146840663Y-117403428D02*
X146983520Y-117403428D01*
X146983520Y-117403428D02*
X147078758Y-117332000D01*
X147078758Y-117332000D02*
X147126377Y-117260571D01*
X147602568Y-117403428D02*
X147602568Y-115903428D01*
X147697806Y-116832000D02*
X147983520Y-117403428D01*
X147983520Y-116403428D02*
X147602568Y-116974857D01*
X148793044Y-117332000D02*
X148697806Y-117403428D01*
X148697806Y-117403428D02*
X148507330Y-117403428D01*
X148507330Y-117403428D02*
X148412092Y-117332000D01*
X148412092Y-117332000D02*
X148364473Y-117189142D01*
X148364473Y-117189142D02*
X148364473Y-116617714D01*
X148364473Y-116617714D02*
X148412092Y-116474857D01*
X148412092Y-116474857D02*
X148507330Y-116403428D01*
X148507330Y-116403428D02*
X148697806Y-116403428D01*
X148697806Y-116403428D02*
X148793044Y-116474857D01*
X148793044Y-116474857D02*
X148840663Y-116617714D01*
X148840663Y-116617714D02*
X148840663Y-116760571D01*
X148840663Y-116760571D02*
X148364473Y-116903428D01*
X149650187Y-117332000D02*
X149554949Y-117403428D01*
X149554949Y-117403428D02*
X149364473Y-117403428D01*
X149364473Y-117403428D02*
X149269235Y-117332000D01*
X149269235Y-117332000D02*
X149221616Y-117189142D01*
X149221616Y-117189142D02*
X149221616Y-116617714D01*
X149221616Y-116617714D02*
X149269235Y-116474857D01*
X149269235Y-116474857D02*
X149364473Y-116403428D01*
X149364473Y-116403428D02*
X149554949Y-116403428D01*
X149554949Y-116403428D02*
X149650187Y-116474857D01*
X149650187Y-116474857D02*
X149697806Y-116617714D01*
X149697806Y-116617714D02*
X149697806Y-116760571D01*
X149697806Y-116760571D02*
X149221616Y-116903428D01*
D13*
X145066667Y-107957200D02*
X145209524Y-108004819D01*
X145209524Y-108004819D02*
X145447619Y-108004819D01*
X145447619Y-108004819D02*
X145542857Y-107957200D01*
X145542857Y-107957200D02*
X145590476Y-107909580D01*
X145590476Y-107909580D02*
X145638095Y-107814342D01*
X145638095Y-107814342D02*
X145638095Y-107719104D01*
X145638095Y-107719104D02*
X145590476Y-107623866D01*
X145590476Y-107623866D02*
X145542857Y-107576247D01*
X145542857Y-107576247D02*
X145447619Y-107528628D01*
X145447619Y-107528628D02*
X145257143Y-107481009D01*
X145257143Y-107481009D02*
X145161905Y-107433390D01*
X145161905Y-107433390D02*
X145114286Y-107385771D01*
X145114286Y-107385771D02*
X145066667Y-107290533D01*
X145066667Y-107290533D02*
X145066667Y-107195295D01*
X145066667Y-107195295D02*
X145114286Y-107100057D01*
X145114286Y-107100057D02*
X145161905Y-107052438D01*
X145161905Y-107052438D02*
X145257143Y-107004819D01*
X145257143Y-107004819D02*
X145495238Y-107004819D01*
X145495238Y-107004819D02*
X145638095Y-107052438D01*
X145971429Y-107004819D02*
X146209524Y-108004819D01*
X146209524Y-108004819D02*
X146400000Y-107290533D01*
X146400000Y-107290533D02*
X146590476Y-108004819D01*
X146590476Y-108004819D02*
X146828572Y-107004819D01*
X147161905Y-107100057D02*
X147209524Y-107052438D01*
X147209524Y-107052438D02*
X147304762Y-107004819D01*
X147304762Y-107004819D02*
X147542857Y-107004819D01*
X147542857Y-107004819D02*
X147638095Y-107052438D01*
X147638095Y-107052438D02*
X147685714Y-107100057D01*
X147685714Y-107100057D02*
X147733333Y-107195295D01*
X147733333Y-107195295D02*
X147733333Y-107290533D01*
X147733333Y-107290533D02*
X147685714Y-107433390D01*
X147685714Y-107433390D02*
X147114286Y-108004819D01*
X147114286Y-108004819D02*
X147733333Y-108004819D01*
D11*
X158216384Y-158772419D02*
X158216384Y-157772419D01*
X158692574Y-158105752D02*
X158692574Y-158772419D01*
X158692574Y-158200990D02*
X158740193Y-158153371D01*
X158740193Y-158153371D02*
X158835431Y-158105752D01*
X158835431Y-158105752D02*
X158978288Y-158105752D01*
X158978288Y-158105752D02*
X159073526Y-158153371D01*
X159073526Y-158153371D02*
X159121145Y-158248609D01*
X159121145Y-158248609D02*
X159121145Y-158772419D01*
X159597336Y-158391466D02*
X160359241Y-158391466D01*
X157516384Y-148072419D02*
X157516384Y-147072419D01*
X157992574Y-147405752D02*
X157992574Y-148072419D01*
X157992574Y-147500990D02*
X158040193Y-147453371D01*
X158040193Y-147453371D02*
X158135431Y-147405752D01*
X158135431Y-147405752D02*
X158278288Y-147405752D01*
X158278288Y-147405752D02*
X158373526Y-147453371D01*
X158373526Y-147453371D02*
X158421145Y-147548609D01*
X158421145Y-147548609D02*
X158421145Y-148072419D01*
X158897336Y-147691466D02*
X159659241Y-147691466D01*
X159278288Y-148072419D02*
X159278288Y-147310514D01*
X126034122Y-119123561D02*
X126034122Y-119656895D01*
X125691265Y-119123561D02*
X125691265Y-119542609D01*
X125691265Y-119542609D02*
X125729360Y-119618800D01*
X125729360Y-119618800D02*
X125805550Y-119656895D01*
X125805550Y-119656895D02*
X125919836Y-119656895D01*
X125919836Y-119656895D02*
X125996027Y-119618800D01*
X125996027Y-119618800D02*
X126034122Y-119580704D01*
X126376979Y-119618800D02*
X126453170Y-119656895D01*
X126453170Y-119656895D02*
X126605551Y-119656895D01*
X126605551Y-119656895D02*
X126681741Y-119618800D01*
X126681741Y-119618800D02*
X126719837Y-119542609D01*
X126719837Y-119542609D02*
X126719837Y-119504514D01*
X126719837Y-119504514D02*
X126681741Y-119428323D01*
X126681741Y-119428323D02*
X126605551Y-119390228D01*
X126605551Y-119390228D02*
X126491265Y-119390228D01*
X126491265Y-119390228D02*
X126415075Y-119352133D01*
X126415075Y-119352133D02*
X126376979Y-119275942D01*
X126376979Y-119275942D02*
X126376979Y-119237847D01*
X126376979Y-119237847D02*
X126415075Y-119161657D01*
X126415075Y-119161657D02*
X126491265Y-119123561D01*
X126491265Y-119123561D02*
X126605551Y-119123561D01*
X126605551Y-119123561D02*
X126681741Y-119161657D01*
X127062694Y-119656895D02*
X127062694Y-118856895D01*
X127062694Y-119161657D02*
X127138884Y-119123561D01*
X127138884Y-119123561D02*
X127291265Y-119123561D01*
X127291265Y-119123561D02*
X127367456Y-119161657D01*
X127367456Y-119161657D02*
X127405551Y-119199752D01*
X127405551Y-119199752D02*
X127443646Y-119275942D01*
X127443646Y-119275942D02*
X127443646Y-119504514D01*
X127443646Y-119504514D02*
X127405551Y-119580704D01*
X127405551Y-119580704D02*
X127367456Y-119618800D01*
X127367456Y-119618800D02*
X127291265Y-119656895D01*
X127291265Y-119656895D02*
X127138884Y-119656895D01*
X127138884Y-119656895D02*
X127062694Y-119618800D01*
D13*
X150244019Y-135155238D02*
X150244019Y-135726666D01*
X150244019Y-135440952D02*
X149244019Y-135440952D01*
X149244019Y-135440952D02*
X149386876Y-135536190D01*
X149386876Y-135536190D02*
X149482114Y-135631428D01*
X149482114Y-135631428D02*
X149529733Y-135726666D01*
X149244019Y-134536190D02*
X149244019Y-134440952D01*
X149244019Y-134440952D02*
X149291638Y-134345714D01*
X149291638Y-134345714D02*
X149339257Y-134298095D01*
X149339257Y-134298095D02*
X149434495Y-134250476D01*
X149434495Y-134250476D02*
X149624971Y-134202857D01*
X149624971Y-134202857D02*
X149863066Y-134202857D01*
X149863066Y-134202857D02*
X150053542Y-134250476D01*
X150053542Y-134250476D02*
X150148780Y-134298095D01*
X150148780Y-134298095D02*
X150196400Y-134345714D01*
X150196400Y-134345714D02*
X150244019Y-134440952D01*
X150244019Y-134440952D02*
X150244019Y-134536190D01*
X150244019Y-134536190D02*
X150196400Y-134631428D01*
X150196400Y-134631428D02*
X150148780Y-134679047D01*
X150148780Y-134679047D02*
X150053542Y-134726666D01*
X150053542Y-134726666D02*
X149863066Y-134774285D01*
X149863066Y-134774285D02*
X149624971Y-134774285D01*
X149624971Y-134774285D02*
X149434495Y-134726666D01*
X149434495Y-134726666D02*
X149339257Y-134679047D01*
X149339257Y-134679047D02*
X149291638Y-134631428D01*
X149291638Y-134631428D02*
X149244019Y-134536190D01*
X150244019Y-133774285D02*
X149244019Y-133774285D01*
X149863066Y-133679047D02*
X150244019Y-133393333D01*
X149577352Y-133393333D02*
X149958304Y-133774285D01*
D11*
X156342619Y-135256838D02*
X156342619Y-135828266D01*
X156342619Y-135542552D02*
X155342619Y-135542552D01*
X155342619Y-135542552D02*
X155485476Y-135637790D01*
X155485476Y-135637790D02*
X155580714Y-135733028D01*
X155580714Y-135733028D02*
X155628333Y-135828266D01*
X155342619Y-134352076D02*
X155342619Y-134828266D01*
X155342619Y-134828266D02*
X155818809Y-134875885D01*
X155818809Y-134875885D02*
X155771190Y-134828266D01*
X155771190Y-134828266D02*
X155723571Y-134733028D01*
X155723571Y-134733028D02*
X155723571Y-134494933D01*
X155723571Y-134494933D02*
X155771190Y-134399695D01*
X155771190Y-134399695D02*
X155818809Y-134352076D01*
X155818809Y-134352076D02*
X155914047Y-134304457D01*
X155914047Y-134304457D02*
X156152142Y-134304457D01*
X156152142Y-134304457D02*
X156247380Y-134352076D01*
X156247380Y-134352076D02*
X156295000Y-134399695D01*
X156295000Y-134399695D02*
X156342619Y-134494933D01*
X156342619Y-134494933D02*
X156342619Y-134733028D01*
X156342619Y-134733028D02*
X156295000Y-134828266D01*
X156295000Y-134828266D02*
X156247380Y-134875885D01*
X156342619Y-133875885D02*
X155342619Y-133875885D01*
X155961666Y-133780647D02*
X156342619Y-133494933D01*
X155675952Y-133494933D02*
X156056904Y-133875885D01*
X149679819Y-125858838D02*
X149679819Y-126430266D01*
X149679819Y-126144552D02*
X148679819Y-126144552D01*
X148679819Y-126144552D02*
X148822676Y-126239790D01*
X148822676Y-126239790D02*
X148917914Y-126335028D01*
X148917914Y-126335028D02*
X148965533Y-126430266D01*
X148679819Y-125239790D02*
X148679819Y-125144552D01*
X148679819Y-125144552D02*
X148727438Y-125049314D01*
X148727438Y-125049314D02*
X148775057Y-125001695D01*
X148775057Y-125001695D02*
X148870295Y-124954076D01*
X148870295Y-124954076D02*
X149060771Y-124906457D01*
X149060771Y-124906457D02*
X149298866Y-124906457D01*
X149298866Y-124906457D02*
X149489342Y-124954076D01*
X149489342Y-124954076D02*
X149584580Y-125001695D01*
X149584580Y-125001695D02*
X149632200Y-125049314D01*
X149632200Y-125049314D02*
X149679819Y-125144552D01*
X149679819Y-125144552D02*
X149679819Y-125239790D01*
X149679819Y-125239790D02*
X149632200Y-125335028D01*
X149632200Y-125335028D02*
X149584580Y-125382647D01*
X149584580Y-125382647D02*
X149489342Y-125430266D01*
X149489342Y-125430266D02*
X149298866Y-125477885D01*
X149298866Y-125477885D02*
X149060771Y-125477885D01*
X149060771Y-125477885D02*
X148870295Y-125430266D01*
X148870295Y-125430266D02*
X148775057Y-125382647D01*
X148775057Y-125382647D02*
X148727438Y-125335028D01*
X148727438Y-125335028D02*
X148679819Y-125239790D01*
X149679819Y-124477885D02*
X148679819Y-124477885D01*
X149298866Y-124382647D02*
X149679819Y-124096933D01*
X149013152Y-124096933D02*
X149394104Y-124477885D01*
X157233919Y-126011238D02*
X157233919Y-126582666D01*
X157233919Y-126296952D02*
X156233919Y-126296952D01*
X156233919Y-126296952D02*
X156376776Y-126392190D01*
X156376776Y-126392190D02*
X156472014Y-126487428D01*
X156472014Y-126487428D02*
X156519633Y-126582666D01*
X156233919Y-125392190D02*
X156233919Y-125296952D01*
X156233919Y-125296952D02*
X156281538Y-125201714D01*
X156281538Y-125201714D02*
X156329157Y-125154095D01*
X156329157Y-125154095D02*
X156424395Y-125106476D01*
X156424395Y-125106476D02*
X156614871Y-125058857D01*
X156614871Y-125058857D02*
X156852966Y-125058857D01*
X156852966Y-125058857D02*
X157043442Y-125106476D01*
X157043442Y-125106476D02*
X157138680Y-125154095D01*
X157138680Y-125154095D02*
X157186300Y-125201714D01*
X157186300Y-125201714D02*
X157233919Y-125296952D01*
X157233919Y-125296952D02*
X157233919Y-125392190D01*
X157233919Y-125392190D02*
X157186300Y-125487428D01*
X157186300Y-125487428D02*
X157138680Y-125535047D01*
X157138680Y-125535047D02*
X157043442Y-125582666D01*
X157043442Y-125582666D02*
X156852966Y-125630285D01*
X156852966Y-125630285D02*
X156614871Y-125630285D01*
X156614871Y-125630285D02*
X156424395Y-125582666D01*
X156424395Y-125582666D02*
X156329157Y-125535047D01*
X156329157Y-125535047D02*
X156281538Y-125487428D01*
X156281538Y-125487428D02*
X156233919Y-125392190D01*
X157233919Y-124630285D02*
X156233919Y-124630285D01*
X156852966Y-124535047D02*
X157233919Y-124249333D01*
X156567252Y-124249333D02*
X156948204Y-124630285D01*
X149206876Y-122758809D02*
X149349733Y-122806428D01*
X149349733Y-122806428D02*
X149397352Y-122854047D01*
X149397352Y-122854047D02*
X149444971Y-122949285D01*
X149444971Y-122949285D02*
X149444971Y-123092142D01*
X149444971Y-123092142D02*
X149397352Y-123187380D01*
X149397352Y-123187380D02*
X149349733Y-123235000D01*
X149349733Y-123235000D02*
X149254495Y-123282619D01*
X149254495Y-123282619D02*
X148873543Y-123282619D01*
X148873543Y-123282619D02*
X148873543Y-122282619D01*
X148873543Y-122282619D02*
X149206876Y-122282619D01*
X149206876Y-122282619D02*
X149302114Y-122330238D01*
X149302114Y-122330238D02*
X149349733Y-122377857D01*
X149349733Y-122377857D02*
X149397352Y-122473095D01*
X149397352Y-122473095D02*
X149397352Y-122568333D01*
X149397352Y-122568333D02*
X149349733Y-122663571D01*
X149349733Y-122663571D02*
X149302114Y-122711190D01*
X149302114Y-122711190D02*
X149206876Y-122758809D01*
X149206876Y-122758809D02*
X148873543Y-122758809D01*
X149825924Y-123235000D02*
X149968781Y-123282619D01*
X149968781Y-123282619D02*
X150206876Y-123282619D01*
X150206876Y-123282619D02*
X150302114Y-123235000D01*
X150302114Y-123235000D02*
X150349733Y-123187380D01*
X150349733Y-123187380D02*
X150397352Y-123092142D01*
X150397352Y-123092142D02*
X150397352Y-122996904D01*
X150397352Y-122996904D02*
X150349733Y-122901666D01*
X150349733Y-122901666D02*
X150302114Y-122854047D01*
X150302114Y-122854047D02*
X150206876Y-122806428D01*
X150206876Y-122806428D02*
X150016400Y-122758809D01*
X150016400Y-122758809D02*
X149921162Y-122711190D01*
X149921162Y-122711190D02*
X149873543Y-122663571D01*
X149873543Y-122663571D02*
X149825924Y-122568333D01*
X149825924Y-122568333D02*
X149825924Y-122473095D01*
X149825924Y-122473095D02*
X149873543Y-122377857D01*
X149873543Y-122377857D02*
X149921162Y-122330238D01*
X149921162Y-122330238D02*
X150016400Y-122282619D01*
X150016400Y-122282619D02*
X150254495Y-122282619D01*
X150254495Y-122282619D02*
X150397352Y-122330238D01*
X150778305Y-123235000D02*
X150921162Y-123282619D01*
X150921162Y-123282619D02*
X151159257Y-123282619D01*
X151159257Y-123282619D02*
X151254495Y-123235000D01*
X151254495Y-123235000D02*
X151302114Y-123187380D01*
X151302114Y-123187380D02*
X151349733Y-123092142D01*
X151349733Y-123092142D02*
X151349733Y-122996904D01*
X151349733Y-122996904D02*
X151302114Y-122901666D01*
X151302114Y-122901666D02*
X151254495Y-122854047D01*
X151254495Y-122854047D02*
X151159257Y-122806428D01*
X151159257Y-122806428D02*
X150968781Y-122758809D01*
X150968781Y-122758809D02*
X150873543Y-122711190D01*
X150873543Y-122711190D02*
X150825924Y-122663571D01*
X150825924Y-122663571D02*
X150778305Y-122568333D01*
X150778305Y-122568333D02*
X150778305Y-122473095D01*
X150778305Y-122473095D02*
X150825924Y-122377857D01*
X150825924Y-122377857D02*
X150873543Y-122330238D01*
X150873543Y-122330238D02*
X150968781Y-122282619D01*
X150968781Y-122282619D02*
X151206876Y-122282619D01*
X151206876Y-122282619D02*
X151349733Y-122330238D01*
X152302114Y-123282619D02*
X151730686Y-123282619D01*
X152016400Y-123282619D02*
X152016400Y-122282619D01*
X152016400Y-122282619D02*
X151921162Y-122425476D01*
X151921162Y-122425476D02*
X151825924Y-122520714D01*
X151825924Y-122520714D02*
X151730686Y-122568333D01*
X152635448Y-122282619D02*
X153254495Y-122282619D01*
X153254495Y-122282619D02*
X152921162Y-122663571D01*
X152921162Y-122663571D02*
X153064019Y-122663571D01*
X153064019Y-122663571D02*
X153159257Y-122711190D01*
X153159257Y-122711190D02*
X153206876Y-122758809D01*
X153206876Y-122758809D02*
X153254495Y-122854047D01*
X153254495Y-122854047D02*
X153254495Y-123092142D01*
X153254495Y-123092142D02*
X153206876Y-123187380D01*
X153206876Y-123187380D02*
X153159257Y-123235000D01*
X153159257Y-123235000D02*
X153064019Y-123282619D01*
X153064019Y-123282619D02*
X152778305Y-123282619D01*
X152778305Y-123282619D02*
X152683067Y-123235000D01*
X152683067Y-123235000D02*
X152635448Y-123187380D01*
X153825924Y-122711190D02*
X153730686Y-122663571D01*
X153730686Y-122663571D02*
X153683067Y-122615952D01*
X153683067Y-122615952D02*
X153635448Y-122520714D01*
X153635448Y-122520714D02*
X153635448Y-122473095D01*
X153635448Y-122473095D02*
X153683067Y-122377857D01*
X153683067Y-122377857D02*
X153730686Y-122330238D01*
X153730686Y-122330238D02*
X153825924Y-122282619D01*
X153825924Y-122282619D02*
X154016400Y-122282619D01*
X154016400Y-122282619D02*
X154111638Y-122330238D01*
X154111638Y-122330238D02*
X154159257Y-122377857D01*
X154159257Y-122377857D02*
X154206876Y-122473095D01*
X154206876Y-122473095D02*
X154206876Y-122520714D01*
X154206876Y-122520714D02*
X154159257Y-122615952D01*
X154159257Y-122615952D02*
X154111638Y-122663571D01*
X154111638Y-122663571D02*
X154016400Y-122711190D01*
X154016400Y-122711190D02*
X153825924Y-122711190D01*
X153825924Y-122711190D02*
X153730686Y-122758809D01*
X153730686Y-122758809D02*
X153683067Y-122806428D01*
X153683067Y-122806428D02*
X153635448Y-122901666D01*
X153635448Y-122901666D02*
X153635448Y-123092142D01*
X153635448Y-123092142D02*
X153683067Y-123187380D01*
X153683067Y-123187380D02*
X153730686Y-123235000D01*
X153730686Y-123235000D02*
X153825924Y-123282619D01*
X153825924Y-123282619D02*
X154016400Y-123282619D01*
X154016400Y-123282619D02*
X154111638Y-123235000D01*
X154111638Y-123235000D02*
X154159257Y-123187380D01*
X154159257Y-123187380D02*
X154206876Y-123092142D01*
X154206876Y-123092142D02*
X154206876Y-122901666D01*
X154206876Y-122901666D02*
X154159257Y-122806428D01*
X154159257Y-122806428D02*
X154111638Y-122758809D01*
X154111638Y-122758809D02*
X154016400Y-122711190D01*
X153243819Y-135206038D02*
X153243819Y-135777466D01*
X153243819Y-135491752D02*
X152243819Y-135491752D01*
X152243819Y-135491752D02*
X152386676Y-135586990D01*
X152386676Y-135586990D02*
X152481914Y-135682228D01*
X152481914Y-135682228D02*
X152529533Y-135777466D01*
X152243819Y-134301276D02*
X152243819Y-134777466D01*
X152243819Y-134777466D02*
X152720009Y-134825085D01*
X152720009Y-134825085D02*
X152672390Y-134777466D01*
X152672390Y-134777466D02*
X152624771Y-134682228D01*
X152624771Y-134682228D02*
X152624771Y-134444133D01*
X152624771Y-134444133D02*
X152672390Y-134348895D01*
X152672390Y-134348895D02*
X152720009Y-134301276D01*
X152720009Y-134301276D02*
X152815247Y-134253657D01*
X152815247Y-134253657D02*
X153053342Y-134253657D01*
X153053342Y-134253657D02*
X153148580Y-134301276D01*
X153148580Y-134301276D02*
X153196200Y-134348895D01*
X153196200Y-134348895D02*
X153243819Y-134444133D01*
X153243819Y-134444133D02*
X153243819Y-134682228D01*
X153243819Y-134682228D02*
X153196200Y-134777466D01*
X153196200Y-134777466D02*
X153148580Y-134825085D01*
X153243819Y-133825085D02*
X152243819Y-133825085D01*
X152862866Y-133729847D02*
X153243819Y-133444133D01*
X152577152Y-133444133D02*
X152958104Y-133825085D01*
D14*
X163136441Y-118830266D02*
X161612632Y-118830266D01*
X161508625Y-123576428D02*
X162365768Y-123576428D01*
X161937196Y-125076428D02*
X161937196Y-123576428D01*
X162722910Y-125076428D02*
X163508625Y-124076428D01*
X162722910Y-124076428D02*
X163508625Y-125076428D01*
X162533733Y-142026441D02*
X162533733Y-140502632D01*
X163295638Y-141264536D02*
X161771828Y-141264536D01*
X162478453Y-136150828D02*
X161978453Y-135436542D01*
X161621310Y-136150828D02*
X161621310Y-134650828D01*
X161621310Y-134650828D02*
X162192739Y-134650828D01*
X162192739Y-134650828D02*
X162335596Y-134722257D01*
X162335596Y-134722257D02*
X162407025Y-134793685D01*
X162407025Y-134793685D02*
X162478453Y-134936542D01*
X162478453Y-134936542D02*
X162478453Y-135150828D01*
X162478453Y-135150828D02*
X162407025Y-135293685D01*
X162407025Y-135293685D02*
X162335596Y-135365114D01*
X162335596Y-135365114D02*
X162192739Y-135436542D01*
X162192739Y-135436542D02*
X161621310Y-135436542D01*
X162978453Y-136150828D02*
X163764168Y-135150828D01*
X162978453Y-135150828D02*
X163764168Y-136150828D01*
D15*
%TO.C,SW1*%
X177423900Y-127873800D02*
X177973900Y-127873800D01*
X178773900Y-128773800D02*
X178773900Y-127848800D01*
X177398900Y-132373800D02*
X177948900Y-132373800D01*
X178773900Y-132386300D02*
X178773900Y-131461300D01*
X176073900Y-132423800D02*
X176073900Y-127723800D01*
%TO.C,SW2*%
X149630000Y-106730000D02*
X143170000Y-106730000D01*
X149630000Y-106700000D02*
X149630000Y-106730000D01*
X149630000Y-104800000D02*
X149630000Y-102200000D01*
X149630000Y-100270000D02*
X149630000Y-100300000D01*
X149630000Y-100270000D02*
X143170000Y-100270000D01*
X143170000Y-106730000D02*
X143170000Y-106700000D01*
X143170000Y-104800000D02*
X143170000Y-102200000D01*
X143170000Y-100270000D02*
X143170000Y-100300000D01*
%TO.C,U2*%
X116730000Y-119755000D02*
X116730000Y-119760000D01*
X116230000Y-119760000D01*
X116730000Y-119255000D01*
X116730000Y-119755000D01*
G36*
X116730000Y-119755000D02*
G01*
X116730000Y-119760000D01*
X116230000Y-119760000D01*
X116730000Y-119255000D01*
X116730000Y-119755000D01*
G37*
%TO.C,R1*%
X147844300Y-134746458D02*
X147844300Y-134271942D01*
X148889300Y-134746458D02*
X148889300Y-134271942D01*
%TO.C,R5*%
X155036100Y-134797258D02*
X155036100Y-134322742D01*
X153991100Y-134797258D02*
X153991100Y-134322742D01*
%TO.C,J2*%
X144489400Y-124299200D02*
X144489400Y-125629200D01*
X143159400Y-124299200D02*
X144489400Y-124299200D01*
X144489400Y-126899200D02*
X144489400Y-134579200D01*
X141829400Y-126899200D02*
X144489400Y-126899200D01*
X141829400Y-126899200D02*
X141829400Y-134579200D01*
X141829400Y-134579200D02*
X144489400Y-134579200D01*
%TO.C,Q1*%
X149484400Y-128950100D02*
X148834400Y-128950100D01*
X149484400Y-128950100D02*
X150134400Y-128950100D01*
X149484400Y-132070100D02*
X148834400Y-132070100D01*
X149484400Y-132070100D02*
X150134400Y-132070100D01*
X150886900Y-132350100D02*
X150406900Y-132350100D01*
X150646900Y-132020100D01*
X150886900Y-132350100D01*
G36*
X150886900Y-132350100D02*
G01*
X150406900Y-132350100D01*
X150646900Y-132020100D01*
X150886900Y-132350100D01*
G37*
%TO.C,R2*%
X147277500Y-125127942D02*
X147277500Y-125602458D01*
X148322500Y-125127942D02*
X148322500Y-125602458D01*
%TO.C,R4*%
X155775000Y-125602458D02*
X155775000Y-125127942D01*
X154730000Y-125602458D02*
X154730000Y-125127942D01*
%TO.C,Q3*%
X153525300Y-132071200D02*
X152875300Y-132071200D01*
X153525300Y-132071200D02*
X154175300Y-132071200D01*
X153525300Y-128951200D02*
X152875300Y-128951200D01*
X153525300Y-128951200D02*
X154175300Y-128951200D01*
X154927800Y-132351200D02*
X154447800Y-132351200D01*
X154687800Y-132021200D01*
X154927800Y-132351200D01*
G36*
X154927800Y-132351200D02*
G01*
X154447800Y-132351200D01*
X154687800Y-132021200D01*
X154927800Y-132351200D01*
G37*
%TO.C,Q2*%
X151848900Y-126874400D02*
X151198900Y-126874400D01*
X151848900Y-126874400D02*
X152498900Y-126874400D01*
X151848900Y-123754400D02*
X151198900Y-123754400D01*
X151848900Y-123754400D02*
X152498900Y-123754400D01*
X150686400Y-123804400D02*
X150446400Y-123474400D01*
X150926400Y-123474400D01*
X150686400Y-123804400D01*
G36*
X150686400Y-123804400D02*
G01*
X150446400Y-123474400D01*
X150926400Y-123474400D01*
X150686400Y-123804400D01*
G37*
%TO.C,R3*%
X150841500Y-134848058D02*
X150841500Y-134373542D01*
X151886500Y-134848058D02*
X151886500Y-134373542D01*
%TD*%
M02*
