M48
; DRILL file {KiCad 8.0.2} date 2026-04-27T19:27:09+0200
; FORMAT={-:-/ absolute / inch / decimal}
; #@! TF.CreationDate,2026-04-27T19:27:09+02:00
; #@! TF.GenerationSoftware,Kicad,Pcbnew,8.0.2
; #@! TF.FileFunction,Plated,1,2,PTH
FMAT,2
INCH
; #@! TA.AperFunction,Plated,PTH,ViaDrill
T1C0.0118
; #@! TA.AperFunction,Plated,PTH,ComponentDrill
T2C0.0354
; #@! TA.AperFunction,Plated,PTH,ComponentDrill
T3C0.0394
; #@! TA.AperFunction,Plated,PTH,ComponentDrill
T4C0.0472
; #@! TA.AperFunction,Plated,PTH,ComponentDrill
T5C0.0551
%
G90
G05
T1
X4.3Y-4.6
X4.3Y-5.8
X4.3Y-6.1
X4.396Y-5.51
X4.3976Y-5.0039
X4.4Y-4.55
X4.4Y-4.7
X4.4Y-5.25
X4.4Y-5.8
X4.4Y-6.1
X4.4055Y-5.1693
X4.408Y-5.378
X4.45Y-4.8
X4.4803Y-4.9016
X4.488Y-5.374
X4.49Y-5.508
X4.5Y-4.3
X4.5Y-4.55
X4.5Y-4.7
X4.5Y-4.8
X4.5Y-5.8
X4.5Y-6.1
X4.6Y-4.3
X4.6Y-4.55
X4.6Y-4.7
X4.6Y-5.8
X4.6Y-6.1
X4.7Y-4.3
X4.7Y-4.55
X4.7Y-4.7
X4.7Y-5.8
X4.7Y-6.1
X4.75Y-4.85
X4.8Y-4.3
X4.8Y-4.55
X4.8Y-4.7
X4.8Y-5.15
X4.8Y-5.25
X4.8Y-5.5
X4.8Y-5.8
X4.8Y-6.1
X4.9Y-4.3
X4.9Y-4.55
X4.9Y-4.7
X4.9Y-4.9
X4.9Y-5.1
X4.9Y-5.25
X4.9Y-5.5
X4.9Y-5.8
X4.9Y-6.1
X4.9488Y-4.7206
X5.0Y-4.3
X5.0Y-4.55
X5.0Y-4.8
X5.0Y-4.9
X5.0Y-5.1
X5.0Y-5.5
X5.0Y-5.8
X5.0Y-6.1
X5.0354Y-4.689
X5.1Y-4.3
X5.1Y-4.6
X5.1Y-4.8
X5.1Y-4.9
X5.1Y-5.0
X5.1Y-5.4
X5.1Y-5.51
X5.1Y-5.8
X5.1Y-6.1
X5.1476Y-5.1713
X5.1614Y-5.2638
X5.184Y-5.316
X5.2Y-4.3
X5.2Y-4.6
X5.2Y-5.55
X5.2Y-5.8
X5.2Y-6.1
X5.3Y-4.3
X5.3Y-5.55
X5.3Y-5.8
X5.3Y-6.1
X5.4Y-4.3
X5.4Y-5.55
X5.4Y-5.8
X5.4Y-6.1
X5.4055Y-5.2126
X5.45Y-4.65
X5.45Y-4.85
X5.45Y-5.5
X5.4646Y-4.9488
X5.5Y-4.3
X5.5Y-4.6
X5.5Y-5.8
X5.5Y-6.1
X5.55Y-4.55
X5.55Y-4.7
X5.568Y-5.254
X5.5827Y-4.9488
X5.5945Y-4.8307
X5.6Y-5.5
X5.6Y-6.1
X5.682Y-4.78
X5.7Y-4.3
X5.7Y-5.2
X5.7Y-5.5
X5.7Y-5.8
X5.7Y-6.1
X5.7087Y-4.9488
X5.725Y-5.1
X5.775Y-5.1
X5.8Y-4.3
X5.8Y-5.025
X5.8Y-5.2
X5.8Y-5.5
X5.8Y-5.8
X5.8Y-6.1
X5.9Y-4.3
X5.9Y-4.6
X5.9Y-5.225
X5.9Y-5.5
X5.9Y-5.8
X5.9Y-6.1
X5.9712Y-5.1008
X6.0Y-4.3
X6.0Y-4.6
X6.0Y-5.0
X6.0Y-5.2
X6.0Y-5.5
X6.0Y-5.8
X6.0Y-6.1
X6.018Y-5.368
X6.1Y-4.3
X6.1Y-4.6
X6.1Y-5.5
X6.1Y-5.8
X6.1Y-6.1
X6.1352Y-5.0996
X6.142Y-5.3
X6.194Y-4.786
X6.2Y-4.3
X6.2Y-4.6
X6.2Y-5.05
X6.2Y-5.2
X6.2Y-5.5
X6.2Y-5.8
X6.2Y-6.1
X6.3Y-4.3
X6.3Y-4.6
X6.3Y-5.05
X6.3Y-5.2
X6.3Y-6.1
X6.4Y-4.3
X6.4Y-4.6
X6.4Y-5.05
X6.4Y-5.2
X6.4Y-5.5
X6.4Y-5.8
X6.4Y-6.1
X6.5Y-4.3
X6.5Y-4.6
X6.5Y-5.05
X6.5Y-5.2
X6.5Y-5.8
X6.5Y-6.1
X6.6Y-4.3
X6.6Y-4.6
X6.6Y-4.9
X6.6Y-5.8
X6.6Y-6.1
X6.608Y-4.778
X6.7Y-4.3
X6.7Y-4.6
X6.7Y-4.9
X6.7Y-5.2
X6.7Y-5.5
X6.7Y-5.8
X6.7Y-6.1
X6.704Y-4.782
X6.8Y-4.3
X6.8Y-4.6
X6.8Y-4.784
X6.8Y-5.5
X6.8Y-5.8
X6.8Y-6.1
X6.9Y-4.3
X6.9Y-4.4
X6.9Y-4.5
X6.9Y-4.6
X6.9Y-4.7
X6.9Y-4.8
X6.9Y-4.924
X6.9Y-5.0
X6.9Y-5.1
X6.9Y-5.2
X6.9Y-5.3
X6.9Y-5.4
X6.9Y-5.5
X6.9Y-5.6
X6.9Y-5.7
X6.9Y-5.8
X6.9Y-5.9
X6.9Y-6.0
X6.9Y-6.1
T2
X4.6634Y-4.765
X4.6634Y-4.865
X4.6634Y-4.965
X4.6634Y-5.065
X4.6634Y-5.165
X4.6634Y-5.265
X4.6634Y-5.365
X4.6634Y-5.465
X5.2634Y-4.765
X5.2634Y-4.865
X5.2634Y-4.965
X5.2634Y-5.065
X5.2634Y-5.165
X5.2634Y-5.265
X5.2634Y-5.365
X5.2634Y-5.465
X5.2748Y-4.4528
X5.3748Y-4.4528
X5.4748Y-4.4528
X5.5748Y-4.4528
T3
X4.3228Y-4.7701
X4.3228Y-4.8693
X4.3228Y-4.9693
X4.3228Y-5.0693
X4.3228Y-5.1693
X4.3228Y-5.2693
X4.3228Y-5.3693
X4.3228Y-5.4693
X5.6362Y-4.946
X5.6362Y-5.046
X5.6362Y-5.146
X5.6362Y-5.246
T4
X5.5871Y-5.7638
X5.5871Y-6.2874
X6.3076Y-5.7638
X6.3076Y-6.2874
T5
X6.2992Y-4.6772
X6.2992Y-4.8976
X6.2992Y-5.3386
X6.2992Y-5.5591
X6.4992Y-4.6772
X6.4992Y-4.8976
X6.4992Y-5.3386
X6.4992Y-5.5591
M30
