%TF.GenerationSoftware,KiCad,Pcbnew,8.0.2*%
%TF.CreationDate,2026-04-27T19:27:05+02:00*%
%TF.ProjectId,m18,6d31382e-6b69-4636-9164-5f7063625858,rev?*%
%TF.SameCoordinates,Original*%
%TF.FileFunction,Soldermask,Bot*%
%TF.FilePolarity,Negative*%
%FSLAX46Y46*%
G04 Gerber Fmt 4.6, Leading zero omitted, Abs format (unit mm)*
G04 Created by KiCad (PCBNEW 8.0.2) date 2026-04-27 19:27:05*
%MOMM*%
%LPD*%
G01*
G04 APERTURE LIST*
G04 Aperture macros list*
%AMRoundRect*
0 Rectangle with rounded corners*
0 $1 Rounding radius*
0 $2 $3 $4 $5 $6 $7 $8 $9 X,Y pos of 4 corners*
0 Add a 4 corners polygon primitive as box body*
4,1,4,$2,$3,$4,$5,$6,$7,$8,$9,$2,$3,0*
0 Add four circle primitives for the rounded corners*
1,1,$1+$1,$2,$3*
1,1,$1+$1,$4,$5*
1,1,$1+$1,$6,$7*
1,1,$1+$1,$8,$9*
0 Add four rect primitives between the rounded corners*
20,1,$1+$1,$2,$3,$4,$5,0*
20,1,$1+$1,$4,$5,$6,$7,0*
20,1,$1+$1,$6,$7,$8,$9,0*
20,1,$1+$1,$8,$9,$2,$3,0*%
G04 Aperture macros list end*
%ADD10C,3.200000*%
%ADD11C,2.200000*%
%ADD12R,1.700000X1.700000*%
%ADD13O,1.700000X1.700000*%
%ADD14C,0.750000*%
%ADD15C,1.000000*%
%ADD16RoundRect,0.381000X-0.762000X-0.381000X0.762000X-0.381000X0.762000X0.381000X-0.762000X0.381000X0*%
%ADD17RoundRect,0.250000X-0.862000X-0.512000X0.862000X-0.512000X0.862000X0.512000X-0.862000X0.512000X0*%
%ADD18C,2.000000*%
%ADD19C,1.600000*%
%ADD20O,1.600000X1.600000*%
G04 APERTURE END LIST*
D10*
%TO.C,REF\u002A\u002A*%
X125400000Y-160600000D03*
%TD*%
D11*
%TO.C,J3*%
X160000000Y-141200000D03*
X165080000Y-141200000D03*
X160000000Y-135600000D03*
X165080000Y-135600000D03*
X160000000Y-124400000D03*
X165080000Y-124400000D03*
X160000000Y-118800000D03*
X165080000Y-118800000D03*
%TD*%
D12*
%TO.C,J2*%
X143159400Y-125629200D03*
D13*
X143159400Y-128169200D03*
X143159400Y-130709200D03*
X143159400Y-133249200D03*
%TD*%
D14*
%TO.C,SW1*%
X177773900Y-128973800D03*
X177773900Y-131173800D03*
%TD*%
D10*
%TO.C,REF\u002A\u002A*%
X173700000Y-99400000D03*
%TD*%
D15*
%TO.C,U2*%
X122035000Y-127750000D03*
D16*
X118450000Y-121030000D03*
X118450000Y-123570000D03*
D17*
X118450000Y-126110000D03*
D16*
X118450000Y-128650000D03*
X118450000Y-131190000D03*
X118450000Y-133730000D03*
X118450000Y-136270000D03*
D17*
X118450000Y-138810000D03*
X133690000Y-138810000D03*
X133690000Y-136270000D03*
X133690000Y-133730000D03*
X133690000Y-131190000D03*
X133690000Y-128650000D03*
X133690000Y-126110000D03*
X133690000Y-123570000D03*
X133690000Y-121030000D03*
%TD*%
D18*
%TO.C,U1*%
X109800000Y-138920000D03*
X109800000Y-136380000D03*
X109800000Y-133840000D03*
X109800000Y-131300000D03*
X109800000Y-128760000D03*
X109800000Y-126220000D03*
X109800000Y-123680000D03*
X109800000Y-121160000D03*
%TD*%
D10*
%TO.C,REF\u002A\u002A*%
X173700000Y-160600000D03*
%TD*%
%TO.C,REF\u002A\u002A*%
X110600000Y-109000000D03*
%TD*%
%TO.C,REF\u002A\u002A*%
X189000000Y-109000000D03*
%TD*%
%TO.C,REF\u002A\u002A*%
X125400000Y-99400000D03*
%TD*%
%TO.C,REF\u002A\u002A*%
X189000000Y-151000000D03*
%TD*%
D19*
%TO.C,J1*%
X133980000Y-113100000D03*
X136520000Y-113100000D03*
X139060000Y-113100000D03*
D20*
X141600000Y-113100000D03*
%TD*%
D10*
%TO.C,REF\u002A\u002A*%
X110600000Y-151000000D03*
%TD*%
D18*
%TO.C,U3*%
X160212500Y-146400000D03*
X160212500Y-159700000D03*
X141912500Y-159700000D03*
X141912500Y-146400000D03*
%TD*%
M02*
